<?xml version="1.0" encoding="UTF-8" standalone="no"?>
<!-- Created with Inkscape (http://www.inkscape.org/) -->

<svg
   xmlns:dc="http://purl.org/dc/elements/1.1/"
   xmlns:cc="http://creativecommons.org/ns#"
   xmlns:rdf="http://www.w3.org/1999/02/22-rdf-syntax-ns#"
   xmlns:svg="http://www.w3.org/2000/svg"
   xmlns="http://www.w3.org/2000/svg"
   xmlns:sodipodi="http://sodipodi.sourceforge.net/DTD/sodipodi-0.dtd"
   xmlns:inkscape="http://www.inkscape.org/namespaces/inkscape"
   width="130mm"
   height="88mm"
   viewBox="0 0 130 88"
   version="1.1"
   id="svg8"
   inkscape:version="0.92.4 (5da689c313, 2019-01-14)"
   sodipodi:docname="fondoBotoneschico.svg">
  <defs
     id="defs2" />
  <sodipodi:namedview
     id="base"
     pagecolor="#ffffff"
     bordercolor="#666666"
     borderopacity="1.0"
     inkscape:pageopacity="0.0"
     inkscape:pageshadow="2"
     inkscape:zoom="1.4"
     inkscape:cx="184.13557"
     inkscape:cy="285.13017"
     inkscape:document-units="mm"
     inkscape:current-layer="layer1"
     showgrid="false"
     height="209mm"
     inkscape:window-width="1920"
     inkscape:window-height="1001"
     inkscape:window-x="-9"
     inkscape:window-y="-9"
     inkscape:window-maximized="1" />
  <metadata
     id="metadata5">
    <rdf:RDF>
      <cc:Work
         rdf:about="">
        <dc:format>image/svg+xml</dc:format>
        <dc:type
           rdf:resource="http://purl.org/dc/dcmitype/StillImage" />
        <dc:title />
      </cc:Work>
    </rdf:RDF>
  </metadata>
  <g
     inkscape:label="Capa 1"
     inkscape:groupmode="layer"
     id="layer1"
     transform="translate(0,-209)">
    <path
       inkscape:connector-curvature="0"
       id="path33"
       d="m 57.403248,256.13801 c -0.164555,-0.51846 0.440331,-1.21337 0.917673,-1.05425 0.390999,0.13034 0.687737,0.7835 0.535813,1.17942 -0.220648,0.57499 -1.259666,0.4855 -1.453486,-0.12517 z m 0.05159,-2.67461 c -0.08533,-0.0853 -0.36336,0.17992 -0.288777,-3.57385 l 0.03341,-1.68146 H 37.350999 c -22.117635,0 -21.524325,0.0391 -23.894096,-1.57658 -5.6589965,-3.85835 -4.5824441,-11.82982 1.920262,-14.21886 1.102559,-0.40507 1.867476,-0.49482 4.217119,-0.49482 h 2.870265 l 0.147515,-1.11198 c 0.38205,-2.88007 3.593661,-4.25738 5.731906,-2.45816 0.919794,0.77395 1.394801,1.70846 1.394801,2.74406 v 0.82608 l 17.861104,0.004 c 9.823617,0.002 18.074302,0.0605 18.334858,0.13046 0.434025,0.11662 0.47375,0.0212 0.47375,-1.1376 0,-1.03167 0.122114,-1.42498 0.66234,-2.13326 1.607569,-2.10763 4.335741,-1.94926 5.89532,0.34224 0.813023,1.19459 0.565342,3.2884 -0.492821,4.16597 -0.225476,0.187 -0.3347,0.49919 -0.258569,0.73906 0.192477,0.60643 -0.585168,0.98885 -1.087107,0.5346 -0.683667,-0.6187 -0.649119,0.0217 0.05798,1.07453 2.201071,3.2773 1.642722,7.51122 -1.351414,10.24769 -1.458828,1.33328 -3.251332,2.07248 -5.478333,2.25919 l -1.571134,0.13172 -0.03341,0.77095 c -0.177711,4.10094 0.04027,2.02971 -0.862164,1.85631 -0.422484,-0.0812 -0.620982,2.25941 -0.68053,-1.72471 l -0.0634,-0.97006 h -1.15834 c -0.874488,0 -1.15834,0.0855 -1.15834,0.34909 0,0.25382 0.261733,0.34907 0.959261,0.34907 0.935551,0 0.950878,0.0125 0.620059,0.51085 -0.449726,0.67733 -0.749279,0.75137 -1.203234,0.29743 -0.3463,-0.34631 -0.409495,-2.76325 -0.409495,2.88786 -0.0119,1.017 -0.416375,1.6926 -1.340249,0.86102 z m 9.362751,-7.28669 c 1.676098,-0.77356 2.776333,-1.74619 3.540011,-3.12947 0.584902,-1.05944 0.684299,-1.4917 0.686282,-2.98428 0.0024,-1.39969 -0.111401,-1.96799 -0.571829,-2.86935 -0.653502,-1.27936 -1.855726,-2.4511 -3.313405,-3.22942 L 66.159112,233.4305 H 41.141953 16.124767 l -0.982577,0.52504 c -1.448437,0.77398 -2.454235,1.74149 -3.1617,3.04133 -2.0003067,3.67521 -0.152108,7.90762 4.097697,9.38376 1.140753,0.39625 2.598458,0.41733 25.412845,0.36757 l 24.202678,-0.0528 z m 4.203659,-12.98269 c 1.437265,-0.68203 1.93336,-2.36975 1.098827,-3.73828 -0.891573,-1.46207 -2.86868,-1.61494 -4.111343,-0.31787 -1.176271,1.22777 -0.750149,3.29278 0.849067,4.11467 0.741689,0.38115 1.26683,0.36695 2.163449,-0.0585 z m -1.373375,-0.8171 c -0.111927,-0.35264 -0.275446,-0.43932 -0.621527,-0.32948 -0.385824,0.12246 -0.444089,0.0686 -0.326458,-0.30208 0.103336,-0.3256 -0.0036,-0.51668 -0.384287,-0.68674 l -0.527459,-0.23561 0.53334,-0.16951 c 0.403293,-0.12818 0.497112,-0.28365 0.384788,-0.63758 -0.117174,-0.36916 -0.0578,-0.44899 0.281167,-0.37785 0.254191,0.0534 0.546527,-0.10427 0.715659,-0.38586 0.284244,-0.47325 0.286818,-0.47297 0.434399,0.0476 0.169896,0.59921 0.19792,0.60901 0.807633,0.28271 0.505849,-0.27072 0.556648,-0.16023 0.217596,0.47329 -0.1882,0.35166 -0.136141,0.4651 0.272961,0.59496 l 0.5055,0.16044 -0.495497,0.26517 c -0.363432,0.19451 -0.437131,0.3575 -0.276517,0.61153 0.348311,0.55092 0.262502,0.73127 -0.224043,0.47089 -0.597557,-0.31981 -0.713453,-0.30447 -0.713453,0.0945 0,0.5504 -0.420124,0.63945 -0.583802,0.12373 z m -40.88422,-1.19997 c 0.174215,-1.50806 -1.380267,-2.91951 -2.937115,-2.66686 -1.428746,0.23185 -2.616605,1.80243 -2.246106,2.96978 0.132567,0.41768 0.339217,0.44816 2.627478,0.38747 l 2.483595,-0.0659 z m -4.138999,-0.17756 -0.576079,-0.44266 0.657166,-0.16494 c 0.448934,-0.11268 0.73514,-0.38863 0.903258,-0.87089 l 0.24609,-0.70594 0.408285,0.5042 c 0.259311,0.32024 0.670625,0.50421 1.12731,0.50421 0.784139,0 0.914577,0.24616 0.369951,0.69816 -0.191993,0.15933 -0.349072,0.43397 -0.349072,0.61028 0,0.50865 -2.081316,0.40975 -2.786909,-0.13242 z m 29.018098,25.19158 c -0.05977,-0.10276 -0.179924,-0.77553 -0.267058,-1.49506 -0.134182,-1.10804 -0.09792,-1.33146 0.23697,-1.45996 0.217466,-0.0834 0.4243,-0.12283 0.459635,-0.0875 0.210604,0.21061 0.14944,3.07257 -0.06721,3.14477 -0.139548,0.0465 -0.3026,5.9e-4 -0.362344,-0.10224 z m -39.908238,-0.71116 c -0.662997,-0.22304 -0.984161,-1.41961 -0.984161,-3.66676 0,-1.22986 0.09004,-2.18048 0.200074,-2.11246 0.110039,0.068 0.256163,1.04288 0.324716,2.16637 0.150334,2.46383 0.300977,2.90531 0.959324,2.81136 0.45181,-0.0644 0.499788,-0.23582 0.561843,-2.00657 0.04855,-1.38582 0.147786,-1.90971 0.349079,-1.84327 0.423068,0.13962 0.483303,2.77463 0.08521,3.72742 -0.324223,0.77597 -0.892564,1.12695 -1.496085,0.92391 z m 15.073385,-1.10468 c -0.319989,-0.18293 -1.030233,-0.3363 -1.57832,-0.34085 -0.54809,-0.005 -1.385877,-0.18454 -1.861743,-0.40002 l -0.865221,-0.39179 1.328483,-0.13382 c 1.565338,-0.15768 1.971729,-0.44604 1.602056,-1.13677 -0.353975,-0.66141 -0.326329,-0.73774 0.269336,-0.74356 0.874277,-0.009 2.424083,-0.83959 2.987931,-1.60224 0.517262,-0.69965 0.584067,-0.71983 2.382488,-0.71983 h 1.850302 l -0.122863,1.35497 c -0.145226,1.6016 -0.805388,3.0056 -1.811177,3.85191 -0.615739,0.51812 -0.94476,0.60982 -2.162845,0.60282 -0.803784,-0.005 -1.692913,-0.15475 -2.018427,-0.34082 z m 15.642427,-0.34633 c -1.289028,-0.58505 -1.899693,-1.8342 -1.906958,-3.90078 l -0.0052,-1.45448 h 0.698154 c 0.684125,0 0.698617,0.0245 0.721351,1.22177 0.03166,1.66722 0.232648,2.26551 0.938023,2.79216 0.708423,0.5289 2.383101,0.62123 3.426836,0.1889 0.588466,-0.24375 0.787543,-0.23394 1.20648,0.0594 l 0.501721,0.35142 -0.57604,0.37743 c -1.401824,0.91852 -3.453947,1.0678 -5.004463,0.36408 z m 6.474287,-1.20686 c -1.226821,-0.35199 -1.997977,-1.00876 -2.541077,-2.16416 -0.653099,-1.3894 -0.62363,-1.67949 0.18263,-1.79783 0.62101,-0.0911 0.686236,-0.0313 0.810113,0.7434 0.177067,1.1073 1.018597,1.86838 2.248228,2.03332 1.658752,0.22248 2.791371,-0.65832 3.062126,-2.38134 0.05324,-0.33868 0.284615,-0.48575 0.849658,-0.54001 0.767145,-0.0736 0.774511,-0.0652 0.610039,0.69815 -0.357949,1.66145 -1.537893,3.05747 -2.919022,3.45357 -0.937337,0.26882 -1.228437,0.26312 -2.302695,-0.0452 z M 20.197331,252.151 c 0,-0.96079 0.524419,-2.54659 0.842145,-2.54659 0.4653,0 1.252317,0.85778 1.252317,1.36492 0,0.686 -0.897617,1.66041 -1.529558,1.66041 -0.414994,0 -0.564904,-0.12704 -0.564904,-0.47874 z m -1.593632,-0.34364 c -0.373896,-0.47533 -0.423081,-0.73174 -0.25367,-1.32243 0.244434,-0.85228 0.380803,-1.00456 1.092115,-1.21949 0.720297,-0.21765 0.854574,0.25192 0.525423,1.83743 -0.300026,1.4452 -0.642192,1.62195 -1.363868,0.70449 z m 22.615193,-0.0957 c -0.410574,-0.24968 -0.865071,-0.82938 -1.088971,-1.38895 -0.531902,-1.32938 -0.49361,-1.64914 0.19752,-1.64914 0.418912,0 0.581792,0.12529 0.581792,0.44758 0,0.24616 0.245188,0.74359 0.544864,1.1054 0.58503,0.70634 0.914194,1.63882 0.638617,1.80913 -0.09302,0.0574 -0.486245,-0.0883 -0.873822,-0.32402 z m 3.460373,0.17342 c -0.428412,-0.42842 -0.335002,-0.78423 0.27935,-1.06415 0.323076,-0.1472 0.674129,-0.60453 0.83257,-1.08459 0.230936,-0.69975 0.380703,-0.83006 0.954045,-0.83006 0.46809,0 0.680107,0.11599 0.680107,0.37209 0,0.72632 -0.787587,2.01633 -1.494038,2.44713 -0.846797,0.51638 -0.889753,0.52185 -1.252034,0.15958 z m -20.889804,-0.25805 c 0.247747,-0.15246 0.690421,-0.52555 0.983732,-0.82907 l 0.533293,-0.55185 -0.482327,-0.61173 -0.482327,-0.61174 2.989369,-0.14121 c 1.644148,-0.0777 3.038025,-0.0988 3.097495,-0.0471 0.05943,0.0518 -5.92e-4,0.26718 -0.134356,0.4786 -0.490079,0.77693 -1.472002,1.28918 -2.690872,1.40376 -0.836314,0.0787 -1.452945,0.29501 -1.896936,0.66567 -0.440214,0.3675 -0.940616,0.54464 -1.512671,0.53548 -0.760517,-0.0123 -0.805138,-0.0442 -0.4044,-0.29089 z m 11.383894,-0.39663 c 0.08285,-0.4143 0.15065,-1.09741 0.15065,-1.51803 v -0.76475 l 1.454485,-0.0896 c 0.799963,-0.0493 1.632286,-0.0322 1.849598,0.0382 0.367614,0.11885 0.368848,0.18193 0.01775,0.90687 -0.431604,0.89116 -1.676552,1.77766 -2.832517,2.01694 -0.789984,0.16352 -0.790508,0.16305 -0.639971,-0.58961 z m 32.731165,0.072 c -0.191986,-0.0674 -0.46704,-0.2698 -0.611222,-0.4499 -0.200935,-0.25101 -0.408498,-0.27184 -0.888844,-0.0892 -0.805101,0.30609 -1.676228,0.0838 -2.112485,-0.53902 -0.594189,-0.84832 -0.435279,-1.28157 0.529046,-1.44239 0.47998,-0.08 1.361495,-0.28022 1.958922,-0.44486 0.867127,-0.23897 1.313091,-0.242 2.210827,-0.015 1.095248,0.27685 1.126437,0.30907 1.19548,1.23515 0.05839,0.78301 -0.02384,1.01063 -0.465444,1.2894 -0.693707,0.43788 -1.377935,0.60963 -1.81628,0.4559 z m -16.88904,-0.24699 c -0.140689,-0.0963 -0.206213,-0.60277 -0.150096,-1.16002 0.08668,-0.86055 0.172026,-0.98906 0.656968,-0.98906 0.435387,0 0.557342,0.124 0.557342,0.56664 0,0.69034 -0.386783,1.76187 -0.634205,1.75697 -0.09917,-0.002 -0.292673,-0.0805 -0.430009,-0.17453 z m -48.2644338,-0.506 c -0.5802097,-1.08411 0.8276917,-1.92764 1.4801481,-0.88681 0.185249,0.29552 0.185249,0.519 0,0.81452 -0.3769637,0.60134 -1.1761251,0.64038 -1.4801481,0.0723 z m 12.4860508,-0.5036 c -1.601613,-0.80256 -1.802728,-0.97346 -1.685979,-1.43266 l 0.132561,-0.5214 -0.269503,0.52363 c -0.317949,0.61772 -0.501371,0.65068 -0.906232,0.16285 -0.247318,-0.29801 -0.232086,-0.42807 0.08758,-0.74775 0.360828,-0.36081 0.548202,-0.33466 2.772626,0.38694 1.312103,0.42566 2.465494,0.84722 2.563093,0.93683 0.322534,0.2961 -0.09142,1.64809 -0.497432,1.62465 -0.207996,-0.012 -1.196516,-0.4319 -2.196712,-0.93309 z m 37.68579,0.59665 c -0.07977,-0.20787 -0.145033,-0.69124 -0.145033,-1.07413 0,-0.53777 0.09267,-0.67834 0.407257,-0.61775 0.304901,0.0586 0.407256,0.30669 0.407256,0.98672 0,0.93717 -0.413367,1.37258 -0.66948,0.70516 z M 9.9289713,250.32607 c -0.5224527,-0.42305 -0.5329157,-0.49017 -0.244889,-1.57084 0.4888497,-1.83418 1.1219977,-2.1339 0.7190167,-0.34036 -0.161059,0.71683 -0.149647,1.10141 0.03945,1.32926 0.368416,0.44391 0.600178,0.2359 0.774919,-0.69555 0.146803,-0.78252 0.636987,-1.42608 0.891989,-1.17107 0.07193,0.0719 -0.01557,0.41137 -0.194517,0.75431 -0.178916,0.34294 -0.32595,0.79931 -0.326743,1.01416 -0.0013,0.40563 -0.590902,1.12203 -0.923146,1.12203 -0.104671,0 -0.435905,-0.19887 -0.7360827,-0.44194 z m 63.5510947,-1.54784 c -0.247332,-0.29802 -0.232045,-0.42811 0.08786,-0.74801 0.36121,-0.36123 0.413329,-0.36123 0.774539,0 0.319907,0.3199 0.335184,0.44999 0.08786,0.74801 -0.164671,0.19842 -0.378484,0.36076 -0.475127,0.36076 -0.09665,0 -0.310462,-0.16234 -0.475134,-0.36076 z M 7.2116678,247.92884 c -0.4222297,-0.42222 -0.333636,-1.6068 0.1836267,-2.45516 0.253631,-0.41599 0.5467237,-0.75634 0.6513277,-0.75634 0.104598,0 0.306036,0.5498 0.4476407,1.22177 0.209057,0.99206 0.194809,1.32022 -0.07576,1.7454 -0.3703267,0.58189 -0.7852664,0.6659 -1.2068311,0.24433 z m 61.8564462,-0.17005 c -0.296613,-0.20029 -0.265235,-0.29474 0.208811,-0.62855 1.394475,-0.98192 2.1643,-1.86726 2.869921,-3.3006 0.709918,-1.44206 0.761123,-1.70681 0.761123,-3.93629 0,-2.34375 0.01044,-2.39027 0.538913,-2.39027 1.250844,0 2.254641,1.29316 2.091111,2.6939 -0.07418,0.63544 -0.0015,0.79284 0.414113,0.89716 0.967946,0.24294 1.255049,2.14734 0.472712,3.13563 -0.142341,0.17983 -0.585448,0.4635 -0.984701,0.63038 -0.586714,0.24526 -0.705436,0.41046 -0.619197,0.86159 0.07785,0.40722 -0.06474,0.69302 -0.527252,1.05684 -0.6928,0.54494 -1.294738,0.62599 -1.969022,0.26513 -0.342786,-0.18346 -0.509282,-0.12945 -0.776303,0.25179 -0.385445,0.55028 -1.925385,0.83794 -2.480229,0.46329 z M 2.3413495,247.46092 c -0.7137597,-0.3445 -0.8751954,-1.02268 -0.4117877,-1.72993 0.3471387,-0.5298 0.4786057,-0.57224 1.2410691,-0.40067 0.469041,0.10556 1.3573834,0.17473 1.9740851,0.15375 1.0173404,-0.0345 1.0928464,-0.002 0.8145174,0.3507 -0.5480697,0.69474 -1.2223404,1.22813 -1.9865058,1.57145 -0.8640144,0.38818 -0.9354564,0.39057 -1.6313781,0.0547 z m 7.5314188,-0.89874 c -0.4725167,-0.37168 -0.6131797,-0.68763 -0.6131797,-1.37728 0,-0.96437 0.182921,-1.63116 0.4474827,-1.63116 0.09073,0 0.3861197,0.39271 0.6564207,0.87269 0.270301,0.47997 0.813463,1.18052 1.207017,1.55675 0.521399,0.49846 0.636473,0.73429 0.424091,0.86913 -0.525898,0.33391 -1.497366,0.20107 -2.1218317,-0.29013 z M 5.155501,244.44519 c -0.7178027,-0.34758 -1.1737424,-1.28688 -0.8636567,-1.77929 0.34179,-0.54278 0.9042877,-0.60854 2.3134988,-0.27047 0.8949704,0.21469 1.3972261,0.22441 1.9337188,0.0374 0.6506147,-0.2268 0.7027617,-0.21216 0.5099337,0.14324 -0.2821757,0.52007 -1.4024251,1.55097 -2.0431058,1.88011 -0.6129747,0.31492 -1.1843364,0.31153 -1.8503888,-0.0109 z m 0.3790027,-3.56963 c -0.5802027,-0.69911 0.2419607,-1.41002 0.8859274,-0.76605 0.388712,0.38871 0.349975,0.59738 -0.1617397,0.87125 -0.326874,0.17494 -0.5142867,0.14771 -0.7241877,-0.1052 z m 1.8633428,-0.34716 c -0.5594017,-0.55939 -0.6268194,-2.02485 -0.1237597,-2.68995 0.4571067,-0.60436 0.4403247,-0.80082 -0.06839,-0.80082 -1.3897784,0 -2.2659308,-2.94236 -1.2106454,-4.06566 0.244059,-0.25979 0.4500877,-0.57707 0.4578337,-0.70506 0.0078,-0.128 0.118813,-0.24581 0.24681,-0.2618 0.1279957,-0.0161 0.3436227,-0.0422 0.4791727,-0.0582 0.135549,-0.016 0.1780517,-0.13977 0.09445,-0.27505 -0.253275,-0.4098 0.09987,-1.3535 0.6083237,-1.62562 0.3725437,-0.19937 0.6078284,-0.1711 1.0641641,0.1279 0.5458127,0.35764 0.6157777,0.35681 1.0233497,-0.0121 0.4088317,-0.36997 0.5003687,-0.37074 1.3977747,-0.0117 0.614083,0.24571 1.243484,0.3311 1.745779,0.23688 0.733609,-0.13763 0.812902,-0.0895 1.200625,0.72914 0.315488,0.6661 0.344983,0.90017 0.122883,0.97513 -0.725957,0.24503 -3.027035,2.15884 -3.608946,3.00156 -0.8885197,1.28677 -1.5676724,3.33646 -1.5676724,4.73128 0,1.14419 -0.01504,1.16941 -0.6981577,1.16941 -0.3878617,0 -0.9050124,-0.20686 -1.1635844,-0.46544 z m -4.4561753,-2.40625 -0.6163327,-0.27397 0.5087137,-0.63799 c 0.279794,-0.35091 0.6880467,-0.638 0.9072294,-0.638 0.223892,0 0.399082,-0.17845 0.399807,-0.40726 0.0027,-0.71846 0.4828557,-2.16854 0.6785734,-2.04758 0.104096,0.0643 0.245471,0.61557 0.314155,1.22498 0.09968,0.88437 0.2777817,1.23564 0.8824254,1.74042 0.6400077,0.5343 0.7112657,0.68819 0.4592837,0.9918 -0.3425287,0.41273 -1.0075184,0.46387 -1.6387521,0.12604 -0.2914637,-0.15598 -0.4838307,-0.15598 -0.5802347,0 -0.1805267,0.2921 -0.5279437,0.27139 -1.3148681,-0.0785 z m 0.7326854,-0.61909 c 0,-0.12798 -0.1109037,-0.23271 -0.2464527,-0.23271 -0.135551,0 -0.181727,0.10473 -0.102627,0.23271 0.07911,0.128 0.190014,0.23272 0.246455,0.23272 0.05647,0 0.1026247,-0.10472 0.1026247,-0.23272 z m 71.5376824,0.11441 c -0.77402,-0.77402 -0.496939,-1.18561 0.367767,-0.54631 0.764196,0.56499 1.400727,0.44108 1.400727,-0.27268 0,-0.26756 0.104723,-0.42176 0.232714,-0.34264 0.46729,0.28879 0.245009,1.19963 -0.360028,1.47531 -0.827578,0.37707 -0.979469,0.34804 -1.64118,-0.31368 z m -2.996257,-1.26643 c -0.478867,-0.92605 -0.454364,-1.05519 0.262147,-1.38165 0.669054,-0.30484 0.785789,-0.23407 1.192003,0.72277 0.235458,0.55459 0.205823,0.67657 -0.240293,0.98905 -0.696616,0.48792 -0.806215,0.45811 -1.213857,-0.33017 z m 1.506992,-1.11234 c -0.459475,-1.03869 -0.464144,-1.11745 -0.08278,-1.3963 0.222289,-0.16254 0.521426,-0.29554 0.664765,-0.29554 0.310439,0 0.917853,2.20365 0.703166,2.55102 -0.32335,0.52317 -0.820785,0.19062 -1.285151,-0.85918 z m 1.895594,0.27683 c -0.727256,-0.92456 -1.273054,-4.07799 -0.760631,-4.3947 0.112409,-0.0694 0.26331,0.15998 0.335337,0.50989 0.07205,0.34992 0.56423,1.35093 1.093767,2.22449 0.529552,0.87356 0.905546,1.73752 0.83556,1.91993 -0.201139,0.52413 -0.995365,0.38704 -1.504033,-0.25961 z M 64.669121,231.2386 c -0.271081,-0.17163 -0.231627,-0.39611 0.232721,-1.32412 0.893272,-1.78518 1.374108,-1.61078 1.192386,0.43252 -0.0842,0.94679 -0.170073,1.10489 -0.59849,1.10184 -0.275098,-0.002 -0.647078,-0.0966 -0.826617,-0.21024 z m -34.464913,-0.61227 c 0,-0.86607 -0.583672,-1.85555 -1.512426,-2.56393 -0.753273,-0.57455 -0.814756,-0.71596 -0.814756,-1.87378 -0.20024,-2.06878 0.968293,0.21097 2.792615,-1.25234 1.092988,-0.8767 2.792619,-0.39729 2.792619,3.1417 v 3.14169 h -1.629028 c -1.59094,0 -1.629024,-0.0139 -1.629024,-0.59334 z m 3.956206,-0.6866 v -1.27995 h 2.67626 2.676252 v 1.27995 1.27994 h -2.676252 -2.67626 z m 5.817948,-0.10262 c 0,-0.76043 0.104723,-1.4473 0.23272,-1.52641 0.301299,-0.18621 0.301918,-1.2097 5.92e-4,-1.39578 -0.352418,-0.21781 0.301083,-1.31132 1.349967,-2.25892 1.144235,-1.03376 2.349968,-1.44907 3.618306,-1.24629 0.999643,0.15983 2.646155,1.00452 3.156359,1.61927 0.255325,0.30764 0.361395,0.27253 0.837949,-0.27748 0.4255,-0.49109 0.608044,-0.5683 0.82913,-0.35077 0.394106,0.38777 -0.363249,1.56252 -0.879607,1.36436 -0.31774,-0.12193 -0.315661,-0.0692 0.01727,0.439 0.51873,0.79167 0.478627,0.98379 -0.24317,1.16493 -0.341882,0.0858 -0.887168,0.36491 -1.211747,0.62023 l -0.590143,0.46421 -0.177064,-0.47863 c -0.354034,-0.95705 -1.789329,-0.31488 -1.479323,0.66188 0.08112,0.25557 0.342075,0.52646 0.579905,0.60194 0.412328,0.13086 0.41448,0.17996 0.04625,1.05677 -0.433085,1.03131 -1.070962,1.22169 -1.34239,0.40064 l -0.173098,-0.52361 -0.180413,0.58179 c -0.162782,0.52496 -0.176127,0.50847 -0.136568,-0.16876 0.05812,-0.99509 -0.334268,-1.07746 -0.581816,-0.12214 -0.274182,1.05811 -0.451008,0.94466 -0.272045,-0.17454 0.18808,-1.17617 -0.288929,-1.28296 -0.508263,-0.11378 -0.08431,0.4494 -0.234943,0.86755 -0.334746,0.92922 -0.0998,0.0617 -0.09466,-0.27981 0.01141,-0.75889 l 0.192831,-0.87106 -0.450487,0.5494 c -0.247771,0.30217 -0.45049,0.69487 -0.45049,0.8727 0,0.22203 -0.29157,0.32328 -0.930871,0.32328 h -0.93087 z m 2.1942,-2.00846 c 0.670821,-0.67083 0.300282,-1.58432 -0.59149,-1.45823 -0.919913,0.13007 -0.857674,1.79948 0.06787,1.82036 0.08686,0.002 0.322483,-0.161 0.523618,-0.36213 z m -0.952457,-0.46447 c -0.193957,-0.50545 0.298448,-0.98079 0.650897,-0.62833 0.297891,0.29788 0.113348,0.99306 -0.263615,0.99306 -0.136027,0 -0.310304,-0.16413 -0.387282,-0.36473 z m 5.041642,3.61351 c 0,-0.52838 0.950643,-2.06046 1.636677,-2.63771 0.970234,-0.8164 1.867831,-0.78912 2.86577,0.0871 0.437332,0.38398 0.910828,0.69815 1.052204,0.69815 0.300796,0 1.013976,-1.58848 0.839756,-1.87038 -0.06525,-0.10555 -0.0059,-0.26168 0.132254,-0.34697 0.233485,-0.1443 0.652337,-1.01083 0.615528,-1.27342 -0.009,-0.064 0.291561,-0.43052 0.667855,-0.81451 0.576785,-0.58858 0.830266,-0.68528 1.615034,-0.61611 1.09492,0.0965 2.117255,0.94024 2.333779,1.9261 0.08007,0.36453 0.229564,0.71468 0.332214,0.77813 0.102652,0.0634 0.133586,0.58611 0.06874,1.16147 -0.106449,0.94436 -0.0471,1.11228 0.609956,1.72607 0.400335,0.37398 0.727888,0.84738 0.727888,1.05202 0,0.3324 -0.719676,0.37206 -6.748828,0.37206 -4.516442,0 -6.748823,-0.08 -6.748824,-0.24198 z m 13.68436,-0.45616 c -0.191033,-0.448 -0.520639,-0.95825 -0.732455,-1.13391 -0.956664,-0.79338 -0.0858,-3.28774 1.147851,-3.28774 1.231052,0 1.975633,2.51585 1.004647,3.39457 -0.268246,0.24276 -0.619338,0.75642 -0.780213,1.14148 l -0.292495,0.7001 z m 1.082517,0.0581 c 0.93681,-1.71142 1.667921,-1.99484 2.190022,-0.84894 0.573781,1.25931 0.398283,1.48891 -1.138048,1.48891 h -1.402285 z m 2.846766,0.40726 c -0.0665,-0.19199 -0.181314,-0.62631 -0.255143,-0.96516 -0.07384,-0.33885 -0.511375,-1.06751 -0.972323,-1.61922 -0.743677,-0.89012 -0.821748,-1.10528 -0.693061,-1.91006 0.200274,-1.25245 1.03211,-1.71635 1.977069,-1.35234 1.212773,-0.4091 2.096145,1.1091 2.110492,1.70789 2.3e-4,0.63571 -0.191016,1.08255 -0.72257,1.68796 -0.397613,0.45286 -0.858071,1.26811 -1.02324,1.81166 -0.180166,0.59291 -0.348684,0.84863 -0.421224,0.63922 z m -17.613643,-3.1417 c 0.504704,0 0.435179,0.90793 -0.07707,1.00657 -0.330475,0.0636 -0.64272,-0.32407 -0.582945,-0.74622 0.368035,-0.489 0.660015,-0.26035 0.660015,-0.26035 z m -12.464128,0.0942 c -0.238939,-0.38661 0.382894,-1.37256 1.099346,-1.74305 0.76607,-0.39616 3.05082,-0.43397 3.758571,-0.0622 0.860609,0.45205 1.617963,1.32912 1.473286,1.70617 -0.111941,0.29169 -0.667237,0.35401 -3.154751,0.35401 -1.936775,0 -3.075377,-0.0914 -3.176446,-0.2549 z M 67.5462,226.27436 c -0.0863,-0.22397 -0.302789,-0.40725 -0.481086,-0.40725 -0.382883,0 -0.430464,-0.37228 -0.0756,-0.59159 0.136725,-0.0845 0.196392,-0.28965 0.132596,-0.4559 -0.08149,-0.21239 0.126137,-0.30227 0.698255,-0.30227 0.593238,0 0.781095,0.0864 0.692086,0.31835 -0.06719,0.1751 -0.02201,0.38026 0.100385,0.4559 0.338692,0.20932 0.26555,0.57551 -0.11495,0.57551 -0.185632,0 -0.440397,0.18328 -0.566143,0.40725 -0.21775,0.38788 -0.236106,0.38788 -0.385546,0 z m -32.532538,-1.67015 c -0.168885,-0.44011 0.354025,-0.85948 0.759316,-0.60899 0.385335,0.23815 0.160945,0.94103 -0.300416,0.94103 -0.182314,0 -0.388819,-0.14942 -0.4589,-0.33204 z m 5.662851,-0.48244 c -0.231346,-0.27877 -0.230369,-0.42059 0.0047,-0.70403 0.262986,-0.31689 0.340821,-0.3131 0.725825,0.0353 0.327935,0.29678 0.368868,0.46543 0.170855,0.70403 -0.33531,0.40402 -0.543683,0.39587 -0.90155,-0.0354 z m -4.174743,-0.57304 c -0.444515,-0.27473 -0.194386,-1.056 0.33809,-1.056 0.293868,0 0.487918,0.17994 0.53273,0.49399 0.07687,0.53879 -0.405098,0.84984 -0.87082,0.56201 z m -1.834808,-1.53372 c 0.105258,-0.5055 0.518273,-0.53642 0.612739,-0.0459 0.04908,0.25473 -0.06511,0.40725 -0.304778,0.40725 -0.223575,0 -0.35186,-0.15053 -0.307961,-0.36136 z"
       style="fill:#000000;fill-opacity:1;stroke-width:0.23271801"
       sodipodi:nodetypes="cccccscscsscccscccscccccccccscccsssccccccccccccccscscccssccccccccccccccccccccsccccccccccccccscsccsccccccscccccccccccscccscsccccccscccccccccccccccccccsssssscccsccssccccccssccccccccccccccccsccccccccccccccccccccsscccccccccccccccccccscscccccccccsccccccsccccssccccccssccccccccccscccsccssccccccccccccccccccscccscccccccccsscccccscccccccccsscsscssccccccccccscccccccccccccsccsccssccccccccccccccccccccccccscsccccccccccsscccccccccsccccscccccccccssccccsccccscscsccccccccccccccccccscccsccsccscccccsccccccccsccccscc" />
    <flowRoot
       xml:space="preserve"
       id="flowRoot21"
       style="font-style:normal;font-variant:normal;font-weight:normal;font-stretch:normal;font-size:40px;line-height:1.25;font-family:Calibri;-inkscape-font-specification:Calibri;letter-spacing:0px;word-spacing:0px;fill:#000000;fill-opacity:1;stroke:none"
       transform="scale(0.26458333)"><flowRegion
         id="flowRegion23"><rect
           id="rect25"
           width="261.42856"
           height="268.57144"
           x="410"
           y="489.66254" /></flowRegion><flowPara
         id="flowPara27" /></flowRoot>    <path
       style="fill:#000000;stroke:#000000;stroke-width:0.26458332px;stroke-linecap:butt;stroke-linejoin:miter;stroke-opacity:1"
       d="m 15.497024,231.37388 6.331101,-0.0709 c 0.02685,-3.30532 3.167815,-3.43504 2.196986,-4.96093 -0.82022,-1.28917 -3.055173,-0.11863 -4.582961,-0.0945 -1.056491,0.0167 -2.151937,-0.13303 -3.16555,0.16537 -1.871734,0.55101 -5.707294,1.4073 -5.07857,2.91052 0.446338,1.06715 3.67714,-0.56375 4.298994,2.05044 z"
       id="path27"
       inkscape:connector-curvature="0"
       sodipodi:nodetypes="ccaaasc" />
  </g>
</svg>
