<?xml version="1.0" encoding="UTF-8" standalone="no"?>
<!-- Created with Inkscape (http://www.inkscape.org/) -->

<svg
   xmlns:dc="http://purl.org/dc/elements/1.1/"
   xmlns:cc="http://creativecommons.org/ns#"
   xmlns:rdf="http://www.w3.org/1999/02/22-rdf-syntax-ns#"
   xmlns:svg="http://www.w3.org/2000/svg"
   xmlns="http://www.w3.org/2000/svg"
   xmlns:sodipodi="http://sodipodi.sourceforge.net/DTD/sodipodi-0.dtd"
   xmlns:inkscape="http://www.inkscape.org/namespaces/inkscape"
   width="428mm"
   height="36mm"
   viewBox="0 0 428 36"
   version="1.1"
   id="svg8"
   inkscape:version="0.92.4 (5da689c313, 2019-01-14)"
   sodipodi:docname="naranjafinitopeque.svg">
  <defs
     id="defs2" />
  <sodipodi:namedview
     id="base"
     pagecolor="#ffffff"
     bordercolor="#666666"
     borderopacity="1.0"
     inkscape:pageopacity="0.0"
     inkscape:pageshadow="2"
     inkscape:zoom="0.49497475"
     inkscape:cx="1017.1473"
     inkscape:cy="183.54669"
     inkscape:document-units="mm"
     inkscape:current-layer="layer1"
     showgrid="false"
     inkscape:window-width="1920"
     inkscape:window-height="1001"
     inkscape:window-x="-9"
     inkscape:window-y="-9"
     inkscape:window-maximized="1"
     units="in" />
  <metadata
     id="metadata5">
    <rdf:RDF>
      <cc:Work
         rdf:about="">
        <dc:format>image/svg+xml</dc:format>
        <dc:type
           rdf:resource="http://purl.org/dc/dcmitype/StillImage" />
        <dc:title />
      </cc:Work>
    </rdf:RDF>
  </metadata>
  <g
     inkscape:label="Capa 1"
     inkscape:groupmode="layer"
     id="layer1"
     transform="translate(0,-261)">
    <path
       inkscape:connector-curvature="0"
       id="path23"
       d="m 41.395419,266.02391 c 0.159014,0.13086 0.108398,0.65956 -0.123059,1.28626 -0.119407,0.3233 -0.217105,0.75284 -0.217105,0.95461 v 0.36678 l 0.296494,-0.24363 c 0.163067,-0.13401 0.409082,-0.42881 0.546693,-0.65524 0.185073,-0.30454 0.345084,-0.41172 0.614672,-0.41172 0.349401,0 0.363305,0.0295 0.33661,0.68264 -0.02376,0.58197 0.01392,0.69358 0.255124,0.75644 0.207712,0.0543 0.282977,0.18315 0.282977,0.48481 0,0.52646 0.172773,0.52262 0.482467,-0.0117 0.134697,-0.23209 0.406575,-0.47226 0.604183,-0.53402 0.197604,-0.0615 0.490378,-0.32327 0.650601,-0.58116 0.341884,-0.55042 0.643331,-0.6815 0.963177,-0.41876 0.218789,0.17971 0.214081,0.44924 -0.01984,1.13647 -0.0454,0.13337 0.08494,0.26105 0.397743,0.38918 0.255926,0.10462 0.532076,0.19057 0.613668,0.19057 0.0816,0 0.268729,0.0896 0.41585,0.19888 0.320351,0.23836 0.26804,0.27886 0.837042,-0.65329 0.496676,-0.81378 0.705433,-0.95068 1.151082,-0.75481 0.25839,0.11356 0.32051,0.057 0.616497,-0.55951 0.425855,-0.88735 0.630018,-1.07761 0.933944,-0.87046 0.124301,0.0847 0.225996,0.2851 0.225996,0.44544 v 0.29136 l 0.347336,-0.33167 c 0.313495,-0.29926 0.384919,-0.31769 0.733183,-0.1874 0.212224,0.0794 0.437263,0.25845 0.50009,0.39802 0.11179,0.24825 0.119714,0.24693 0.369424,-0.0662 0.172497,-0.21631 0.358472,-0.30783 0.57398,-0.28248 0.289192,0.0337 0.3188,0.10696 0.3188,0.78867 0,1.0185 0.210311,1.11312 1.10564,0.49746 1.104241,-0.75938 1.627505,-0.5879 1.341257,0.4395 -0.08073,0.28971 -0.09082,0.5268 -0.02242,0.5268 0.0684,0 0.486259,-0.59267 0.928601,-1.31711 0.700493,-1.14719 0.851118,-1.31713 1.167501,-1.31713 0.299289,0 0.363244,0.0579 0.363244,0.3301 0,0.18145 -0.07074,0.51828 -0.157205,0.74832 -0.211977,0.56404 -0.255347,1.91502 -0.06149,1.91502 0.08326,0 0.370404,-0.32723 0.638086,-0.72711 0.267685,-0.39995 0.578884,-0.75618 0.691545,-0.79171 0.322085,-0.10152 0.670345,0.21079 0.595172,0.53385 -0.05312,0.22817 -0.01418,0.27555 0.19082,0.23145 0.308123,-0.0662 0.480848,0.017 0.687854,0.32689 0.135357,0.20356 0.226693,0.11408 0.740303,-0.72507 0.633688,-1.03521 0.921905,-1.30861 1.265296,-1.20041 0.329777,0.10398 0.286157,1.24857 -0.07638,2.00397 -0.163303,0.34028 -0.278106,0.63389 -0.255124,0.65242 0.02297,0.017 0.362533,-0.0331 0.754546,-0.11524 0.501604,-0.10463 0.830113,-0.267 1.108919,-0.54767 0.284944,-0.28675 0.468717,-0.3758 0.654595,-0.31736 0.207557,0.0654 0.241235,0.16952 0.171104,0.52831 -0.04809,0.24592 -0.105722,0.54748 -0.128184,0.67044 -0.06802,0.37243 0.735033,0.3732 1.154932,8e-4 0.271113,-0.24032 0.428213,-0.28674 0.764373,-0.22616 0.407786,0.0738 0.44598,0.0404 1.05381,-0.91904 0.650623,-1.02678 1.001509,-1.25346 1.279687,-0.82651 0.121455,0.18634 0.09535,0.39066 -0.111877,0.87534 -0.46517,1.08793 -0.154319,1.24444 0.64856,0.32657 0.391724,-0.44782 0.609378,-0.59557 0.838021,-0.56874 0.26579,0.0295 0.313872,0.12625 0.344762,0.68435 0.01974,0.35644 0.06866,0.67503 0.108719,0.70792 0.182236,0.14971 0.801305,-0.24854 1.116953,-0.71856 0.447595,-0.66643 0.945975,-0.73044 0.885739,-0.11355 -0.02398,0.24556 0.04391,0.45686 0.173167,0.53877 0.116944,0.0741 0.233105,0.29629 0.258145,0.494 0.04026,0.31768 0.129554,0.22321 0.774441,-0.82039 0.400913,-0.64881 0.813371,-1.20766 0.916587,-1.24187 0.103209,-0.0342 0.301644,0.0229 0.440943,0.12612 0.234905,0.1744 0.282419,0.14547 0.655019,-0.39875 0.503609,-0.73582 1.079956,-1.13549 1.361125,-0.94382 0.344349,0.23473 0.2204,0.68733 -0.610611,2.22966 -0.932629,1.73096 -0.994153,2.27058 -0.129213,1.13335 1.912432,-2.51445 1.950608,-2.55646 2.287785,-2.51715 0.514429,0.0601 0.386155,0.63903 -0.384774,1.73682 -0.742331,1.05702 -0.766617,1.11519 -0.465959,1.11519 0.282395,0 0.678139,-0.43843 1.702267,-1.88589 0.87453,-1.23604 1.250322,-1.48915 1.552496,-1.04569 0.101467,0.14908 0.182348,0.11654 0.448953,-0.17975 0.178858,-0.19886 0.414622,-0.3613 0.523915,-0.3613 0.370256,0 0.373419,0.36863 0.0094,1.10429 -0.199469,0.40323 -0.362675,0.75556 -0.362675,0.78301 0,0.0264 0.201866,-0.0901 0.448586,-0.26007 0.83774,-0.57898 1.474054,-0.54802 1.855488,0.0901 0.227692,0.38101 0.3367,0.39585 0.577803,0.0787 0.21826,-0.28708 0.594558,-0.31046 0.825291,-0.0511 0.276225,0.31011 0.875176,0.10165 1.166377,-0.40619 0.500982,-0.87375 1.13053,-1.57813 1.410424,-1.57813 0.41675,0 0.35188,0.44348 -0.246729,1.68679 -0.341779,0.70988 -0.492422,1.18693 -0.434572,1.3762 0.04867,0.15931 0.137346,0.28971 0.197023,0.28971 0.05968,0 0.42659,-0.48893 0.815369,-1.08652 0.71422,-1.09784 0.99479,-1.3323 1.297128,-1.08401 0.124081,0.10217 0.06644,0.30288 -0.228484,0.79687 -0.216939,0.36332 -0.394436,0.68971 -0.394436,0.72537 0,0.036 0.213213,0.0477 0.473809,0.0264 0.41296,-0.033 0.532378,-0.12806 0.929986,-0.7431 0.513309,-0.79392 0.80707,-0.99599 1.069827,-0.73599 0.137623,0.13638 0.09119,0.32299 -0.223641,0.89902 -0.42399,0.77594 -0.394094,1.01663 0.08228,0.66254 0.40276,-0.29924 1.020797,-0.0837 1.020797,0.35638 0,0.38183 0.149843,0.3814 0.587815,-0.001 0.2593,-0.2265 0.442055,-0.28641 0.722642,-0.23574 0.290287,0.0523 0.471714,-0.017 0.799006,-0.29531 0.248963,-0.2133 0.57266,-0.36299 0.785596,-0.36299 0.199183,0 0.485966,-0.0919 0.637293,-0.2044 0.354351,-0.26339 0.749154,-0.0834 0.815125,0.372 0.04606,0.31769 0.06261,0.31078 1.003358,-0.41197 1.452361,-1.11584 2.073041,-1.45293 2.525311,-1.37133 0.21063,0.0383 0.56206,0.0129 0.78095,-0.0553 0.30407,-0.095 0.49926,-0.0812 0.82715,0.0579 0.23604,0.10035 0.43017,0.22124 0.43139,0.26895 8.1e-4,0.0477 0.0638,0.16656 0.13903,0.26437 0.11129,0.14437 0.23191,0.0861 0.6466,-0.31143 0.62416,-0.59893 1.34774,-0.91497 1.72012,-0.75128 0.31245,0.13715 0.33054,0.53216 0.0433,0.94488 -0.11459,0.16463 -0.21068,0.39993 -0.21352,0.52286 -0.004,0.17867 0.0609,0.20568 0.32285,0.13526 0.18042,-0.0485 0.53757,-0.0817 0.79366,-0.0745 0.25611,0.006 0.5085,-0.0434 0.56087,-0.11291 0.0523,-0.0697 0.26081,-0.17803 0.46325,-0.24165 0.50007,-0.15616 0.76992,0.0491 0.76992,0.58583 v 0.42683 l 0.40091,-0.30914 c 0.73915,-0.56993 1.78587,-0.54677 1.78587,0.0396 0,0.12378 0.0612,0.22482 0.13596,0.22482 0.31592,0 0.28559,0.50644 -0.0763,1.27411 -0.25188,0.53431 -0.39778,1.09334 -0.41747,1.59962 -0.0166,0.42808 -0.0805,0.97627 -0.14195,1.21828 l -0.11168,0.43993 0.66548,0.0818 c 0.9428,0.11589 1.08812,0.30288 0.77495,0.99594 -0.13834,0.30618 -0.45989,1.05145 -0.71456,1.65609 l -0.46301,1.09938 0.34756,0.23113 c 0.34511,0.22945 0.34583,0.23471 0.1014,0.76055 -0.32299,0.69464 -0.3126,0.74229 0.11189,0.51386 0.19693,-0.10592 0.43812,-0.15207 0.536,-0.10229 0.11301,0.0572 0.40077,-0.12029 0.78847,-0.48764 0.42638,-0.40367 0.68242,-0.55535 0.84895,-0.50289 0.42216,0.13291 0.26068,0.55089 -0.87172,2.2555 -0.6106,0.91914 -1.06983,1.70433 -1.02051,1.74484 0.0493,0.0404 0.31026,-0.1359 0.57987,-0.39211 0.45505,-0.43239 0.51778,-0.45544 0.87472,-0.32198 0.21147,0.0794 0.385,0.23934 0.38558,0.35598 6.1e-4,0.11667 -0.44224,0.92369 -0.98404,1.79341 -0.94232,1.51256 -0.97312,1.58854 -0.70865,1.74744 0.30634,0.18399 0.28102,0.44737 -0.11455,1.1914 -0.22884,0.43046 -0.22722,0.44906 0.0393,0.44906 0.45459,0 0.48795,0.35175 0.0867,0.91413 -0.29541,0.41401 -0.35322,0.61329 -0.27603,0.95123 l 0.0977,0.42782 0.46247,-0.36812 c 0.83219,-0.66248 1.09647,-0.40457 0.56414,0.55049 -0.19018,0.34117 -0.39471,0.85326 -0.45456,1.13802 -0.10224,0.48643 -0.13756,0.51774 -0.58453,0.51774 -0.40021,0 -0.65672,0.14955 -1.61659,0.9429 -0.6413,0.53001 -1.22837,0.91902 -1.34062,0.88825 -0.1323,-0.0361 0.10759,-0.31738 0.71068,-0.83338 0.83255,-0.71208 1.09298,-1.05766 0.79705,-1.05766 -0.0623,0 -0.26824,0.0891 -0.45757,0.19823 -0.26598,0.15317 -0.40324,0.16782 -0.60375,0.0649 -0.33038,-0.16952 -0.69606,0.0553 -1.59429,0.97984 -0.35964,0.37019 -0.73658,0.67303 -0.83766,0.67303 -0.26417,0 -0.23501,-0.0848 0.25357,-0.73692 0.24054,-0.32099 0.43735,-0.63686 0.43735,-0.70175 0,-0.1857 -0.38157,-0.13762 -0.596,0.0745 -0.14382,0.14233 -0.35916,0.17719 -0.82818,0.13354 -0.6216,-0.0576 -0.65178,-0.0434 -1.56457,0.73252 -0.51191,0.43516 -0.9837,0.7465 -1.04844,0.69178 -0.0647,-0.0546 0.27146,-0.39102 0.74708,-0.74743 0.63748,-0.47771 0.82194,-0.68319 0.70176,-0.78189 -0.19394,-0.1593 -1.32636,0.41024 -1.8009,0.90574 -0.31551,0.32945 -0.85903,0.42132 -0.85903,0.145 0,-0.0908 0.0984,-0.23208 0.21868,-0.31405 0.37008,-0.25219 0.24613,-0.35921 -0.41626,-0.35921 -0.57379,0 -0.72823,0.0704 -1.60303,0.72855 -1.040466,0.78308 -1.501697,0.90315 -0.901221,0.23473 0.698804,-0.77797 0.449891,-0.79226 -1.279673,-0.0733 -1.279697,0.53192 -2.14147,0.66986 -2.14147,0.34279 0,-0.0921 0.164004,-0.36599 0.364459,-0.6083 0.200455,-0.2423 0.364468,-0.50881 0.364468,-0.5923 0,-0.33942 -0.292733,-0.11058 -0.763894,0.59654 -0.547093,0.82131 -0.964039,1.02823 -2.097683,1.04096 -0.535509,0.006 -0.622015,-0.0331 -0.78421,-0.35474 -0.199893,-0.39637 -0.147969,-0.4978 1.37421,-2.68444 0.363921,-0.5228 0.62464,-0.98079 0.579361,-1.01781 -0.1387,-0.11356 -0.577535,0.41389 -1.728732,2.07699 -0.606974,0.87686 -1.233538,1.69084 -1.392382,1.80895 -0.183979,0.13651 -0.513749,0.21366 -0.908569,0.21205 -0.396116,-10e-4 -0.84074,0.1023 -1.232119,0.28876 -0.610072,0.29034 -0.613039,0.29034 -0.797189,0.0485 -0.131305,-0.17292 -0.28119,-0.22322 -0.517491,-0.17441 -0.439936,0.0906 -0.433039,-0.12327 0.03179,-0.9867 0.422563,-0.78473 0.418152,-0.76681 0.188381,-0.76681 -0.09684,0 -0.422914,0.19824 -0.724607,0.43994 -0.480071,0.38503 -0.591353,0.42392 -0.891767,0.31145 -0.316767,-0.11848 -0.396996,-0.0691 -1.039515,0.64417 -0.451936,0.50152 -0.780631,0.75872 -0.936695,0.73294 -0.252982,-0.042 -0.303259,-0.45922 -0.101304,-0.84131 0.08877,-0.16783 0.0384,-0.20931 -0.253886,-0.20931 -0.201849,0 -0.568437,-0.1563 -0.821084,-0.35018 -0.274032,-0.21035 -0.65368,-0.36576 -0.950009,-0.38913 -0.470891,-0.0373 -0.52769,0.006 -1.235568,0.89275 -0.75765,0.95142 -1.077844,1.17512 -1.355478,0.94707 -0.111657,-0.0919 -0.02063,-0.30256 0.317,-0.73487 0.35505,-0.45442 0.44991,-0.68392 0.378846,-0.91643 -0.07064,-0.23114 0.0213,-0.45878 0.360679,-0.89321 0.250506,-0.32067 0.413456,-0.63877 0.36212,-0.70699 -0.174728,-0.23244 -0.458947,-0.12508 -0.702102,0.26501 -0.597169,0.95779 -2.266113,3.02683 -2.467699,3.05924 -0.390415,0.0631 -0.401302,-0.30518 -0.02656,-0.8977 l 0.363604,-0.57501 -0.407546,0.41874 c -0.89808,0.92265 -1.162206,1.11851 -1.405271,1.04188 -0.132796,-0.0419 -0.241455,-0.17187 -0.241455,-0.2894 0,-0.11718 0.557623,-1.01997 1.239173,-2.00588 1.218961,-1.76323 1.392283,-2.09892 1.083808,-2.09892 -0.394865,0 -0.754073,0.31966 -1.5776,1.40459 -1.459436,1.92243 -2.534564,3.08127 -2.898271,3.12393 -0.418822,0.0492 -0.548304,-0.22322 -0.3397,-0.71478 0.20377,-0.48013 0.121658,-0.54639 -0.357455,-0.28872 -0.402702,0.21661 -0.79506,0.17738 -0.793882,-0.0789 5.98e-4,-0.0842 0.232364,-0.52417 0.515482,-0.97736 0.283119,-0.45313 0.481201,-0.85141 0.440166,-0.88513 -0.152793,-0.12547 -0.541755,0.27027 -0.985982,1.00351 -0.448486,0.74011 -0.724696,0.96041 -1.017756,0.81165 -0.144778,-0.0738 -0.111185,-0.3603 0.09656,-0.82452 0.06603,-0.14737 -0.04277,-0.0901 -0.283394,0.14971 -0.605455,0.60329 -0.872124,0.52861 -0.812755,-0.22783 0.0137,-0.1744 -0.04492,-0.35289 -0.130337,-0.39621 -0.08539,-0.0434 -0.155258,-0.18335 -0.155258,-0.3111 0,-0.41744 -0.248162,-0.24657 -0.850015,0.58556 -0.779705,1.07797 -0.994859,1.22529 -1.314072,0.8998 -0.328473,-0.33501 -0.694733,-0.42161 -0.904605,-0.214 -0.09585,0.0949 -0.297464,0.17249 -0.448008,0.17249 -0.449772,0 -0.32949,-0.43313 0.455204,-1.6394 0.400912,-0.61626 0.728931,-1.14609 0.728931,-1.17741 0,-0.0906 -0.785735,-0.0623 -0.959225,0.0348 -0.08658,0.0487 -0.622664,0.65479 -1.191313,1.34759 -1.075547,1.31029 -1.676563,1.91347 -1.906642,1.91347 -0.0742,0 -0.209943,-0.0744 -0.301668,-0.16505 -0.219174,-0.21697 -0.100806,-0.45982 1.075595,-2.20747 0.522876,-0.77678 0.950683,-1.47673 0.950683,-1.55547 0,-0.32758 -0.262135,-0.0794 -1.020479,0.96644 -0.977469,1.34783 -2.026553,2.63213 -2.244327,2.74763 -0.08863,0.0469 -0.246983,0.017 -0.35188,-0.071 -0.157117,-0.1291 -0.134656,-0.23473 0.127413,-0.59946 0.17498,-0.24363 0.276527,-0.47703 0.225652,-0.51884 -0.127419,-0.10462 -0.922934,0.52966 -1.346972,1.07402 -0.340999,0.43777 -0.676579,0.56824 -0.85428,0.33205 -0.130834,-0.17377 0.179813,-1.06169 0.598994,-1.7119 0.202682,-0.31439 0.345653,-0.62793 0.317718,-0.69673 -0.02794,-0.069 -0.574104,0.36298 -1.213715,0.95964 -0.639611,0.59661 -1.241673,1.08532 -1.337915,1.08593 -0.09624,4.2e-4 -0.238935,-0.093 -0.317086,-0.20737 -0.07815,-0.11486 -0.169662,-0.18207 -0.203352,-0.14973 -0.03366,0.033 -0.326522,0.38213 -0.65073,0.7773 -0.830366,1.01202 -1.277583,1.33651 -1.568577,1.13817 -0.30078,-0.20504 -0.203968,-0.43848 0.720196,-1.73684 0.42188,-0.59275 1.001295,-1.45489 1.287588,-1.91586 0.712791,-1.14773 0.838677,-2.53519 0.134792,-1.48565 -0.136587,0.20376 -0.758503,1.07263 -1.382024,1.93102 -1.757523,2.41955 -2.12838,2.7905 -2.491599,2.49216 -0.240147,-0.19716 -0.310186,-0.15738 -0.834801,0.47479 -0.491547,0.59233 -0.901131,0.75848 -1.05547,0.42817 -0.04386,-0.0937 0.178711,-0.60985 0.494653,-1.14644 0.604158,-1.02611 0.70252,-1.34991 0.379123,-1.24797 -0.10743,0.0338 -0.284088,-0.0264 -0.392573,-0.13353 -0.170776,-0.16889 -0.0761,-0.38695 0.705566,-1.62413 0.967704,-1.53159 0.973966,-1.54427 0.764172,-1.54427 -0.07626,0 -0.383869,0.36372 -0.683583,0.80828 -1.418539,2.1039 -3.683637,4.9392 -3.945949,4.9392 -0.108852,0 -0.248772,-0.11291 -0.310926,-0.25087 -0.10021,-0.22256 -0.198497,-0.15458 -0.867757,0.59869 -0.41511,0.46728 -0.82342,0.84965 -0.907361,0.84965 -0.299495,0 -0.33065,-0.39725 -0.06316,-0.8052 0.254786,-0.3886 0.256223,-0.42189 0.02294,-0.52916 -0.368049,-0.1693 -0.319097,-0.35374 0.466058,-1.75762 1.163079,-2.07959 1.170042,-2.47982 0.01232,-0.70979 -0.431929,0.66039 -0.687367,0.92804 -0.885847,0.92804 -0.1534,0 -0.278913,-0.054 -0.278913,-0.11978 0,-0.21662 -0.460506,-0.12508 -0.901298,0.17974 -0.238224,0.16463 -0.524204,0.29924 -0.635501,0.29924 -0.111301,0 -0.272582,0.10812 -0.358407,0.23933 -0.08582,0.13165 -0.2542,0.23936 -0.374167,0.23936 -0.437738,0 -0.393775,-0.39316 0.133629,-1.19519 0.292653,-0.44501 0.532103,-0.83441 0.532103,-0.86529 0,-0.0295 -0.407238,-0.0593 -0.904967,-0.0632 -0.737553,-0.006 -0.9509,-0.0536 -1.153209,-0.25874 -0.343775,-0.34867 -0.51172,-0.31736 -0.892638,0.16698 -0.374892,0.4764 -0.756759,0.6251 -1.065279,0.41479 -0.300101,-0.20439 -0.265004,-0.46931 0.164312,-1.23953 0.616206,-1.1055 0.333448,-0.99901 -0.511185,0.1927 -0.433379,0.61136 -0.913618,1.28668 -1.067203,1.50074 -0.308702,0.43023 -0.604881,0.49695 -0.817903,0.18443 -0.120688,-0.1772 -0.232034,-0.12017 -0.822579,0.41906 -0.44545,0.40692 -0.799035,0.62394 -1.016644,0.62394 -0.209995,0 -0.477893,0.15553 -0.722839,0.41908 -0.451438,0.48617 -0.705567,0.52418 -1.022118,0.15318 -0.322068,-0.37769 -0.285918,-0.66114 0.210419,-1.64971 0.240544,-0.47912 0.437353,-0.91762 0.437353,-0.9744 0,-0.28574 -0.487055,-0.0295 -1.166282,0.6152 -0.522162,0.49499 -0.863563,0.71841 -1.097996,0.71841 -0.374398,0 -0.573198,-0.31474 -0.414005,-0.65551 0.08111,-0.17356 0.04232,-0.19591 -0.222363,-0.12676 -0.18191,0.0474 -0.409186,0.0229 -0.525315,-0.0559 -0.165896,-0.11291 -0.246942,-0.0566 -0.42761,0.29862 -0.289158,0.56837 -0.717208,0.54215 -0.785986,-0.048 -0.04216,-0.36191 -0.482704,-0.8338 -0.788992,-0.8452 -0.05907,-0.001 -0.203323,0.18441 -0.320576,0.41511 -0.163113,0.32066 -0.298884,0.41909 -0.577966,0.41909 -0.296847,0 -0.461998,0.14296 -0.886933,0.76692 -0.592468,0.87017 -0.849367,1.08651 -1.170087,0.98538 -0.377244,-0.11886 -0.413945,-0.42223 -0.140749,-1.16332 0.144,-0.39062 0.224198,-0.74115 0.178215,-0.77893 -0.04601,-0.0379 -0.240203,0.017 -0.431598,0.11848 -0.3173,0.1708 -0.378602,0.16953 -0.695266,-0.013 -0.326723,-0.18801 -0.356505,-0.18674 -0.502932,0.017 -0.533098,0.74594 -1.604121,2.05543 -1.741727,2.12953 -0.681268,0.36691 -0.996292,-0.23176 -0.52295,-0.9938 0.305895,-0.49251 0.308313,-0.52128 0.0566,-0.67244 -0.401877,-0.24134 -0.532695,-0.20081 -1.227738,0.38089 -0.883341,0.73927 -1.603641,0.6997 -1.603641,-0.0883 0,-0.30846 -0.02807,-0.32723 -0.308574,-0.20377 -0.240662,0.10579 -0.353845,0.0987 -0.514216,-0.0332 -0.176982,-0.14547 -0.174335,-0.23043 0.01898,-0.61035 l 0.224588,-0.44149 h -0.576485 c -0.317076,0 -0.61704,-0.054 -0.666595,-0.11965 -0.157014,-0.20843 -0.327233,-0.13149 -0.62535,0.28348 -0.380604,0.52983 -1.154179,0.6751 -1.884842,0.35399 -0.484537,-0.21269 -0.501019,-0.21269 -0.655197,0.013 -0.087,0.12728 -0.374521,0.42325 -0.638965,0.65856 -0.400092,0.35602 -0.524933,0.40572 -0.743688,0.29598 -0.144589,-0.0728 -0.284213,-0.27951 -0.310273,-0.45978 -0.04016,-0.2782 -0.09949,-0.31704 -0.389755,-0.25745 -0.242231,0.05 -0.474689,-0.0192 -0.794782,-0.24197 -0.347881,-0.24033 -0.544161,-0.29434 -0.849429,-0.23275 -0.949758,0.19099 -0.980135,0.17654 -0.980135,-0.47224 0,-0.32922 -0.07212,-0.6987 -0.16026,-0.82093 -0.137426,-0.19058 -0.289016,-0.006 -1.064309,1.3171 -0.4972353,0.8467 -1.2674238,2.06786 -1.7115265,2.71382 -0.7339095,1.06734 -0.8428078,1.171 -1.195363,1.13752 -0.5802408,-0.0553 -0.5569465,-0.40236 0.1138529,-1.69682 0.6275884,-1.21109 0.6974003,-1.40842 0.4167036,-1.17787 -0.2844416,0.23343 -0.8628047,0.17504 -0.9491085,-0.0957 -0.1097566,-0.34475 -0.2396815,-0.2986 -0.5879921,0.20932 -0.4409766,0.64311 -1.1322232,1.15569 -1.4314186,1.0614 -0.3295014,-0.10346 -0.2147598,-0.54041 0.4527538,-1.72241 0.4375701,-0.77486 0.5078317,-1.00845 0.431477,-1.43448 -0.050144,-0.27983 -0.1413519,-0.50887 -0.2026434,-0.50887 -0.1796692,0 -0.6765431,0.49913 -1.0417545,1.04643 -0.3886253,0.58241 -0.7919141,0.7453 -1.1390956,0.46018 -0.217397,-0.17868 -0.2177268,-0.23572 -0.00399,-0.70086 0.4284609,-0.93315 0.437291,-0.9882 0.069123,-0.43139 -0.521327,0.78847 -1.0368604,0.89011 -1.3797568,0.27193 -0.2282746,-0.41153 -0.2106344,-0.62838 0.1353387,-1.66416 0.1654749,-0.49541 0.2597793,-1.00708 0.2095555,-1.13703 -0.050144,-0.12992 0.056437,-0.61307 0.2370048,-1.07359 0.180578,-0.46048 0.2873287,-0.87088 0.2372248,-0.91205 -0.050045,-0.041 -0.2411303,0.0129 -0.4245252,0.11719 -0.4334651,0.24953 -0.6627187,0.24262 -0.8372834,-0.0264 -0.1082489,-0.16589 0.04395,-0.56827 0.6458775,-1.70625 0.4331354,-0.81894 0.7897765,-1.57738 0.7925335,-1.6855 0.003,-0.11175 -0.1523297,-0.2288 -0.359438,-0.27159 -0.2672111,-0.0548 -0.3644622,-0.15506 -0.3644622,-0.37459 0,-0.16464 0.1640064,-0.63096 0.3644622,-1.03616 0.2004559,-0.40518 0.3644623,-0.78126 0.3644623,-0.83579 0,-0.24693 -0.4318969,-0.0601 -0.7465748,0.32297 -0.3444148,0.41919 -0.8450648,0.62995 -1.1403444,0.48011 -0.2358362,-0.11964 -0.1845236,-0.59045 0.1374962,-1.26144 0.368228,-0.76709 0.3678484,-0.77097 -0.091298,-0.94275 -0.3798451,-0.14233 -0.3820426,-0.15034 -0.282474,-1.08818 l 0.1003577,-0.94497 -0.41001133,-0.0385 c -0.37060542,-0.0348 -0.41436647,-0.0884 -0.4553706,-0.55651 -0.0499442,-0.56981 0.73546733,-3.25998 1.08104073,-3.70286 0.2558837,-0.32789 0.5801311,-0.34687 0.7765913,-0.0456 0.1051923,0.16166 0.065926,0.45418 -0.1406526,1.04734 -0.3676089,1.05578 -0.3661905,1.27333 0.00599,0.88393 0.1572541,-0.16463 0.3289221,-0.40714 0.3814833,-0.53884 0.052541,-0.13166 0.3130399,-0.51953 0.5788326,-0.8618 0.4459711,-0.57428 0.462113,-0.62781 0.2093258,-0.69371 -0.2155389,-0.0564 -0.2955595,-0.23736 -0.3754301,-0.84993 -0.083806,-0.64245 -0.047247,-0.89486 0.2086066,-1.44413 0.1705692,-0.3661 0.4901419,-0.81509 0.7101757,-0.99779 0.2200341,-0.18271 0.4880641,-0.42253 0.595624,-0.533 0.3101628,-0.31834 0.6697903,-0.17867 0.7520385,0.29267 0.060832,0.34881 0.1571241,0.4413 0.5831378,0.56065 0.2806359,0.0782 0.7482324,0.14595 1.0390973,0.14972 0.2908643,0.006 0.6111866,0.0883 0.7118233,0.18804 0.2599395,0.25709 0.5141652,0.0474 0.8003248,-0.66009 0.3217901,-0.79569 0.5680452,-0.94779 0.9977245,-0.61623 0.429429,0.33132 0.5916875,0.32397 1.1973009,-0.0553 0.543083,-0.34021 0.919771,-0.31376 1.043104,0.0738 0.112173,0.35229 0.328352,0.29039 0.428979,-0.12275 0.04844,-0.19908 0.14335,-0.38978 0.210884,-0.42404 0.06753,-0.0342 0.252189,-0.30254 0.410331,-0.59621 0.487675,-0.90547 1.094816,-0.57993 0.938621,0.50329 -0.07911,0.5487 -0.05914,0.59793 0.296268,0.73091 0.209605,0.0782 0.381096,0.18762 0.381096,0.24264 0,0.0548 0.377228,0.10385 0.838262,0.10877 0.461055,0.006 1.085765,0.0476 1.388237,0.0957 0.701366,0.11123 1.392363,-0.11317 1.507194,-0.48883 0.04695,-0.15333 0.184824,-0.34709 0.306427,-0.43 0.182756,-0.12482 0.266023,-0.10514 0.480303,0.11239 0.258721,0.26239 0.25992,0.26239 0.622624,0.0295 0.206898,-0.13354 0.405446,-0.41884 0.461044,-0.66223 0.110936,-0.4857 0.43781,-0.65255 0.76,-0.38795 0.182116,0.14955 0.192424,0.29529 0.06193,0.87485 -0.0861,0.38246 -0.125939,0.72046 -0.0886,0.75117 0.03735,0.0295 0.184804,-0.12132 0.327624,-0.33727 0.142821,-0.21629 0.449777,-0.5765 0.682114,-0.80055 0.508161,-0.49012 0.944801,-0.48658 1.233657,0.0117 l 0.200966,0.34542 0.357661,-0.37534 c 0.224333,-0.23539 0.488544,-0.37537 0.708777,-0.37537 0.363225,0 0.451628,0.14782 0.535379,0.89579 0.03537,0.31607 0.08181,0.26897 0.404441,-0.40886 0.410252,-0.86198 0.718085,-1.10196 1.089056,-0.84911 0.201623,0.13762 0.222995,0.31144 0.137315,1.11822 -0.125022,1.17723 0.114118,1.17333 0.380989,-0.006 0.251074,-1.10969 0.377154,-1.34855 0.711769,-1.34855 0.311874,0 0.515562,0.35682 0.393013,0.68848 -0.04259,0.11537 -0.111314,0.60019 -0.152734,1.07764 -0.09813,1.13134 0.183392,1.17529 0.767611,0.11965 0.464929,-0.84 0.593178,-0.94901 1.389004,-1.18057 0.533615,-0.15521 0.575097,-0.14909 0.845608,0.12508 0.236809,0.24034 0.269149,0.40038 0.193037,0.9563 l -0.09142,0.66779 0.484992,-0.44945 c 0.710315,-0.6582 1.428736,-1.04721 1.934727,-1.04763 0.381048,-2.3e-4 0.498184,-0.0812 0.80994,-0.55983 0.405938,-0.62314 0.717557,-0.83209 1.073576,-0.7199 0.19027,0.0601 0.238495,0.24955 0.238495,0.93801 v 0.86281 l 0.337408,-0.26041 c 0.185581,-0.1431 0.470625,-0.2604 0.633442,-0.2604 0.162813,0 0.419492,-0.11188 0.570393,-0.2489 0.196395,-0.17803 0.385658,-0.23078 0.665917,-0.18462 0.24665,0.0404 0.456802,-2.3e-4 0.567894,-0.11019 0.227092,-0.22454 0.563899,-0.22223 0.871814,0.006 0.223425,0.16633 0.277711,0.11589 0.647476,-0.59874 0.295963,-0.57192 0.47781,-0.77993 0.681889,-0.77993 0.155368,0 0.351639,-0.13211 0.444349,-0.29926 0.157079,-0.28312 0.537967,-0.39448 0.750996,-0.2196 z m -3.753956,3.82883 c -0.122047,0.26107 0.04,0.38264 0.212208,0.15889 0.172395,-0.22386 0.176064,-0.35573 0.0099,-0.35573 -0.0716,0 -0.171551,0.0884 -0.222109,0.19696 z m -2.329986,0.42153 c 0.129986,0.17294 0.350037,-0.017 0.345087,-0.29598 -0.0044,-0.25382 -0.0115,-0.2548 -0.214009,-0.0353 -0.115159,0.12508 -0.174138,0.27388 -0.131078,0.33125 z m -32.433989,6.12152 c -0.1702695,0.38114 -0.3041098,0.81221 -0.2974273,0.95791 0.016781,0.36675 0.6634878,-0.77857 0.7969286,-1.41142 0.1369767,-0.64959 -0.1047928,-0.43004 -0.4995013,0.45351 z m 69.757569,15.23851 c -0.04977,0.10657 -0.02531,0.15459 0.0573,0.11252 0.07926,-0.0401 0.144108,-0.12378 0.144108,-0.18569 0,-0.17207 -0.10449,-0.13416 -0.201407,0.0732 z m -58.232679,0.21302 c -0.03277,0.13887 0.02238,0.17737 0.182237,0.12728 0.269508,-0.0848 0.315087,-0.44927 0.04705,-0.37596 -0.100227,0.0264 -0.203392,0.1395 -0.229274,0.24921 z m 64.557078,0.7987 c -0.08582,0.13165 -0.123244,0.23936 -0.08315,0.23936 0.04013,0 0.143115,-0.10812 0.228936,-0.23936 0.08583,-0.13164 0.123248,-0.23932 0.08315,-0.23932 -0.04014,0 -0.143121,0.10812 -0.228942,0.23932 z"
       style="fill:#ff6600;stroke-width:0.13212189" />
  </g>
</svg>
