<?xml version="1.0" encoding="UTF-8" standalone="no"?>
<!-- Created with Inkscape (http://www.inkscape.org/) -->

<svg
   xmlns:dc="http://purl.org/dc/elements/1.1/"
   xmlns:cc="http://creativecommons.org/ns#"
   xmlns:rdf="http://www.w3.org/1999/02/22-rdf-syntax-ns#"
   xmlns:svg="http://www.w3.org/2000/svg"
   xmlns="http://www.w3.org/2000/svg"
   xmlns:sodipodi="http://sodipodi.sourceforge.net/DTD/sodipodi-0.dtd"
   xmlns:inkscape="http://www.inkscape.org/namespaces/inkscape"
   width="373mm"
   height="36mm"
   viewBox="0 0 373 36"
   version="1.1"
   id="svg8"
   inkscape:version="0.92.4 (5da689c313, 2019-01-14)"
   sodipodi:docname="naranjafinito.svg">
  <defs
     id="defs2" />
  <sodipodi:namedview
     id="base"
     pagecolor="#ffffff"
     bordercolor="#666666"
     borderopacity="1.0"
     inkscape:pageopacity="0.0"
     inkscape:pageshadow="2"
     inkscape:zoom="0.7"
     inkscape:cx="1116.1984"
     inkscape:cy="250.64632"
     inkscape:document-units="mm"
     inkscape:current-layer="layer1"
     showgrid="false"
     inkscape:window-width="1920"
     inkscape:window-height="1001"
     inkscape:window-x="-9"
     inkscape:window-y="-9"
     inkscape:window-maximized="1"
     units="in" />
  <metadata
     id="metadata5">
    <rdf:RDF>
      <cc:Work
         rdf:about="">
        <dc:format>image/svg+xml</dc:format>
        <dc:type
           rdf:resource="http://purl.org/dc/dcmitype/StillImage" />
        <dc:title></dc:title>
      </cc:Work>
    </rdf:RDF>
  </metadata>
  <g
     inkscape:label="Capa 1"
     inkscape:groupmode="layer"
     id="layer1"
     transform="translate(0,-261)">
    <path
       inkscape:connector-curvature="0"
       id="path23"
       d="m 154.9728,264.66112 c 0.44503,0.13774 0.30337,0.69422 -0.34442,1.35385 -0.3342,0.34028 -0.60762,0.7924 -0.60762,1.00477 v 0.38605 l 0.82981,-0.25643 c 0.45639,-0.14105 1.14492,-0.45134 1.53007,-0.68967 0.51797,-0.32054 0.96581,-0.43336 1.72032,-0.43336 0.97789,0 1.0168,0.0311 0.94209,0.71852 -0.0665,0.61255 0.0389,0.73002 0.71403,0.79619 0.58134,0.0571 0.79199,0.19276 0.79199,0.51028 0,0.55412 0.48355,0.55007 1.3503,-0.0116 0.377,-0.24429 1.13791,-0.49707 1.69098,-0.56207 0.55304,-0.0647 1.37245,-0.34026 1.82087,-0.61171 0.95686,-0.57934 1.80054,-0.7173 2.69571,-0.44076 0.61234,0.18916 0.59916,0.47284 -0.0556,1.19618 -0.12707,0.14038 0.2377,0.27478 1.11319,0.40963 0.71627,0.11012 1.48916,0.20059 1.71751,0.20059 0.22838,0 0.75211,0.0943 1.16386,0.20933 0.89659,0.25088 0.75018,0.29351 2.34269,-0.68762 1.39008,-0.85654 1.97433,-1.00063 3.22161,-0.79447 0.72316,0.11955 0.89703,0.06 1.72542,-0.5889 1.19187,-0.93398 1.76328,-1.13424 2.61389,-0.91621 0.34789,0.0891 0.63252,0.30009 0.63252,0.46885 v 0.30666 l 0.97211,-0.34909 c 0.87739,-0.31498 1.07729,-0.33438 2.052,-0.19724 0.59396,0.0835 1.22379,0.27203 1.39963,0.41894 0.31288,0.26128 0.33505,0.2599 1.03393,-0.0696 0.48278,-0.22766 1.00328,-0.32399 1.60644,-0.29731 0.80937,0.0354 0.89224,0.11261 0.89224,0.83011 0,1.07201 0.58862,1.17161 3.09442,0.52359 3.09052,-0.79927 4.55501,-0.61879 3.75387,0.46259 -0.22594,0.30494 -0.25417,0.55449 -0.0627,0.55449 0.19142,0 1.36093,-0.62382 2.59894,-1.38633 1.96051,-1.20746 2.38208,-1.38632 3.26755,-1.38632 0.83765,0 1.01664,0.0609 1.01664,0.34744 0,0.19098 -0.19799,0.5455 -0.43998,0.78764 -0.59328,0.59367 -0.71465,2.01565 -0.17207,2.01565 0.23301,0 1.03667,-0.34443 1.78584,-0.76533 0.74919,-0.42096 1.62016,-0.79591 1.93547,-0.8333 0.90144,-0.10682 1.87614,0.22186 1.66575,0.5619 -0.14867,0.24015 -0.0397,0.29003 0.53406,0.2436 0.86236,-0.0696 1.34577,0.0179 1.92514,0.34408 0.37882,0.21425 0.63446,0.12005 2.07192,-0.76318 1.77357,-1.0896 2.5802,-1.37736 3.54128,-1.26348 0.92296,0.10946 0.80088,1.31418 -0.21377,2.10927 -0.45705,0.35816 -0.77837,0.6672 -0.71404,0.6867 0.0643,0.0179 1.01463,-0.0349 2.11179,-0.12137 1.40388,-0.11013 2.32329,-0.28103 3.1036,-0.57644 0.79749,-0.30182 1.31184,-0.39554 1.83207,-0.33404 0.5809,0.0689 0.67516,0.17843 0.47887,0.55608 -0.13455,0.25884 -0.29589,0.57624 -0.35876,0.70566 -0.19038,0.392 2.05719,0.39281 3.23239,8.4e-4 0.75878,-0.25295 1.19847,-0.3018 2.1393,-0.23804 1.14129,0.0777 1.24819,0.0425 2.94937,-0.96733 1.82093,-1.08073 2.80298,-1.31932 3.58154,-0.86994 0.33992,0.19613 0.26685,0.41118 -0.31311,0.92133 -1.30191,1.1451 -0.4319,1.30984 1.81515,0.34374 1.09634,-0.47136 1.7055,-0.62687 2.34543,-0.59863 0.74387,0.0311 0.87844,0.13294 0.9649,0.72031 0.0553,0.37517 0.19217,0.71049 0.30428,0.74511 0.51005,0.15758 2.24267,-0.26159 3.12609,-0.7563 1.25271,-0.70146 2.64756,-0.76883 2.47898,-0.11955 -0.0671,0.25848 0.12286,0.48087 0.48464,0.56709 0.32732,0.0779 0.65241,0.31186 0.72249,0.51995 0.1127,0.33438 0.36259,0.23494 2.16747,-0.86349 1.12208,-0.68291 2.27645,-1.27112 2.56533,-1.30713 0.28886,-0.036 0.84422,0.0241 1.23409,0.13278 0.65745,0.18357 0.79042,0.15312 1.83324,-0.4197 1.40949,-0.77448 3.02255,-1.19515 3.80946,-0.99341 0.96376,0.24706 0.61685,0.72344 -1.70894,2.34681 -2.61022,1.82191 -2.78241,2.38988 -0.36165,1.1929 5.35246,-2.64657 5.4593,-2.69078 6.40297,-2.64941 1.43978,0.0632 1.08077,0.6726 -1.07688,1.82807 -2.07762,1.11258 -2.14558,1.17379 -1.30412,1.17379 0.79037,0 1.89795,-0.46145 4.76424,-1.98498 2.44763,-1.30098 3.49938,-1.56739 4.34507,-1.10063 0.284,0.15692 0.51038,0.12269 1.25654,-0.18919 0.50057,-0.20932 1.16042,-0.38029 1.46632,-0.38029 1.03626,0 1.0451,0.388 0.0263,1.16232 -0.55827,0.42441 -1.01505,0.79526 -1.01505,0.82415 0,0.0278 0.56498,-0.0948 1.25549,-0.27374 2.34461,-0.6094 4.12554,-0.57682 5.19307,0.0949 0.63725,0.40103 0.94233,0.41665 1.61715,0.0828 0.61084,-0.30217 1.66402,-0.32677 2.30978,-0.0539 0.77307,0.32641 2.44941,0.10699 3.2644,-0.42753 1.40214,-0.91966 3.16409,-1.66105 3.94745,-1.66105 1.16638,0 0.98483,0.46679 -0.69053,1.77542 -0.95656,0.74718 -1.37817,1.24929 -1.21628,1.44851 0.13627,0.16769 0.38441,0.30493 0.55143,0.30493 0.16706,0 1.19392,-0.51461 2.28204,-1.1436 1.99893,-1.15553 2.78417,-1.40231 3.63033,-1.14097 0.34729,0.10748 0.18592,0.31879 -0.63947,0.83874 -0.60715,0.38241 -1.10392,0.72595 -1.10392,0.76348 0,0.0379 0.59673,0.0501 1.32608,0.0278 1.15576,-0.0347 1.49,-0.13476 2.6028,-0.78215 1.43665,-0.83563 2.25881,-1.04832 2.99422,-0.77465 0.38514,0.14353 0.25521,0.33995 -0.62594,0.94625 -1.18664,0.81671 -1.10298,1.07004 0.23028,0.69735 1.12724,-0.31497 2.85698,-0.088 2.85698,0.3751 0,0.40189 0.4194,0.40144 1.64514,-0.002 0.72575,-0.23839 1.23722,-0.30146 2.02252,-0.24812 0.81245,0.0551 1.32022,-0.0179 2.23624,-0.31083 0.69678,-0.22451 1.60275,-0.38206 2.19869,-0.38206 0.55747,0 1.36011,-0.0967 1.78364,-0.21514 0.99174,-0.27723 2.0967,-0.0878 2.28133,0.39155 0.12887,0.33438 0.17534,0.3271 2.80816,-0.43362 4.06483,-1.17448 5.80197,-1.52928 7.06774,-1.44338 0.58952,0.0403 1.57309,0.0132 2.1857,-0.0582 0.85103,-0.10004 1.39732,-0.0855 2.315,0.0609 0.66063,0.10566 1.20397,0.23285 1.20737,0.28308 0.004,0.0501 0.17864,0.17531 0.38912,0.27826 0.31148,0.15195 0.64904,0.0906 1.80965,-0.3278 1.74691,-0.63039 3.77204,-0.96305 4.81422,-0.79075 0.87451,0.14435 0.92512,0.56012 0.12113,0.99453 -0.32072,0.17327 -0.58964,0.42094 -0.59761,0.55033 -0.012,0.18805 0.17034,0.21648 0.90361,0.14237 0.50493,-0.0511 1.50451,-0.086 2.22127,-0.0784 0.71679,0.007 1.42316,-0.0456 1.56973,-0.11889 0.14642,-0.0733 0.72996,-0.18739 1.29651,-0.25434 1.39961,-0.16437 2.15482,0.0517 2.15482,0.61661 v 0.44925 l 1.12206,-0.32538 c 2.06873,-0.59987 4.99823,-0.57551 4.99823,0.0417 0,0.1303 0.17136,0.23665 0.38054,0.23665 0.88418,0 0.7993,0.53305 -0.21358,1.34105 -0.70498,0.56239 -1.11332,1.15079 -1.16841,1.68367 -0.0466,0.45057 -0.22533,1.02757 -0.3973,1.2823 l -0.31257,0.46303 1.86253,0.0861 c 2.63867,0.12203 3.04538,0.31879 2.16893,1.04827 -0.38721,0.32226 -1.28715,1.10669 -1.99991,1.7431 l -1.29586,1.15716 0.97274,0.24327 c 0.96588,0.24151 0.96789,0.24704 0.28379,0.80051 -0.90397,0.73114 -0.87489,0.78129 0.31314,0.54086 0.55117,-0.11144 1.22622,-0.16006 1.50016,-0.10764 0.3163,0.0602 1.12166,-0.12666 2.20674,-0.51326 1.19332,-0.42489 1.90996,-0.58454 2.37601,-0.52931 1.18153,0.13989 0.72956,0.57983 -2.43973,2.37401 -1.70894,0.96743 -2.9942,1.79388 -2.85618,1.83651 0.13817,0.0425 0.86836,-0.14303 1.62293,-0.41271 1.27358,-0.45511 1.44913,-0.47937 2.44813,-0.33889 0.59187,0.0835 1.07751,0.25192 1.07916,0.37469 0.002,0.12286 -1.23772,0.97221 -2.75412,1.88764 -2.63734,1.59203 -2.72352,1.672 -1.98334,1.83925 0.85736,0.19366 0.78651,0.47088 -0.32062,1.25401 -0.64044,0.45308 -0.63592,0.47264 0.10995,0.47264 1.27228,0 1.36564,0.37023 0.24266,0.96217 -0.82676,0.43576 -0.98856,0.64552 -0.77253,1.00121 l 0.27341,0.45031 1.29436,-0.38747 c 2.32908,-0.69729 3.06877,-0.42583 1.57886,0.57941 -0.53224,0.3591 -1.10469,0.8981 -1.27219,1.19782 -0.28615,0.51198 -0.385,0.54494 -1.63594,0.54494 -1.12009,0 -1.83802,0.15741 -4.52448,0.99244 -1.79486,0.55786 -3.43792,0.96732 -3.75209,0.93493 -0.37028,-0.038 0.30112,-0.33405 1.98904,-0.87717 2.33009,-0.74949 3.059,-1.11324 2.23077,-1.11324 -0.17444,0 -0.75076,0.0938 -1.28064,0.20865 -0.74442,0.16121 -1.12857,0.17664 -1.68977,0.0683 -0.92466,-0.17844 -1.9481,0.0582 -4.46205,1.03132 -1.00653,0.38964 -2.0615,0.70839 -2.3444,0.70839 -0.73936,0 -0.65774,-0.0893 0.70968,-0.77564 0.67323,-0.33785 1.22406,-0.67032 1.22406,-0.73863 0,-0.19545 -1.06794,-0.14485 -1.66807,0.0784 -0.40251,0.14981 -1.00519,0.1865 -2.31788,0.14055 -1.73973,-0.0607 -1.82416,-0.0456 -4.37886,0.77102 -1.43272,0.45803 -2.75315,0.78571 -2.93434,0.72812 -0.18116,-0.0575 0.75975,-0.41157 2.09092,-0.7867 1.78414,-0.50281 2.30037,-0.71909 1.96404,-0.82297 -0.54279,-0.16768 -3.71216,0.43179 -5.04028,0.95333 -0.88305,0.34676 -2.40422,0.44346 -2.40422,0.15262 0,-0.0956 0.27537,-0.24428 0.61202,-0.33056 1.03576,-0.26544 0.68885,-0.37808 -1.16502,-0.37808 -1.60588,0 -2.03813,0.0741 -4.4865,0.76683 -2.91202,0.82422 -4.2029,0.95061 -2.52231,0.24707 1.9558,-0.81886 1.25916,-0.83389 -3.5815,-0.0772 -3.58157,0.55987 -5.99347,0.70505 -5.99347,0.3608 0,-0.0969 0.45901,-0.38522 1.02004,-0.64026 0.56104,-0.25503 1.02005,-0.53555 1.02005,-0.62343 0,-0.35725 -0.81928,-0.11641 -2.13796,0.62789 -1.53117,0.86447 -2.69811,1.08225 -5.87091,1.09566 -1.49876,0.007 -1.74087,-0.0349 -2.19483,-0.37338 -0.55945,-0.4172 -0.41411,-0.52396 3.8461,-2.8255 1.01854,-0.55026 1.74822,-1.03232 1.62149,-1.07128 -0.38819,-0.11955 -1.61638,0.43563 -4.83832,2.18612 -1.69876,0.92293 -3.45236,1.77969 -3.89693,1.90399 -0.51492,0.14369 -1.43786,0.2249 -2.54288,0.22321 -1.10864,-0.002 -2.35303,0.10764 -3.44839,0.30392 -1.70746,0.3056 -1.71576,0.3056 -2.23116,0.0511 -0.36749,-0.18202 -0.78697,-0.23495 -1.44833,-0.18359 -1.23128,0.0954 -1.21197,-0.1298 0.089,-1.03853 1.18264,-0.82597 1.17031,-0.80711 0.52723,-0.80711 -0.27106,0 -1.18364,0.20866 -2.02802,0.46306 -1.3436,0.40526 -1.65505,0.44619 -2.49584,0.32781 -0.88655,-0.12468 -1.1111,-0.0727 -2.90936,0.67801 -1.26488,0.52788 -2.18479,0.79859 -2.62158,0.77146 -0.70804,-0.0442 -0.84875,-0.48335 -0.28352,-0.88552 0.24844,-0.17664 0.10754,-0.2203 -0.71057,-0.2203 -0.56493,0 -1.59092,-0.16452 -2.29802,-0.36858 -0.76696,-0.22141 -1.82949,-0.38498 -2.65886,-0.40958 -1.31791,-0.0392 -1.47687,0.007 -3.45807,0.93966 -2.12047,1.00141 -3.01662,1.23686 -3.79366,0.99683 -0.31251,-0.0967 -0.0578,-0.31845 0.8872,-0.77348 0.99372,-0.47829 1.2592,-0.71985 1.06031,-0.96459 -0.1977,-0.24327 0.0596,-0.48288 1.00945,-0.94013 0.70111,-0.33752 1.15718,-0.67234 1.01349,-0.74414 -0.48902,-0.24466 -1.28449,-0.13162 -1.96502,0.27893 -1.67134,1.00811 -6.34231,3.18588 -6.9065,3.21999 -1.09268,0.0663 -1.12315,-0.32122 -0.0744,-0.94488 l 1.01764,-0.60522 -1.14062,0.44075 c -2.51351,0.97113 -3.25275,1.17728 -3.93302,1.09662 -0.37167,-0.0442 -0.67578,-0.1809 -0.67578,-0.3046 0,-0.12335 1.56067,-1.07357 3.46816,-2.11128 3.41158,-1.85588 3.89667,-2.20921 3.03332,-2.20921 -1.10514,0 -2.11048,0.33646 -4.41532,1.4784 -4.08463,2.02344 -7.09367,3.24317 -8.11159,3.28806 -1.17218,0.0518 -1.53457,-0.23495 -0.95074,-0.75232 0.57031,-0.50537 0.34049,-0.57511 -1.00043,-0.3039 -1.12707,0.228 -2.2252,0.1867 -2.22188,-0.083 0.002,-0.0886 0.65033,-0.55172 1.44271,-1.02871 0.79239,-0.47694 1.34677,-0.89616 1.23192,-0.93165 -0.42764,-0.13211 -1.51625,0.28448 -2.75954,1.05624 -1.2552,0.779 -2.02825,1.01087 -2.84846,0.8543 -0.40519,-0.0777 -0.31117,-0.37924 0.27026,-0.86785 0.18478,-0.15511 -0.11976,-0.0949 -0.79317,0.15758 -1.69452,0.63499 -2.44087,0.55639 -2.2747,-0.2398 0.0384,-0.18357 -0.12577,-0.37143 -0.36479,-0.41703 -0.23898,-0.0456 -0.43453,-0.19299 -0.43453,-0.32744 0,-0.43937 -0.69454,-0.25953 -2.37898,0.61632 -2.18222,1.13462 -2.78439,1.28967 -3.67779,0.94708 -0.91932,-0.35262 -1.9444,-0.44376 -2.53176,-0.22524 -0.26828,0.0999 -0.83254,0.18155 -1.25389,0.18155 -1.25879,0 -0.92216,-0.45589 1.27402,-1.72554 1.12206,-0.64864 2.0401,-1.20631 2.0401,-1.23927 0,-0.0954 -2.19908,-0.0656 -2.68464,0.0367 -0.24231,0.0513 -1.74269,0.68919 -3.3342,1.4184 -3.01019,1.37914 -4.69231,2.01401 -5.33624,2.01401 -0.20766,0 -0.58758,-0.0784 -0.8443,-0.17373 -0.61342,-0.22836 -0.28214,-0.48398 3.01033,-2.32346 1.4634,-0.81759 2.66074,-1.55432 2.66074,-1.63719 0,-0.3448 -0.73364,-0.0835 -2.85608,1.01722 -2.73571,1.41864 -5.67184,2.77043 -6.28134,2.892 -0.24806,0.0494 -0.69123,0.0179 -0.98483,-0.0747 -0.43973,-0.13592 -0.37687,-0.24707 0.3566,-0.63097 0.48974,-0.25643 0.77394,-0.50209 0.63155,-0.54609 -0.35662,-0.11013 -2.58308,0.55748 -3.76986,1.13045 -0.95437,0.46077 -1.89358,0.5981 -2.39092,0.34949 -0.36618,-0.1829 0.50324,-1.11747 1.67643,-1.80184 0.56727,-0.33092 0.96741,-0.66093 0.88923,-0.73335 -0.0783,-0.0726 -1.60679,0.38206 -3.39691,1.01006 -1.79011,0.62797 -3.47514,1.14235 -3.74449,1.143 -0.26937,4.4e-4 -0.66873,-0.0979 -0.88746,-0.21828 -0.21873,-0.12088 -0.47484,-0.19163 -0.56913,-0.15759 -0.0942,0.0347 -0.91386,0.40221 -1.82124,0.81815 -2.32401,1.06519 -3.57566,1.40673 -4.39008,1.19797 -0.84181,-0.21582 -0.57085,-0.46152 2.01566,-1.82811 1.18075,-0.62388 2.80239,-1.53132 3.60366,-2.01651 1.99493,-1.20804 2.34726,-2.6684 0.37725,-1.56371 -0.38228,0.21446 -2.12287,1.12898 -3.86796,2.03248 -4.91889,2.54667 -5.95683,2.93712 -6.9734,2.62311 -0.67211,-0.20753 -0.86813,-0.16566 -2.33641,0.49973 -1.37572,0.62345 -2.52205,0.79834 -2.95401,0.45067 -0.12276,-0.0987 0.50017,-0.6419 1.38442,-1.20668 1.69089,-1.08002 1.96618,-1.42084 1.06107,-1.31354 -0.30067,0.0356 -0.79509,-0.0278 -1.09872,-0.14055 -0.47796,-0.17777 -0.21298,-0.40728 1.97472,-1.70946 2.70837,-1.61207 2.72589,-1.62542 2.13874,-1.62542 -0.21343,0 -1.07436,0.38283 -1.91319,0.85075 -3.97016,2.21445 -10.30963,5.19873 -11.04379,5.19873 -0.30464,0 -0.69625,-0.11889 -0.8702,-0.26406 -0.28047,-0.23425 -0.55555,-0.1627 -2.42865,0.63015 -1.16179,0.49184 -2.30455,0.89429 -2.53949,0.89429 -0.83821,0 -0.92541,-0.41811 -0.17677,-0.84751 0.71309,-0.40901 0.71711,-0.44406 0.0642,-0.55696 -1.03008,-0.1782 -0.89307,-0.37233 1.30438,-1.84997 3.25519,-2.18886 3.27468,-2.61013 0.0345,-0.74708 -1.20886,0.69509 -1.92378,0.97679 -2.47927,0.97679 -0.42933,0 -0.78061,-0.0569 -0.78061,-0.126 0,-0.22802 -1.28886,-0.13162 -2.52252,0.18918 -0.66674,0.17327 -1.46713,0.31496 -1.77862,0.31496 -0.31151,0 -0.7629,0.11376 -1.0031,0.2519 -0.2402,0.13857 -0.71145,0.25193 -1.04721,0.25193 -1.22511,0 -1.10207,-0.41381 0.374,-1.25799 0.81907,-0.46838 1.48923,-0.87824 1.48923,-0.91074 0,-0.0311 -1.13976,-0.0625 -2.53278,-0.0665 -2.06423,-0.007 -2.66135,-0.0564 -3.22756,-0.27233 -0.96215,-0.367 -1.43218,-0.33405 -2.49829,0.17574 -1.04924,0.50143 -2.11799,0.65795 -2.98146,0.43659 -0.83992,-0.21514 -0.74168,-0.49397 0.45987,-1.30465 1.72462,-1.1636 0.93325,-1.05151 -1.43069,0.20282 -1.21292,0.64347 -2.55699,1.35428 -2.98684,1.57959 -0.86399,0.45283 -1.69292,0.52306 -2.28912,0.19411 -0.33778,-0.18651 -0.64942,-0.1265 -2.30221,0.44109 -1.24671,0.42831 -2.23631,0.65672 -2.84535,0.65672 -0.58772,0 -1.3375,0.1637 -2.02305,0.44111 -1.26347,0.5117 -1.97472,0.55172 -2.86067,0.16122 -0.90139,-0.39754 -0.80022,-0.69587 0.58891,-1.73639 0.67323,-0.50429 1.22405,-0.96583 1.22405,-1.0256 0,-0.30075 -1.36315,-0.0311 -3.26414,0.64752 -1.46141,0.52101 -2.41692,0.75616 -3.07303,0.75616 -1.04786,0 -1.60425,-0.33127 -1.1587,-0.68995 0.227,-0.18268 0.11844,-0.2062 -0.62235,-0.13344 -0.50912,0.0499 -1.14521,0.0241 -1.47023,-0.0589 -0.4643,-0.11889 -0.69114,-0.0595 -1.19678,0.31431 -0.80931,0.59824 -2.00732,0.57064 -2.19981,-0.0506 -0.11798,-0.38093 -1.35098,-0.87761 -2.20821,-0.88962 -0.16532,-0.002 -0.56906,0.19411 -0.89723,0.43693 -0.45652,0.3375 -0.83652,0.44111 -1.6176,0.44111 -0.8308,0 -1.29303,0.15047 -2.48234,0.80722 -1.65818,0.91588 -2.37717,1.1436 -3.27479,1.03716 -1.05581,-0.12517 -1.15853,-0.44443 -0.39392,-1.22445 0.40302,-0.41115 0.62747,-0.78009 0.49878,-0.81987 -0.12876,-0.0399 -0.67227,0.0179 -1.20794,0.12467 -0.88804,0.17978 -1.05962,0.17844 -1.94589,-0.0132 -0.91441,-0.1979 -0.99777,-0.19656 -1.40759,0.0179 -1.49201,0.78513 -4.48955,2.16343 -4.87468,2.24143 -1.90671,0.38618 -2.78838,-0.24395 -1.46361,-1.04602 0.85612,-0.51839 0.86289,-0.54868 0.15839,-0.70778 -1.12475,-0.25402 -1.49089,-0.21135 -3.43615,0.40091 -2.47226,0.77812 -4.488201,0.73647 -4.488201,-0.0929 0,-0.32467 -0.0786,-0.34443 -0.863617,-0.21448 -0.673557,0.11128 -0.990324,0.10384 -1.439161,-0.0349 -0.495327,-0.15312 -0.487917,-0.24254 0.0531,-0.64243 l 0.628567,-0.46468 h -1.613461 c -0.887417,0 -1.726941,-0.0569 -1.865631,-0.126 -0.439447,-0.21939 -0.915844,-0.1384 -1.750201,0.29837 -1.065214,0.55767 -3.230264,0.71058 -5.275215,0.37259 -1.356108,-0.22387 -1.402236,-0.22387 -1.833743,0.0132 -0.243501,0.13394 -1.048196,0.44548 -1.788314,0.69316 -1.119763,0.37473 -1.469162,0.42703 -2.081406,0.31153 -0.404669,-0.0766 -0.795443,-0.2942 -0.868381,-0.48394 -0.112388,-0.29281 -0.278446,-0.3337 -1.090829,-0.27098 -0.677948,0.0526 -1.328547,-0.0202 -2.22441,-0.25468 -0.973636,-0.25295 -1.522979,-0.3098 -2.377353,-0.24498 -2.658147,0.20103 -2.743163,0.18582 -2.743163,-0.49705 0,-0.34653 -0.201844,-0.73541 -0.448532,-0.86407 -0.384623,-0.20059 -0.808889,-0.007 -2.978751,1.3863 -1.391641,0.8912 -3.547217,2.17652 -4.790156,2.85642 -2.054039,1.12343 -2.358819,1.23253 -3.345539,1.19729 -1.623957,-0.0582 -1.558762,-0.4235 0.318648,-1.78598 1.75647,-1.27472 1.951857,-1.48242 1.166255,-1.23975 -0.796085,0.24568 -2.414788,0.18424 -2.65633,-0.1007 -0.307184,-0.36288 -0.670813,-0.3143 -1.645653,0.2203 -1.234188,0.67691 -3.168824,1.21642 -4.006201,1.11718 -0.922198,-0.10897 -0.601062,-0.5688 1.26715,-1.81292 1.224655,-0.81557 1.421301,-1.06143 1.207602,-1.50985 -0.14034,-0.29453 -0.39561,-0.5356 -0.567151,-0.5356 -0.502851,0 -1.893484,0.52535 -2.915624,1.1014 -1.087671,0.61302 -2.216382,0.78447 -3.18806,0.48436 -0.608443,-0.18806 -0.609367,-0.2481 -0.01119,-0.73768 1.199161,-0.98218 1.223875,-1.04012 0.19346,-0.45406 -1.459073,0.82991 -2.901929,0.93688 -3.861616,0.28623 -0.638888,-0.43316 -0.589516,-0.6614 0.378782,-1.7516 0.463125,-0.52144 0.727061,-1.06 0.586496,-1.19678 -0.140341,-0.13674 0.157952,-0.64528 0.663321,-1.13 0.505395,-0.48467 0.804165,-0.91665 0.663937,-0.95997 -0.140063,-0.0432 -0.674868,0.0132 -1.188147,0.12335 -1.213166,0.26265 -1.854794,0.25537 -2.34336,-0.0278 -0.302963,-0.17461 0.123008,-0.59813 1.807659,-1.79591 1.212245,-0.86197 2.2104,-1.66026 2.218117,-1.77406 0.0084,-0.11757 -0.426335,-0.24082 -1.005983,-0.28586 -0.747862,-0.0577 -1.020045,-0.16321 -1.020045,-0.39427 0,-0.17329 0.459015,-0.66411 1.020045,-1.0906 0.561028,-0.42648 1.020044,-0.82232 1.020044,-0.87971 0,-0.2599 -1.208777,-0.0632 -2.089488,0.33993 -0.963936,0.44123 -2.365138,0.66307 -3.191556,0.50535 -0.66005,-0.126 -0.516437,-0.62148 0.38482,-1.32773 1.030584,-0.80738 1.029522,-0.81148 -0.255522,-0.99228 -1.063097,-0.14981 -1.069247,-0.15824 -0.790578,-1.14536 l 0.280877,-0.99462 -1.147525,-0.0405 c -1.037238,-0.0367 -1.159715,-0.0931 -1.274476,-0.58576 -0.139782,-0.59975 2.0584,-3.43127 3.02558,-3.89742 0.716159,-0.34512 1.62365,-0.3651 2.173497,-0.0479 0.294407,0.17015 0.184512,0.47805 -0.393655,1.10237 -1.028849,1.11126 -1.024881,1.34024 0.01678,0.93038 0.440116,-0.17328 0.920575,-0.42853 1.067682,-0.56716 0.14705,-0.13857 0.876124,-0.54683 1.620016,-0.90708 1.248169,-0.60446 1.293346,-0.6608 0.585854,-0.73015 -0.603243,-0.0594 -0.827202,-0.24983 -1.05074,-0.89459 -0.234554,-0.67621 -0.132234,-0.94188 0.58384,-1.52002 0.477384,-0.38533 1.371793,-0.85791 1.987615,-1.05021 0.615824,-0.19231 1.365977,-0.44473 1.667011,-0.56101 0.868072,-0.33507 1.874585,-0.18806 2.104778,0.30805 0.170255,0.36714 0.439753,0.46449 1.632065,0.59011 0.785434,0.0823 2.094127,0.15362 2.908188,0.15758 0.814061,0.007 1.710566,0.0929 1.992225,0.19792 0.727509,0.27061 1.439027,0.0499 2.239921,-0.69477 0.900615,-0.83749 1.589823,-0.99759 2.792394,-0.64861 1.201872,0.34873 1.655997,0.34099 3.350962,-0.0582 1.519961,-0.35808 2.574224,-0.33024 2.919401,0.0777 0.31395,0.3708 0.918981,0.30564 1.200614,-0.12914 0.135579,-0.20955 0.401201,-0.41026 0.590214,-0.44632 0.188985,-0.036 0.705815,-0.31844 1.148419,-0.62755 1.364886,-0.95304 3.06413,-0.6104 2.626977,0.52974 -0.221414,0.57753 -0.165502,0.62934 0.829185,0.76932 0.586637,0.0823 1.066597,0.19747 1.066597,0.25538 0,0.0577 1.055772,0.10929 2.3461,0.11442 1.29038,0.007 3.038799,0.0501 3.885347,0.1007 1.962957,0.11707 3.896892,-0.11905 4.218278,-0.51451 0.1314,-0.16139 0.517277,-0.36533 0.857611,-0.45259 0.511497,-0.13146 0.744537,-0.11062 1.344251,0.11823 0.724097,0.27617 0.727447,0.27617 1.742561,0.0311 0.579057,-0.14055 1.134744,-0.44084 1.290354,-0.69703 0.310477,-0.51122 1.225321,-0.68684 2.127048,-0.40833 0.509697,0.15741 0.538547,0.31081 0.173327,0.92083 -0.240987,0.40255 -0.352467,0.75831 -0.247967,0.79063 0.10455,0.0311 0.517217,-0.12765 0.916934,-0.35499 0.399717,-0.22766 1.258804,-0.6068 1.909058,-0.84262 1.422217,-0.51587 2.644277,-0.51215 3.452707,0.0116 l 0.56247,0.36356 1.001,-0.39506 c 0.62785,-0.24775 1.36732,-0.39509 1.98371,-0.39509 1.01657,0 1.26399,0.15559 1.49839,0.94287 0.099,0.33266 0.22896,0.28309 1.13193,-0.43035 1.1482,-0.90727 2.00976,-1.15986 3.04801,-0.89373 0.5643,0.14485 0.62411,0.3278 0.38432,1.17698 -0.34991,1.23908 0.31938,1.23498 1.06629,-0.007 0.7027,-1.168 1.05557,-1.41942 1.99208,-1.41942 0.87286,0 1.44293,0.37558 1.09995,0.72467 -0.1192,0.12137 -0.31154,0.63173 -0.42746,1.13426 -0.27465,1.19079 0.51327,1.23704 2.14836,0.126 1.30122,-0.88413 1.66016,-0.99887 3.8875,-1.2426 1.49347,-0.16337 1.60957,-0.15692 2.36667,0.13162 0.66278,0.25296 0.75329,0.42142 0.54027,1.00654 l -0.25586,0.70288 1.35738,-0.47307 c 1.98801,-0.69278 3.99872,-1.10224 5.41488,-1.10267 1.06646,-2.5e-4 1.3943,-0.0855 2.26683,-0.58924 1.13613,-0.65589 2.00828,-0.87582 3.00469,-0.75773 0.53252,0.0632 0.66749,0.26266 0.66749,0.98729 v 0.90815 l 0.94432,-0.27409 c 0.5194,-0.15063 1.31717,-0.27409 1.77286,-0.27409 0.45567,0 1.17406,-0.11773 1.5964,-0.26198 0.54966,-0.18738 1.07936,-0.24291 1.86374,-0.19432 0.69032,0.0425 1.27848,-2.5e-4 1.5894,-0.11592 0.63558,-0.23634 1.57822,-0.23391 2.44,0.007 0.62531,0.17506 0.77725,0.12203 1.81213,-0.6302 0.82834,-0.60198 1.33729,-0.82091 1.90845,-0.82091 0.43484,0 0.98416,-0.13906 1.24363,-0.31499 0.43963,-0.298 1.50564,-0.41521 2.10186,-0.23114 z m -10.50644,4.03002 c -0.34159,0.27478 0.11195,0.40275 0.59391,0.16724 0.4825,-0.23563 0.49277,-0.37443 0.0276,-0.37443 -0.20039,0 -0.48013,0.0931 -0.62163,0.20731 z m -6.52109,0.44367 c 0.36381,0.18203 0.97967,-0.0179 0.96582,-0.31152 -0.0122,-0.26716 -0.0322,-0.2682 -0.59896,-0.0372 -0.3223,0.13162 -0.48737,0.28827 -0.36686,0.34866 z m -90.775079,6.44318 c -0.476545,0.40116 -0.851132,0.85488 -0.832429,1.00824 0.04696,0.38602 1.856947,-0.81949 2.230416,-1.48558 0.383366,-0.68372 -0.29329,-0.45265 -1.397987,0.47734 z m 195.234979,16.0392 c -0.13936,0.11211 -0.0708,0.16271 0.16036,0.1184 0.22183,-0.0423 0.40333,-0.1303 0.40333,-0.19545 0,-0.18111 -0.29245,-0.14121 -0.56369,0.077 z m -162.979531,0.2242 c -0.09169,0.14618 0.06263,0.1867 0.510034,0.13394 0.754292,-0.0893 0.881857,-0.47288 0.131676,-0.39572 -0.280514,0.0278 -0.569247,0.14683 -0.641683,0.26231 z m 180.680021,0.84068 c -0.2402,0.13856 -0.34493,0.25193 -0.23272,0.25193 0.11236,0 0.40056,-0.11377 0.64074,-0.25193 0.24021,-0.13857 0.34495,-0.2519 0.23273,-0.2519 -0.11236,0 -0.40055,0.11376 -0.64075,0.2519 z"
       style="opacity:1;fill:#ff6600;stroke-width:0.22676603" />
    <path
       inkscape:connector-curvature="0"
       id="path23-1"
       d="m 155.27567,268.42516 c 0.43647,0.10106 0.29753,0.50937 -0.33781,0.99336 -0.32778,0.24968 -0.59594,0.58142 -0.59594,0.73725 v 0.28325 l 0.81387,-0.18815 c 0.4476,-0.10349 1.12289,-0.33117 1.50064,-0.50603 0.50801,-0.2352 0.94725,-0.31797 1.68725,-0.31797 0.95908,0 0.99724,0.0228 0.92398,0.5272 -0.0652,0.44944 0.0381,0.53564 0.7003,0.58419 0.57015,0.0419 0.77674,0.14144 0.77674,0.37441 0,0.40658 0.47427,0.40361 1.32435,-0.008 0.36975,-0.17925 1.11604,-0.36472 1.65846,-0.41242 0.54241,-0.0475 1.34607,-0.24966 1.78587,-0.44883 0.93845,-0.42508 1.76591,-0.52631 2.64387,-0.32341 0.60056,0.1388 0.58765,0.34694 -0.0544,0.87769 -0.12461,0.10299 0.23315,0.20162 1.09178,0.30056 0.70252,0.0808 1.46054,0.14718 1.6845,0.14718 0.22399,0 0.73763,0.0691 1.14148,0.15359 0.87935,0.18407 0.73576,0.21536 2.29765,-0.50452 1.36334,-0.62849 1.93638,-0.73421 3.15966,-0.58294 0.70926,0.0877 0.87979,0.044 1.69225,-0.4321 1.16895,-0.68529 1.72937,-0.83224 2.56362,-0.67225 0.3412,0.0654 0.62035,0.22018 0.62035,0.344 v 0.22502 l 0.95342,-0.25615 c 0.86053,-0.23111 1.05659,-0.24535 2.01255,-0.14472 0.58255,0.0612 1.20027,0.1996 1.37274,0.3074 0.30685,0.1917 0.3286,0.1907 1.01404,-0.0511 0.4735,-0.16705 0.98398,-0.23773 1.57555,-0.21815 0.7938,0.026 0.8751,0.0826 0.8751,0.60908 0,0.78657 0.57728,0.85965 3.03492,0.38418 3.03107,-0.58646 4.46741,-0.45403 3.68167,0.33942 -0.22159,0.22374 -0.24928,0.40685 -0.0616,0.40685 0.18774,0 1.33476,-0.45773 2.54896,-1.01721 1.92283,-0.88594 2.33628,-1.01719 3.20474,-1.01719 0.82152,0 0.99708,0.0446 0.99708,0.25493 0,0.14013 -0.19418,0.40025 -0.43152,0.57792 -0.58186,0.4356 -0.70091,1.47895 -0.16878,1.47895 0.22855,0 1.01674,-0.25271 1.75153,-0.56154 0.73478,-0.30887 1.58899,-0.58399 1.89825,-0.61143 0.8841,-0.0784 1.84006,0.16279 1.63371,0.41229 -0.14581,0.17622 -0.0388,0.21281 0.5238,0.17875 0.84579,-0.0511 1.31989,0.0132 1.88812,0.25245 0.37153,0.15721 0.62226,0.0881 2.03209,-0.55998 1.73946,-0.79947 2.53059,-1.01061 3.47318,-0.92705 0.90523,0.0803 0.78548,0.96427 -0.20967,1.54764 -0.44825,0.2628 -0.76339,0.48956 -0.70029,0.50386 0.063,0.0132 0.99512,-0.0256 2.07119,-0.089 1.37686,-0.0808 2.2786,-0.2062 3.04392,-0.42295 0.78215,-0.22146 1.28661,-0.29023 1.79684,-0.2451 0.56973,0.0505 0.66218,0.13092 0.46965,0.40801 -0.13196,0.18992 -0.29018,0.4228 -0.35185,0.51777 -0.18671,0.28762 2.01764,0.28822 3.17023,6.2e-4 0.7442,-0.1856 1.17543,-0.22144 2.09816,-0.17465 1.11936,0.057 1.22419,0.0312 2.89267,-0.70976 1.78591,-0.79298 2.74909,-0.96804 3.51268,-0.63831 0.33338,0.14391 0.26172,0.30169 -0.30709,0.67601 -1.27687,0.84019 -0.4236,0.96108 1.78024,0.25221 1.07527,-0.34586 1.67271,-0.45996 2.30035,-0.43923 0.72956,0.0228 0.86154,0.0975 0.94634,0.52851 0.0541,0.27528 0.18846,0.52131 0.29843,0.54671 0.50023,0.11563 2.19955,-0.19194 3.06598,-0.55492 1.22863,-0.51469 2.59665,-0.56411 2.43132,-0.0877 -0.0659,0.18966 0.12049,0.35283 0.47532,0.4161 0.32101,0.0572 0.63985,0.22882 0.70859,0.38151 0.11054,0.24534 0.35563,0.17237 2.1258,-0.63358 1.10049,-0.50108 2.23268,-0.93267 2.516,-0.95909 0.28331,-0.0264 0.82799,0.0177 1.21036,0.0974 0.64481,0.13469 0.77523,0.11235 1.798,-0.30795 1.38238,-0.56826 2.96442,-0.87693 3.73621,-0.7289 0.94522,0.18128 0.60499,0.53081 -1.67608,1.72194 -2.56003,1.3368 -2.72891,1.75353 -0.3547,0.87527 5.24955,-1.94189 5.35432,-1.97432 6.27985,-1.94397 1.4121,0.0464 1.05999,0.49351 -1.05618,1.34132 -2.03766,0.81634 -2.10432,0.86125 -1.27903,0.86125 0.77516,0 1.86146,-0.33858 4.67263,-1.45645 2.40057,-0.95458 3.43209,-1.15005 4.26153,-0.80757 0.27852,0.11513 0.50056,0.09 1.23237,-0.13882 0.49096,-0.15359 1.13811,-0.27903 1.43812,-0.27903 1.01634,0 1.02502,0.28469 0.0258,0.85283 -0.54753,0.3114 -0.99553,0.58352 -0.99553,0.60471 0,0.0204 0.55413,-0.0696 1.23135,-0.20084 2.29954,-0.44715 4.04621,-0.42325 5.09323,0.0697 0.62499,0.29426 0.9242,0.30572 1.58604,0.0608 0.59911,-0.22172 1.63203,-0.23977 2.26538,-0.0396 0.7582,0.2395 2.40231,0.0785 3.20162,-0.3137 1.37518,-0.67478 3.10327,-1.21877 3.87157,-1.21877 1.14394,0 0.96586,0.34251 -0.67726,1.3027 -0.93816,0.54822 -1.35168,0.91664 -1.1929,1.06282 0.13365,0.12304 0.377,0.22374 0.54083,0.22374 0.16384,0 1.17095,-0.37759 2.23814,-0.83911 1.96053,-0.84786 2.73064,-1.02892 3.56054,-0.83717 0.34061,0.0788 0.18236,0.23391 -0.62717,0.61541 -0.59547,0.28059 -1.08269,0.53267 -1.08269,0.5602 0,0.0279 0.58526,0.0368 1.30058,0.0204 1.13354,-0.0255 1.46136,-0.0989 2.55277,-0.57388 1.409,-0.61313 2.21536,-0.76919 2.93662,-0.56839 0.37775,0.10532 0.2503,0.24943 -0.61391,0.6943 -1.16382,0.59925 -1.08177,0.78512 0.22587,0.51167 1.10556,-0.23111 2.80205,-0.0645 2.80205,0.27522 0,0.29488 0.41132,0.29455 1.61351,-0.002 0.7118,-0.1749 1.21341,-0.22118 1.98362,-0.18205 0.79683,0.0404 1.29486,-0.0131 2.19323,-0.22806 0.68339,-0.16474 1.57194,-0.28034 2.15644,-0.28034 0.54675,0 1.33395,-0.071 1.74934,-0.15786 0.97266,-0.2034 2.05637,-0.0644 2.23747,0.2873 0.12638,0.24535 0.17197,0.24002 2.75415,-0.31817 3.98667,-0.86175 5.69044,-1.12207 6.93185,-1.05905 0.57817,0.0296 1.54284,0.01 2.14367,-0.0426 0.83466,-0.0733 1.37047,-0.0627 2.27051,0.0446 0.6479,0.0776 1.1808,0.17085 1.18414,0.20771 0.004,0.0368 0.1752,0.12863 0.38164,0.20416 0.30549,0.1115 0.63656,0.0665 1.77485,-0.24052 1.71332,-0.46253 3.6995,-0.70662 4.72165,-0.5802 0.8577,0.10592 0.90735,0.41099 0.11881,0.72972 -0.31456,0.12715 -0.57831,0.30887 -0.58612,0.40381 -0.0118,0.13798 0.16706,0.15884 0.88624,0.10446 0.4952,-0.0375 1.47558,-0.0632 2.17855,-0.0575 0.70302,0.005 1.39581,-0.0335 1.53954,-0.0873 0.1436,-0.0538 0.71593,-0.13749 1.2716,-0.18662 1.37267,-0.1206 2.11338,0.0379 2.11338,0.45243 v 0.32963 l 1.10048,-0.23874 c 2.02897,-0.44015 4.90214,-0.42227 4.90214,0.0306 0,0.0956 0.16805,0.17364 0.37321,0.17364 0.86718,0 0.78395,0.39112 -0.20947,0.98398 -0.69142,0.41265 -1.09192,0.84438 -1.14595,1.23537 -0.0457,0.3306 -0.22099,0.75396 -0.38967,0.94086 l -0.30655,0.33975 1.82671,0.0633 c 2.58796,0.0896 2.98682,0.23391 2.12722,0.76915 -0.37975,0.23646 -1.26239,0.81201 -1.96142,1.27897 l -1.27097,0.84905 0.95403,0.1785 c 0.94732,0.1772 0.94929,0.18127 0.27834,0.58736 -0.88657,0.53646 -0.85806,0.57326 0.30713,0.39685 0.54056,-0.0818 1.20264,-0.11744 1.47132,-0.079 0.31022,0.0442 1.10008,-0.0929 2.16428,-0.3766 1.1704,-0.31176 1.87326,-0.42889 2.33036,-0.38838 1.1588,0.10265 0.7155,0.42544 -2.39284,1.7419 -1.67608,0.70984 -2.93663,1.31623 -2.80126,1.34751 0.1355,0.0312 0.85166,-0.10494 1.59173,-0.30281 1.24909,-0.33393 1.42126,-0.35174 2.40104,-0.24866 0.58049,0.0612 1.05682,0.18485 1.05843,0.27492 0.003,0.0901 -1.21393,0.71335 -2.70118,1.38503 -2.58662,1.16813 -2.67114,1.2268 -1.9452,1.34953 0.84087,0.14209 0.7714,0.3455 -0.31444,0.92011 -0.62814,0.33244 -0.62369,0.34679 0.10784,0.34679 1.24781,0 1.33937,0.27165 0.23798,0.70598 -0.81085,0.31973 -0.96957,0.47364 -0.75769,0.73462 l 0.26817,0.33041 1.26947,-0.2843 c 2.28429,-0.51163 3.00976,-0.31245 1.5485,0.42514 -0.52199,0.26348 -1.08346,0.65896 -1.24772,0.87887 -0.28065,0.37566 -0.37761,0.39985 -1.6045,0.39985 -1.09855,0 -1.80267,0.11549 -4.43747,0.72819 -1.76035,0.40931 -3.37182,0.70976 -3.67995,0.68598 -0.36315,-0.0279 0.29532,-0.2451 1.95079,-0.64361 2.28529,-0.54992 3.00018,-0.81681 2.18788,-0.81681 -0.17107,0 -0.73632,0.0688 -1.25602,0.15309 -0.73009,0.11828 -1.10687,0.1296 -1.65727,0.0502 -0.90688,-0.13093 -1.91064,0.0426 -4.37625,0.75672 -0.98719,0.28589 -2.02189,0.51976 -2.29932,0.51976 -0.72517,0 -0.6451,-0.0656 0.69601,-0.56912 0.6603,-0.24789 1.20054,-0.49183 1.20054,-0.54195 0,-0.14341 -1.04741,-0.10629 -1.63599,0.0575 -0.39477,0.10992 -0.98588,0.13684 -2.27333,0.10313 -1.70627,-0.0446 -1.78908,-0.0335 -4.29468,0.56572 -1.40516,0.33608 -2.70018,0.5765 -2.87789,0.53425 -0.1777,-0.0422 0.74512,-0.30198 2.05072,-0.57722 1.74982,-0.36894 2.25612,-0.52763 1.92627,-0.60385 -0.53236,-0.12304 -3.64078,0.31682 -4.94336,0.69949 -0.86609,0.25444 -2.358,0.32538 -2.358,0.11199 0,-0.0702 0.27007,-0.17924 0.60023,-0.24256 1.01586,-0.19476 0.67562,-0.27741 -1.1426,-0.27741 -1.57501,0 -1.99894,0.0544 -4.40023,0.56266 -2.85602,0.60475 -4.12209,0.6975 -2.47382,0.18129 1.9182,-0.60083 1.23494,-0.61186 -3.51263,-0.0567 -3.51271,0.41079 -5.87824,0.51732 -5.87824,0.26473 0,-0.0711 0.4502,-0.28265 1.00043,-0.46979 0.55026,-0.18712 1.00045,-0.39295 1.00045,-0.45743 0,-0.26213 -0.80355,-0.0855 -2.09686,0.4607 -1.50173,0.6343 -2.64623,0.79409 -5.75803,0.80393 -1.46993,0.005 -1.7074,-0.0256 -2.15261,-0.27396 -0.54871,-0.30611 -0.40616,-0.38445 3.77213,-2.07317 0.99893,-0.40374 1.71462,-0.75745 1.59031,-0.78603 -0.38072,-0.0877 -1.58529,0.31964 -4.74528,1.60403 -1.66609,0.67718 -3.38597,1.30582 -3.82201,1.39702 -0.50501,0.10543 -1.41021,0.16502 -2.49399,0.16378 -1.08731,-0.002 -2.30778,0.079 -3.38208,0.223 -1.67464,0.22423 -1.68278,0.22423 -2.18825,0.0375 -0.36042,-0.13356 -0.77184,-0.17239 -1.42048,-0.13471 -1.2076,0.07 -1.18866,-0.0952 0.0872,-0.762 1.1599,-0.60604 1.14781,-0.59222 0.51708,-0.59222 -0.26584,0 -1.16085,0.15311 -1.989,0.33978 -1.31777,0.29735 -1.62324,0.32738 -2.44786,0.24052 -0.86953,-0.0915 -1.08975,-0.0534 -2.85342,0.49748 -1.24055,0.38732 -2.14278,0.58596 -2.57118,0.56604 -0.69442,-0.0324 -0.83242,-0.35464 -0.27807,-0.64973 0.24368,-0.12961 0.10547,-0.16165 -0.69691,-0.16165 -0.55406,0 -1.56032,-0.12071 -2.25383,-0.27043 -0.75221,-0.16245 -1.79431,-0.28248 -2.60773,-0.30053 -1.29257,-0.0288 -1.44848,0.005 -3.39158,0.68946 -2.07969,0.73478 -2.95862,0.90753 -3.72071,0.73142 -0.3065,-0.071 -0.0567,-0.23366 0.87013,-0.56754 0.97462,-0.35094 1.23501,-0.52818 1.03993,-0.70775 -0.1939,-0.17849 0.0584,-0.3543 0.99003,-0.68981 0.68764,-0.24765 1.13494,-0.49332 0.99401,-0.54599 -0.47962,-0.17953 -1.25979,-0.0966 -1.92724,0.20465 -1.63919,0.73969 -6.22036,2.3376 -6.7737,2.36262 -1.07167,0.0486 -1.10156,-0.23569 -0.0728,-0.69329 l 0.99808,-0.44407 -1.11869,0.32339 c -2.46517,0.71256 -3.1902,0.86382 -3.8574,0.80464 -0.36452,-0.0325 -0.66279,-0.13274 -0.66279,-0.2235 0,-0.0905 1.53066,-0.78772 3.40148,-1.54912 3.34598,-1.36173 3.82175,-1.62098 2.97499,-1.62098 -1.08388,0 -2.06989,0.24687 -4.33043,1.08475 -4.00607,1.48467 -6.95725,2.37963 -7.95561,2.41257 -1.14965,0.0379 -1.50506,-0.17238 -0.93247,-0.552 0.55935,-0.3708 0.33395,-0.42198 -0.98118,-0.22298 -1.1054,0.16729 -2.18241,0.13699 -2.17916,-0.0609 0.002,-0.065 0.63781,-0.40482 1.41497,-0.7548 0.77715,-0.34994 1.32086,-0.65754 1.20823,-0.68358 -0.41942,-0.0969 -1.48709,0.20873 -2.70647,0.775 -1.23107,0.57158 -1.98926,0.74171 -2.79369,0.62682 -0.39741,-0.057 -0.3052,-0.27825 0.26505,-0.63676 0.18123,-0.11381 -0.11746,-0.0697 -0.77792,0.11561 -1.66193,0.46592 -2.39393,0.40826 -2.23096,-0.17594 0.0376,-0.13469 -0.12336,-0.27253 -0.35777,-0.30599 -0.23438,-0.0335 -0.42618,-0.1416 -0.42618,-0.24026 0,-0.32237 -0.68119,-0.19042 -2.33325,0.45223 -2.14024,0.8325 -2.73084,0.94627 -3.60705,0.6949 -0.90166,-0.25873 -1.90702,-0.3256 -2.4831,-0.16527 -0.26312,0.0733 -0.81652,0.13321 -1.22977,0.13321 -1.23459,0 -0.90443,-0.3345 1.24952,-1.26609 1.10049,-0.47593 2.00089,-0.88512 2.00089,-0.90929 0,-0.07 -2.15682,-0.0481 -2.63304,0.0269 -0.23765,0.0377 -1.70918,0.50568 -3.27009,1.04073 -2.95231,1.01193 -4.60209,1.47775 -5.23363,1.47775 -0.20367,0 -0.57628,-0.0575 -0.82808,-0.12747 -0.60161,-0.16756 -0.2767,-0.35511 2.95246,-1.7048 1.43527,-0.59989 2.60958,-1.14046 2.60958,-1.20127 0,-0.25299 -0.71954,-0.0612 -2.80116,0.74638 -2.68311,1.0409 -5.5628,2.03276 -6.16057,2.12196 -0.24328,0.0362 -0.67794,0.0132 -0.9659,-0.0548 -0.43127,-0.0997 -0.36962,-0.18128 0.34975,-0.46297 0.48031,-0.18815 0.75906,-0.3684 0.61942,-0.40069 -0.34976,-0.0808 -2.53342,0.40905 -3.69739,0.82946 -0.93601,0.33808 -1.85716,0.43885 -2.34496,0.25644 -0.35913,-0.13421 0.49358,-0.81993 1.64422,-1.32208 0.55635,-0.24281 0.94881,-0.48494 0.87212,-0.53808 -0.0767,-0.0533 -1.57589,0.28032 -3.33158,0.74111 -1.7557,0.46076 -3.40833,0.83818 -3.6725,0.83866 -0.2642,3.8e-4 -0.65587,-0.0719 -0.8704,-0.16016 -0.21452,-0.0887 -0.46571,-0.14061 -0.55818,-0.11563 -0.0924,0.0255 -0.89629,0.29511 -1.78623,0.60031 -2.2793,0.78156 -3.5069,1.03217 -4.30566,0.87899 -0.82562,-0.15836 -0.55988,-0.33864 1.9769,-1.34135 1.15804,-0.45777 2.74851,-1.12358 3.53436,-1.47959 1.95657,-0.88637 2.30212,-1.95789 0.37,-1.14735 -0.37492,0.15736 -2.08205,0.82838 -3.79358,1.49131 -4.82432,1.86858 -5.84231,2.15507 -6.83932,1.92467 -0.6592,-0.15228 -0.85144,-0.12155 -2.29148,0.36667 -1.34929,0.45744 -2.47357,0.58576 -2.89721,0.33067 -0.12041,-0.0724 0.49054,-0.47099 1.35778,-0.88538 1.65838,-0.79246 1.92839,-1.04253 1.04068,-0.96379 -0.29489,0.0261 -0.77981,-0.0204 -1.07759,-0.10314 -0.46877,-0.13043 -0.20888,-0.29883 1.93674,-1.25429 2.6563,-1.18283 2.67349,-1.19262 2.09761,-1.19262 -0.20931,0 -1.05369,0.28089 -1.87639,0.62422 -3.89382,1.62482 -10.1114,3.8145 -10.83144,3.8145 -0.2988,0 -0.68286,-0.0872 -0.85347,-0.19375 -0.27508,-0.17189 -0.54487,-0.11939 -2.38195,0.46236 -1.13946,0.36088 -2.26025,0.65617 -2.49067,0.65617 -0.8221,0 -0.90762,-0.30678 -0.17338,-0.62184 0.69939,-0.30011 0.70333,-0.32583 0.0629,-0.40867 -1.01027,-0.13075 -0.87591,-0.27319 1.27931,-1.35739 3.1926,-1.60604 3.2117,-1.91514 0.0338,-0.54815 -1.18563,0.51001 -1.88679,0.7167 -2.4316,0.7167 -0.42108,0 -0.7656,-0.0417 -0.7656,-0.0924 0,-0.16731 -1.26407,-0.0966 -2.47403,0.1388 -0.6539,0.12715 -1.43891,0.2311 -1.74442,0.2311 -0.30552,0 -0.74823,0.0834 -0.9838,0.18483 -0.23558,0.10167 -0.69776,0.18485 -1.02708,0.18485 -1.20156,0 -1.08088,-0.30363 0.36682,-0.92303 0.80331,-0.34366 1.46059,-0.64439 1.46059,-0.66825 0,-0.0228 -1.11786,-0.0458 -2.48408,-0.0488 -2.02456,-0.005 -2.61019,-0.0414 -3.16552,-0.19982 -0.94364,-0.26928 -1.40464,-0.24511 -2.45023,0.12896 -1.02907,0.36791 -2.07727,0.48276 -2.92415,0.32032 -0.82376,-0.15785 -0.72742,-0.36243 0.45103,-0.95726 1.69145,-0.85377 0.9153,-0.77153 -1.40317,0.14882 -1.1896,0.47214 -2.50784,0.99369 -2.92941,1.15899 -0.84738,0.33227 -1.66038,0.38379 -2.24512,0.14244 -0.33128,-0.13685 -0.63693,-0.0928 -2.25793,0.32364 -1.22274,0.31427 -2.19331,0.48186 -2.79065,0.48186 -0.57641,0 -1.31178,0.12012 -1.98415,0.32365 -1.23918,0.37546 -1.93675,0.40483 -2.80566,0.1183 -0.88406,-0.29169 -0.78483,-0.51059 0.57758,-1.27406 0.66029,-0.37001 1.20052,-0.70866 1.20052,-0.75251 0,-0.22067 -1.33694,-0.0228 -3.20138,0.47511 -1.43333,0.38228 -2.37044,0.55482 -3.01396,0.55482 -1.02769,0 -1.57338,-0.24306 -1.1364,-0.50624 0.22264,-0.13404 0.11617,-0.1513 -0.61038,-0.0979 -0.49934,0.0367 -1.12321,0.0177 -1.44198,-0.0432 -0.45537,-0.0872 -0.67784,-0.0436 -1.17376,0.23063 -0.79375,0.43895 -1.96872,0.4187 -2.15751,-0.0371 -0.11571,-0.2795 -1.32501,-0.64393 -2.16576,-0.65275 -0.16213,-0.002 -0.55811,0.14244 -0.87997,0.32059 -0.44773,0.24765 -0.82042,0.32366 -1.58649,0.32366 -0.81484,0 -1.26817,0.1104 -2.43461,0.59229 -1.6263,0.67201 -2.33147,0.8391 -3.21183,0.761 -1.03552,-0.0918 -1.13626,-0.3261 -0.38635,-0.89842 0.39526,-0.30167 0.61541,-0.57239 0.48919,-0.60157 -0.12628,-0.0292 -0.65935,0.0132 -1.18471,0.0915 -0.87098,0.1319 -1.03925,0.13092 -1.90848,-0.01 -0.89683,-0.14521 -0.97859,-0.14422 -1.38053,0.0131 -1.46332,0.57608 -4.40322,1.58739 -4.78094,1.64462 -1.87005,0.28335 -2.73477,-0.17899 -1.43547,-0.7675 0.83966,-0.38037 0.8463,-0.40259 0.15535,-0.51932 -1.10313,-0.18639 -1.46222,-0.15508 -3.37008,0.29415 -2.42473,0.57094 -4.40192,0.54038 -4.40192,-0.0681 0,-0.23821 -0.077,-0.25271 -0.847017,-0.15737 -0.660594,0.0817 -0.971284,0.0762 -1.411491,-0.0256 -0.485797,-0.11235 -0.478537,-0.17795 0.0521,-0.47136 l 0.616477,-0.34096 h -1.582411 c -0.870354,0 -1.693741,-0.0417 -1.829761,-0.0925 -0.430997,-0.16097 -0.898234,-0.10154 -1.716548,0.21893 -1.044734,0.40918 -3.168142,0.52137 -5.173776,0.27338 -1.330032,-0.16426 -1.375273,-0.16426 -1.798484,0.01 -0.238818,0.0983 -1.028041,0.32686 -1.753927,0.5086 -1.098234,0.27495 -1.440915,0.31332 -2.041387,0.22858 -0.396888,-0.0562 -0.780149,-0.21587 -0.851683,-0.35509 -0.110225,-0.21484 -0.273094,-0.24484 -1.069858,-0.19883 -0.664911,0.0386 -1.302999,-0.0148 -2.181638,-0.18686 -0.954916,-0.1856 -1.493695,-0.22732 -2.331641,-0.17976 -2.607036,0.14751 -2.690419,0.13634 -2.690419,-0.3647 0,-0.25426 -0.197961,-0.53959 -0.439907,-0.63399 -0.377229,-0.14719 -0.793337,-0.005 -2.921478,1.01717 -1.364881,0.6539 -3.479012,1.59699 -4.698051,2.09586 -2.014545,0.8243 -2.313465,0.90434 -3.281212,0.87849 -1.592732,-0.0426 -1.528791,-0.31073 0.312522,-1.31044 1.722696,-0.9353 1.914326,-1.08771 1.14383,-0.90964 -0.780778,0.18026 -2.368357,0.13517 -2.605256,-0.0739 -0.301276,-0.26625 -0.657914,-0.23061 -1.61401,0.16165 -1.210457,0.49667 -3.107896,0.89253 -3.929172,0.81971 -0.904465,-0.0799 -0.589503,-0.41735 1.242787,-1.3302 1.201108,-0.59842 1.393973,-0.77881 1.184383,-1.10783 -0.137641,-0.21611 -0.388004,-0.39299 -0.556246,-0.39299 -0.493183,0 -1.857076,0.38547 -2.859564,0.80813 -1.066757,0.4498 -2.173764,0.5756 -3.126761,0.3554 -0.596744,-0.13798 -0.597648,-0.18205 -0.01098,-0.54127 1.176102,-0.72066 1.200341,-0.76317 0.189739,-0.33315 -1.431017,0.60893 -2.84613,0.68741 -3.787364,0.21001 -0.626603,-0.31782 -0.578182,-0.4853 0.371498,-1.28521 0.454221,-0.3826 0.713081,-0.77776 0.575219,-0.87811 -0.137642,-0.10034 0.154916,-0.47348 0.650567,-0.82913 0.495677,-0.35562 0.788702,-0.67258 0.65117,-0.70436 -0.137369,-0.0317 -0.66189,0.01 -1.1653,0.0905 -1.18984,0.19271 -1.819131,0.18738 -2.298303,-0.0204 -0.297137,-0.12811 0.120644,-0.43886 1.772903,-1.31771 1.188935,-0.63246 2.167897,-1.21819 2.175465,-1.3017 0.0082,-0.0863 -0.418137,-0.1767 -0.98664,-0.20974 -0.733481,-0.0424 -1.000431,-0.11976 -1.000431,-0.28929 0,-0.12715 0.450191,-0.48728 1.000431,-0.80022 0.550243,-0.31292 1.000432,-0.60335 1.000432,-0.64547 0,-0.19069 -1.185535,-0.0464 -2.049312,0.24942 -0.945401,0.32374 -2.319661,0.48651 -3.130189,0.37079 -0.647359,-0.0924 -0.506508,-0.456 0.377421,-0.9742 1.010766,-0.5924 1.009725,-0.59541 -0.250609,-0.72807 -1.042655,-0.10992 -1.048688,-0.11611 -0.775377,-0.84039 l 0.275477,-0.72978 -1.125461,-0.0297 c -1.017294,-0.0269 -1.137415,-0.0683 -1.24997,-0.42979 -0.137094,-0.44006 2.018822,-2.51764 2.967404,-2.85968 0.702389,-0.25323 1.592432,-0.26788 2.131705,-0.0351 0.288749,0.12485 0.180965,0.35076 -0.386084,0.80885 -1.009069,0.81537 -1.005175,0.98338 0.01645,0.68265 0.431655,-0.12714 0.902875,-0.31442 1.047153,-0.41614 0.144222,-0.10168 0.859279,-0.40123 1.588866,-0.66556 1.224169,-0.44352 1.268478,-0.48486 0.57459,-0.53574 -0.591643,-0.0436 -0.811296,-0.18331 -1.030536,-0.65639 -0.230045,-0.49616 -0.129692,-0.6911 0.572615,-1.11529 0.468203,-0.28274 1.345414,-0.62948 1.949395,-0.77058 0.603984,-0.1411 1.339712,-0.32631 1.634958,-0.41163 0.851382,-0.24586 1.838542,-0.13799 2.064309,0.22603 0.166981,0.26938 0.431297,0.34081 1.600685,0.43298 0.77033,0.0603 2.053859,0.11272 2.852269,0.11562 0.798409,0.005 1.677676,0.0681 1.953919,0.14522 0.713521,0.19856 1.411358,0.0367 2.196853,-0.50978 0.883297,-0.61449 1.559253,-0.73197 2.738702,-0.4759 1.178761,0.25587 1.624154,0.25019 3.28653,-0.0427 1.490737,-0.26274 2.524729,-0.2423 2.863268,0.057 0.307913,0.27206 0.90131,0.22425 1.177527,-0.0948 0.132975,-0.15376 0.393489,-0.30103 0.578869,-0.32749 0.18535,-0.0264 0.692244,-0.23364 1.126337,-0.46045 1.338641,-0.69928 3.005211,-0.44787 2.576464,0.38868 -0.217155,0.42377 -0.162318,0.46178 0.813243,0.56448 0.575356,0.0603 1.046089,0.1449 1.046089,0.18739 0,0.0424 1.035472,0.0802 2.30099,0.084 1.265569,0.005 2.980368,0.0368 3.81064,0.0739 1.925213,0.0859 3.821967,-0.0874 4.137167,-0.37751 0.128877,-0.11843 0.507337,-0.26805 0.841124,-0.33209 0.501657,-0.0965 0.730217,-0.0811 1.318404,0.0867 0.710164,0.20263 0.713464,0.20263 1.709058,0.0228 0.567927,-0.10314 1.112924,-0.32347 1.265534,-0.51145 0.304517,-0.3751 1.201764,-0.50396 2.086148,-0.2996 0.499907,0.1155 0.528197,0.22805 0.17,0.67565 -0.23635,0.29535 -0.3457,0.55639 -0.2432,0.58011 0.10255,0.0228 0.507267,-0.0937 0.899304,-0.26048 0.39203,-0.16704 1.234604,-0.44522 1.872364,-0.61825 1.39487,-0.37851 2.59343,-0.37579 3.38632,0.008 l 0.55165,0.26675 0.98175,-0.28986 c 0.61579,-0.18179 1.34103,-0.2899 1.94557,-0.2899 0.99703,0 1.23969,0.11416 1.46958,0.69182 0.0971,0.24408 0.22457,0.20771 1.11017,-0.31577 1.12613,-0.66569 1.97112,-0.85102 2.98941,-0.65576 0.55344,0.10628 0.61211,0.24052 0.37692,0.8636 -0.34317,0.90916 0.31325,0.90615 1.0458,-0.005 0.68919,-0.857 1.03526,-1.04147 1.95377,-1.04147 0.85608,0 1.41519,0.27557 1.0788,0.53171 -0.11691,0.089 -0.30555,0.46353 -0.41925,0.83225 -0.26936,0.87373 0.5034,0.90766 2.10706,0.0924 1.27621,-0.64872 1.62824,-0.7329 3.81276,-0.91174 1.46476,-0.11987 1.57862,-0.11514 2.32117,0.0966 0.65003,0.18561 0.7388,0.30921 0.52987,0.73854 l -0.25093,0.51573 1.33129,-0.34711 c 1.94979,-0.50831 3.92183,-0.80876 5.31076,-0.80907 1.04595,-1.8e-4 1.36748,-0.0627 2.22324,-0.43234 1.11429,-0.48125 1.96967,-0.64262 2.94691,-0.55598 0.52228,0.0464 0.65466,0.19272 0.65466,0.72442 v 0.66633 l 0.92617,-0.20111 c 0.50941,-0.11052 1.29184,-0.20111 1.73877,-0.20111 0.44691,0 1.15148,-0.0864 1.5657,-0.19222 0.53909,-0.13748 1.05861,-0.17823 1.82791,-0.14258 0.67704,0.0312 1.25389,-1.9e-4 1.55883,-0.0851 0.62337,-0.17341 1.54789,-0.17163 2.39309,0.005 0.61329,0.12845 0.76229,0.0896 1.77728,-0.4624 0.81241,-0.4417 1.31158,-0.60233 1.87176,-0.60233 0.42648,0 0.96524,-0.10204 1.21971,-0.23112 0.43117,-0.21866 1.4767,-0.30466 2.06145,-0.16959 z m -10.30443,2.95697 c -0.33502,0.20162 0.10978,0.29551 0.58249,0.12271 0.47322,-0.1729 0.4833,-0.27474 0.0272,-0.27474 -0.19653,0 -0.4709,0.0683 -0.60968,0.15211 z m -6.39571,0.32554 c 0.35682,0.13356 0.96084,-0.0132 0.94725,-0.22858 -0.012,-0.19602 -0.0316,-0.19678 -0.58743,-0.0273 -0.31611,0.0966 -0.47801,0.21152 -0.35982,0.25583 z m -89.02968,4.72759 c -0.46738,0.29435 -0.834766,0.62726 -0.816423,0.73978 0.04606,0.28324 1.821241,-0.60129 2.187529,-1.09003 0.375995,-0.50166 -0.287651,-0.33212 -1.371106,0.35025 z m 191.48105,11.76853 c -0.13667,0.0822 -0.0695,0.11938 0.15728,0.0869 0.21757,-0.031 0.39559,-0.0956 0.39559,-0.14341 0,-0.13289 -0.28685,-0.10361 -0.55287,0.0565 z m -159.845801,0.1645 c -0.08993,0.10726 0.06143,0.13699 0.500228,0.0983 0.739787,-0.0655 0.864901,-0.34697 0.129143,-0.29036 -0.275122,0.0204 -0.558303,0.10774 -0.629344,0.19247 z m 177.205971,0.61684 c -0.23559,0.10166 -0.33831,0.18485 -0.22824,0.18485 0.11019,0 0.39284,-0.0834 0.6284,-0.18485 0.2356,-0.10168 0.33832,-0.18483 0.22826,-0.18483 -0.11019,0 -0.39285,0.0834 -0.62842,0.18483 z"
       style="opacity:1;fill:#ffffff;stroke-width:0.19236758" />
  </g>
</svg>
