<?xml version="1.0" encoding="UTF-8" standalone="no"?>
<!-- Created with Inkscape (http://www.inkscape.org/) -->

<svg
   xmlns:dc="http://purl.org/dc/elements/1.1/"
   xmlns:cc="http://creativecommons.org/ns#"
   xmlns:rdf="http://www.w3.org/1999/02/22-rdf-syntax-ns#"
   xmlns:svg="http://www.w3.org/2000/svg"
   xmlns="http://www.w3.org/2000/svg"
   xmlns:sodipodi="http://sodipodi.sourceforge.net/DTD/sodipodi-0.dtd"
   xmlns:inkscape="http://www.inkscape.org/namespaces/inkscape"
   width="155mm"
   height="31mm"
   viewBox="0 0 155 31"
   version="1.1"
   id="svg8"
   inkscape:version="0.92.4 (5da689c313, 2019-01-14)"
   sodipodi:docname="naranjachico.svg">
  <defs
     id="defs2" />
  <sodipodi:namedview
     id="base"
     pagecolor="#ffffff"
     bordercolor="#666666"
     borderopacity="1.0"
     inkscape:pageopacity="0.0"
     inkscape:pageshadow="2"
     inkscape:zoom="1.4"
     inkscape:cx="500.53041"
     inkscape:cy="59.844286"
     inkscape:document-units="mm"
     inkscape:current-layer="layer1"
     showgrid="false"
     inkscape:window-width="1920"
     inkscape:window-height="1001"
     inkscape:window-x="-9"
     inkscape:window-y="-9"
     inkscape:window-maximized="1"
     units="in" />
  <metadata
     id="metadata5">
    <rdf:RDF>
      <cc:Work
         rdf:about="">
        <dc:format>image/svg+xml</dc:format>
        <dc:type
           rdf:resource="http://purl.org/dc/dcmitype/StillImage" />
        <dc:title />
      </cc:Work>
    </rdf:RDF>
  </metadata>
  <g
     inkscape:label="Capa 1"
     inkscape:groupmode="layer"
     id="layer1"
     transform="translate(0,-266)">
    <path
       inkscape:connector-curvature="0"
       id="path23"
       d="m 78.276878,294.8238 c 0.153115,-0.11376 0.10436,-0.5739 -0.118492,-1.11922 -0.11498,-0.28131 -0.209048,-0.65507 -0.209048,-0.83064 v -0.31914 l 0.285491,0.21198 c 0.157017,0.11661 0.393905,0.37313 0.526412,0.57015 0.178202,0.26498 0.332275,0.35825 0.591862,0.35825 0.336435,0 0.349826,-0.0258 0.32412,-0.59399 -0.02288,-0.50639 0.01331,-0.60349 0.245657,-0.65819 0.200006,-0.0472 0.272476,-0.15936 0.272476,-0.42185 0,-0.45809 0.166363,-0.45475 0.464567,0.01 0.129693,0.20195 0.391491,0.41092 0.581766,0.46466 0.19027,0.0535 0.472183,0.28128 0.62646,0.5057 0.3292,0.47893 0.619463,0.59297 0.927439,0.36436 0.21067,-0.15638 0.206135,-0.39088 -0.01911,-0.98888 -0.04372,-0.11606 0.0818,-0.22714 0.382986,-0.33862 0.246427,-0.0909 0.51233,-0.16584 0.590895,-0.16584 0.07856,0 0.258757,-0.0779 0.400419,-0.17305 0.308467,-0.20739 0.258096,-0.24263 0.805983,0.56846 0.478247,0.70808 0.67926,0.82721 1.108375,0.65678 0.248802,-0.0988 0.308617,-0.0496 0.593618,0.48684 0.410059,0.77212 0.606645,0.93768 0.899293,0.75742 0.119699,-0.0737 0.217613,-0.24807 0.217613,-0.3876 v -0.25351 l 0.334445,0.2886 c 0.301865,0.26039 0.370635,0.27642 0.705977,0.16304 0.20435,-0.0689 0.421042,-0.22487 0.48154,-0.34633 0.107619,-0.21598 0.115258,-0.21484 0.355708,0.0574 0.166103,0.1882 0.345177,0.26783 0.552687,0.24579 0.278462,-0.0293 0.306974,-0.0931 0.306974,-0.68626 0,-0.88621 0.202507,-0.96855 1.064611,-0.43284 1.063271,0.66075 1.567119,0.51155 1.291494,-0.38243 -0.07774,-0.25209 -0.08746,-0.45839 -0.02159,-0.45839 0.06586,0 0.468216,0.51572 0.89415,1.14607 0.674497,0.99819 0.819531,1.14606 1.124173,1.14606 0.288191,0 0.349773,-0.0504 0.349773,-0.28723 0,-0.15788 -0.06811,-0.45096 -0.15137,-0.65113 -0.204105,-0.49077 -0.245865,-1.66631 -0.05917,-1.66631 0.0801,0 0.356664,0.28473 0.614409,0.63269 0.257756,0.34799 0.557397,0.65796 0.665887,0.68889 0.310129,0.0884 0.645465,-0.18341 0.573089,-0.46453 -0.05114,-0.19854 -0.01358,-0.23977 0.18374,-0.20138 0.296688,0.0576 0.463004,-0.0148 0.662335,-0.28446 0.130326,-0.17712 0.21827,-0.0992 0.712829,0.63091 0.610176,0.90077 0.887698,1.13866 1.218339,1.04452 0.317551,-0.0904 0.275542,-1.08642 -0.07354,-1.74372 -0.157242,-0.29608 -0.267792,-0.55157 -0.24565,-0.5677 0.02217,-0.0148 0.349072,0.0289 0.72654,0.10032 0.483,0.0909 0.79931,0.23232 1.06777,0.47653 0.27438,0.24951 0.45133,0.32699 0.63032,0.27615 0.19985,-0.0569 0.23228,-0.1475 0.16474,-0.4597 -0.0463,-0.21397 -0.10182,-0.47639 -0.12342,-0.58337 -0.0655,-0.32405 0.70776,-0.32473 1.11208,-6.9e-4 0.26106,0.20912 0.41233,0.2495 0.73601,0.19678 0.39265,-0.0642 0.42943,-0.0352 1.01471,0.79968 0.62648,0.89344 0.96435,1.09069 1.23221,0.71918 0.11694,-0.16213 0.0918,-0.33993 -0.10771,-0.76167 -0.44791,-0.94663 -0.1486,-1.08281 0.62449,-0.28415 0.37719,0.38966 0.58677,0.51822 0.80693,0.49487 0.25592,-0.0258 0.30222,-0.10995 0.33196,-0.59546 0.019,-0.31014 0.0661,-0.58735 0.10466,-0.61598 0.17548,-0.13032 0.77157,0.21626 1.07551,0.62522 0.43098,0.5799 0.91087,0.6356 0.85287,0.0988 -0.0231,-0.21368 0.0423,-0.39753 0.16675,-0.46881 0.11257,-0.0643 0.22445,-0.25781 0.24856,-0.42983 0.0388,-0.27645 0.12476,-0.19422 0.7457,0.71383 0.38604,0.56456 0.78319,1.05083 0.88259,1.0806 0.0993,0.0297 0.29044,-0.02 0.42458,-0.10982 0.22618,-0.15175 0.27193,-0.12652 0.63071,0.34697 0.48492,0.64024 1.03988,0.98801 1.31062,0.82124 0.33157,-0.20426 0.21223,-0.59807 -0.58796,-1.94009 -0.89801,-1.50616 -0.95727,-1.97569 -0.12443,-0.98617 1.84148,2.18791 1.87824,2.22446 2.2029,2.19026 0.49535,-0.0521 0.37183,-0.55604 -0.37049,-1.51126 -0.71479,-0.91976 -0.73817,-0.97036 -0.44867,-0.97036 0.27192,0 0.65298,0.38147 1.6391,1.64096 0.84209,1.07551 1.20395,1.29576 1.4949,0.90989 0.0978,-0.12978 0.17559,-0.10141 0.43231,0.15639 0.17221,0.17305 0.39922,0.31439 0.50447,0.31439 0.35651,0 0.35956,-0.32076 0.009,-0.96088 -0.19207,-0.35086 -0.34922,-0.65744 -0.34922,-0.68132 0,-0.0229 0.19437,0.0783 0.43193,0.2263 0.80665,0.50379 1.41936,0.47686 1.78665,-0.0786 0.21923,-0.33154 0.32419,-0.34445 0.55636,-0.0684 0.21016,0.24982 0.57251,0.27015 0.79468,0.0445 0.26596,-0.26984 0.84269,-0.0885 1.12309,0.35344 0.48239,0.76026 1.08859,1.37318 1.3581,1.37318 0.40127,0 0.33882,-0.38589 -0.23757,-1.46773 -0.32912,-0.61769 -0.47415,-1.03277 -0.41846,-1.19748 0.0468,-0.13862 0.13226,-0.25206 0.18971,-0.25206 0.0575,0 0.41077,0.42541 0.78511,0.94538 0.68773,0.95526 0.95788,1.15929 1.249,0.94324 0.11949,-0.0889 0.0639,-0.26354 -0.22,-0.69339 -0.20889,-0.31614 -0.3798,-0.60013 -0.3798,-0.63115 0,-0.0314 0.20531,-0.0414 0.45623,-0.0229 0.39764,0.0286 0.51264,0.11145 0.89548,0.6466 0.49427,0.6908 0.77713,0.86664 1.03013,0.64039 0.13251,-0.11865 0.0878,-0.28103 -0.21535,-0.78226 -0.40824,-0.67516 -0.37947,-0.88459 0.0792,-0.57649 0.38782,0.26039 0.98292,0.0726 0.98292,-0.3101 0,-0.33223 0.1443,-0.33186 0.566,10e-4 0.24968,0.19708 0.42566,0.24922 0.69584,0.20513 0.27951,-0.0455 0.4542,0.0148 0.76935,0.25695 0.23974,0.18559 0.55142,0.31586 0.75646,0.31586 0.19178,0 0.46792,0.0799 0.61364,0.17784 0.3412,0.22918 0.72136,0.0726 0.78487,-0.32369 0.0444,-0.27642 0.0603,-0.27042 0.96613,0.35847 1.39848,0.97093 1.99616,1.26425 2.43164,1.19324 0.2028,-0.0333 0.54119,-0.0109 0.75196,0.0482 0.29278,0.0828 0.48074,0.0707 0.79645,-0.0504 0.22731,-0.0873 0.41422,-0.19249 0.41542,-0.23402 8.1e-4,-0.0414 0.0614,-0.14492 0.1339,-0.23003 0.10714,-0.12557 0.22332,-0.0748 0.6226,0.27099 0.60102,0.52113 1.29776,0.79614 1.65633,0.6537 0.30086,-0.11932 0.31827,-0.46304 0.0416,-0.82216 -0.11042,-0.14324 -0.20286,-0.348 -0.20562,-0.45496 -0.005,-0.15546 0.0585,-0.17895 0.31089,-0.11769 0.17371,0.0423 0.51764,0.071 0.76424,0.0649 0.24659,-0.005 0.48961,0.0377 0.54004,0.0983 0.0505,0.0607 0.25115,0.15491 0.44607,0.21026 0.48153,0.13588 0.74136,-0.0429 0.74136,-0.50975 v -0.37139 l 0.38603,0.269 c 0.71174,0.4959 1.71964,0.47576 1.71964,-0.0345 0,-0.10765 0.0589,-0.19563 0.13093,-0.19563 0.30419,0 0.27498,-0.44067 -0.0733,-1.10863 -0.24256,-0.46493 -0.38303,-0.95135 -0.40201,-1.39187 -0.016,-0.37249 -0.0774,-0.84949 -0.13666,-1.06007 l -0.10737,-0.38278 0.64078,-0.0711 c 0.90783,-0.10086 1.04775,-0.26356 0.7462,-0.86661 -0.13323,-0.26641 -0.44283,-0.91488 -0.68804,-1.441 l -0.44584,-0.95662 0.33466,-0.20111 c 0.3323,-0.19964 0.33299,-0.20423 0.0976,-0.66177 -0.31102,-0.60442 -0.30101,-0.64588 0.10771,-0.44712 0.18962,0.0922 0.42186,0.13235 0.51612,0.0889 0.10873,-0.0498 0.38588,0.10467 0.75921,0.42431 0.41056,0.35127 0.6571,0.48325 0.81746,0.43758 0.4065,-0.11566 0.25099,-0.47934 -0.83938,-1.96256 -0.58795,-0.79976 -1.03014,-1.48298 -0.98266,-1.51824 0.0475,-0.0352 0.29875,0.11824 0.55836,0.34119 0.43817,0.37625 0.49857,0.3963 0.84225,0.28017 0.20366,-0.069 0.37073,-0.20827 0.37131,-0.30975 5.2e-4,-0.10167 -0.42584,-0.80373 -0.94754,-1.56051 -0.90738,-1.3161 -0.93702,-1.38223 -0.68235,-1.52049 0.29496,-0.1601 0.27057,-0.38928 -0.11031,-1.03668 -0.22034,-0.37455 -0.2188,-0.39072 0.0378,-0.39072 0.4377,0 0.4698,-0.30608 0.0835,-0.79543 -0.28445,-0.36023 -0.34012,-0.53363 -0.2658,-0.82769 l 0.094,-0.37227 0.44532,0.32034 c 0.80131,0.57642 1.05581,0.35202 0.54321,-0.479 -0.1831,-0.29688 -0.38007,-0.74245 -0.43769,-0.99023 -0.0983,-0.42325 -0.13243,-0.45049 -0.56282,-0.45049 -0.38538,0 -0.6324,-0.13018 -1.55665,-0.82046 -0.61749,-0.46117 -1.18279,-0.79967 -1.29087,-0.7729 -0.12742,0.0314 0.10375,0.27616 0.68431,0.72516 0.80165,0.61959 1.05242,0.9203 0.76749,0.9203 -0.06,0 -0.2583,-0.0777 -0.44059,-0.1725 -0.25614,-0.1333 -0.3883,-0.14601 -0.58137,-0.0563 -0.31812,0.14751 -0.67022,-0.0482 -1.53515,-0.85257 -0.34628,-0.32212 -0.70924,-0.58563 -0.80658,-0.58563 -0.25439,0 -0.2263,0.0738 0.24418,0.64121 0.2316,0.2793 0.4211,0.55415 0.4211,0.61061 0,0.16158 -0.3674,0.11973 -0.57388,-0.0649 -0.13848,-0.1238 -0.34585,-0.15418 -0.79748,-0.1162 -0.59852,0.0501 -0.62759,0.0377 -1.50652,-0.6374 -0.4929,-0.37865 -0.9472,-0.64955 -1.00953,-0.60193 -0.0622,0.0475 0.26138,0.34024 0.71937,0.65035 0.61381,0.41567 0.79143,0.59447 0.67572,0.68035 -0.18675,0.13861 -1.27716,-0.35696 -1.73409,-0.7881 -0.3038,-0.28667 -0.82716,-0.36662 -0.82716,-0.12625 0,0.0791 0.0947,0.20195 0.21056,0.27329 0.35633,0.21945 0.23698,0.31255 -0.40081,0.31255 -0.55249,0 -0.70121,-0.0614 -1.54356,-0.63393 -1.00188,-0.68139 -1.44599,-0.78587 -0.86779,-0.20425 0.67288,0.67694 0.43321,0.68937 -1.23219,0.0638 -1.23222,-0.46284 -2.06201,-0.58287 -2.06201,-0.29827 0,0.0801 0.15792,0.31844 0.35094,0.52929 0.19301,0.21084 0.35093,0.44274 0.35093,0.51539 0,0.29533 -0.28186,0.0962 -0.73555,-0.51907 -0.52679,-0.71464 -0.92826,-0.8947 -2.01984,-0.90577 -0.51564,-0.005 -0.59893,0.0289 -0.75511,0.30866 -0.19249,0.34489 -0.14248,0.43315 1.32322,2.33582 0.35042,0.4549 0.60146,0.8534 0.55786,0.88562 -0.13355,0.0988 -0.55611,-0.36014 -1.66459,-1.80724 -0.58445,-0.76298 -1.18776,-1.47126 -1.34071,-1.57402 -0.17714,-0.11878 -0.49468,-0.18593 -0.87486,-0.18453 -0.38143,0.001 -0.80955,-0.0889 -1.1864,-0.25123 -0.58743,-0.25265 -0.59028,-0.25265 -0.76761,-0.0423 -0.12643,0.15049 -0.27075,0.19424 -0.49829,0.15178 -0.42361,-0.0789 -0.41697,0.10724 0.0305,0.85853 0.40688,0.68283 0.40264,0.66724 0.18139,0.66724 -0.0933,0 -0.40722,-0.17248 -0.69772,-0.38281 -0.46226,-0.33501 -0.56941,-0.36885 -0.85868,-0.27099 -0.30501,0.10303 -0.38227,0.0601 -1.00095,-0.56052 -0.43517,-0.43638 -0.75167,-0.66019 -0.90193,-0.63773 -0.2436,0.0365 -0.29201,0.39955 -0.0975,0.73202 0.0854,0.14604 0.0371,0.18214 -0.24446,0.18214 -0.19436,0 -0.54735,0.13599 -0.79063,0.30469 -0.26386,0.18305 -0.62943,0.31826 -0.91476,0.3386 -0.45342,0.0323 -0.5081,-0.005 -1.18972,-0.77681 -0.72953,-0.82786 -1.03785,-1.02251 -1.30519,-0.82408 -0.10748,0.0799 -0.0199,0.26326 0.30524,0.63945 0.34188,0.39539 0.43323,0.59508 0.3648,0.79741 -0.068,0.2011 0.0205,0.3992 0.34728,0.7772 0.24122,0.27901 0.39813,0.55581 0.3487,0.61516 -0.16825,0.20226 -0.44194,0.10887 -0.67606,-0.23058 -0.57501,-0.83339 -2.18203,-2.63373 -2.37613,-2.66193 -0.37594,-0.055 -0.38641,0.26555 -0.0256,0.78112 l 0.35011,0.50032 -0.39243,-0.36436 c -0.86474,-0.80283 -1.11908,-0.97324 -1.35312,-0.90656 -0.12786,0.0365 -0.23251,0.14954 -0.23251,0.2518 0,0.10194 0.53695,0.88751 1.19322,1.74538 1.17371,1.53424 1.34061,1.82634 1.04358,1.82634 -0.38021,0 -0.72609,-0.27816 -1.51906,-1.22219 -1.40529,-1.67274 -2.44052,-2.68108 -2.79074,-2.71821 -0.40327,-0.0429 -0.52795,0.19423 -0.3271,0.62194 0.19622,0.41779 0.11716,0.47544 -0.34418,0.25124 -0.38777,-0.1885 -0.76556,-0.15434 -0.76442,0.0687 4.2e-4,0.0732 0.22373,0.45611 0.49634,0.85044 0.27263,0.39428 0.46336,0.74084 0.42384,0.77018 -0.14713,0.10914 -0.52166,-0.23517 -0.94939,-0.87318 -0.43185,-0.644 -0.69781,-0.83569 -0.98,-0.70625 -0.1394,0.0642 -0.10703,0.31352 0.093,0.71745 0.0636,0.12828 -0.0412,0.0785 -0.27287,-0.13032 -0.58299,-0.52495 -0.83976,-0.45998 -0.78261,0.19824 0.0134,0.15174 -0.0433,0.30705 -0.12549,0.34475 -0.0823,0.0376 -0.14951,0.15954 -0.14951,0.27069 0,0.36323 -0.23895,0.21455 -0.81846,-0.5095 -0.75078,-0.93798 -0.95795,-1.06616 -1.26532,-0.78295 -0.31628,0.29152 -0.66895,0.36686 -0.87103,0.18621 -0.0923,-0.0825 -0.28644,-0.15009 -0.43139,-0.15009 -0.43308,0 -0.31727,0.37688 0.43831,1.4265 0.38604,0.53622 0.70188,0.99723 0.70188,1.0245 0,0.0789 -0.75658,0.0543 -0.92363,-0.0304 -0.0834,-0.0425 -0.59956,-0.56976 -1.14711,-1.17258 -1.03564,-1.14013 -1.61435,-1.66497 -1.83589,-1.66497 -0.0715,0 -0.20215,0.0649 -0.29048,0.14362 -0.211039,0.1888 -0.0971,0.40012 1.03569,1.92078 0.50347,0.6759 0.9154,1.28496 0.9154,1.35346 0,0.28505 -0.2524,0.069 -0.98261,-0.84093 -0.9412,-1.17277 -1.951362,-2.29028 -2.161057,-2.39079 -0.08531,-0.0407 -0.237809,-0.0148 -0.338821,0.0618 -0.151291,0.11239 -0.129658,0.20423 0.12269,0.52162 0.168477,0.21198 0.266264,0.41506 0.217274,0.45144 -0.1227,0.0911 -0.888694,-0.46086 -1.296995,-0.93454 -0.328344,-0.38091 -0.651473,-0.49443 -0.822586,-0.28892 -0.12597,0.15121 0.17315,0.92381 0.576766,1.48956 0.195167,0.27359 0.332837,0.5464 0.305932,0.60626 -0.02693,0.06 -0.552792,-0.31584 -1.168683,-0.83501 -0.615868,-0.51913 -1.195587,-0.94436 -1.28826,-0.94489 -0.09266,-3.9e-4 -0.230071,0.0809 -0.305321,0.18044 -0.07524,0.0999 -0.163374,0.15841 -0.195811,0.13031 -0.03236,-0.0286 -0.314406,-0.3325 -0.626583,-0.67634 -0.799555,-0.88058 -1.230175,-1.16295 -1.510372,-0.99037 -0.28962,0.17841 -0.196402,0.38154 0.693472,1.51128 0.406224,0.51576 0.964141,1.26594 1.239807,1.66704 0.686343,0.99868 0.807562,2.20593 0.129795,1.29271 -0.131526,-0.1773 -0.730366,-0.93333 -1.330749,-1.68024 -1.692312,-2.10532 -2.049408,-2.42809 -2.399151,-2.1685 -0.231237,0.17157 -0.298676,0.13694 -0.803827,-0.41312 -0.473304,-0.51539 -0.867694,-0.65999 -1.016306,-0.37256 -0.04223,0.0816 0.172079,0.53065 0.476299,0.99754 0.58174,0.89283 0.676455,1.17459 0.365056,1.08589 -0.103444,-0.0294 -0.273546,0.0229 -0.378006,0.1162 -0.164439,0.14696 -0.07326,0.33668 0.679387,1.41318 0.931799,1.3327 0.937828,1.34375 0.735818,1.34375 -0.07343,0 -0.369626,-0.31651 -0.658219,-0.70332 -1.365903,-1.83068 -3.546957,-4.29775 -3.799538,-4.29775 -0.104814,0 -0.239541,0.0983 -0.299389,0.2183 -0.0965,0.19365 -0.191131,0.13452 -0.835559,-0.52095 -0.399705,-0.40659 -0.792867,-0.7393 -0.873693,-0.7393 -0.288384,0 -0.318381,0.34565 -0.0608,0.70064 0.245327,0.33812 0.246712,0.36709 0.02207,0.46043 -0.354388,0.14733 -0.307252,0.30779 0.448767,1.52934 1.119923,1.80953 1.126629,2.15778 0.01191,0.61762 -0.415901,-0.57462 -0.661863,-0.8075 -0.852977,-0.8075 -0.147716,0 -0.268564,0.0471 -0.268564,0.10425 0,0.1885 -0.443423,0.10887 -0.867853,-0.1564 -0.229388,-0.14324 -0.504757,-0.26037 -0.611923,-0.26037 -0.107178,0 -0.262471,-0.0941 -0.34511,-0.20824 -0.08265,-0.11457 -0.244767,-0.20827 -0.360285,-0.20827 -0.421494,0 -0.379159,0.34209 0.128671,1.03995 0.281796,0.38722 0.512363,0.72605 0.512363,0.75291 0,0.0258 -0.392128,0.0516 -0.871389,0.0548 -0.710182,0.005 -0.915617,0.0467 -1.110421,0.22515 -0.33102,0.30338 -0.492731,0.27615 -0.859515,-0.14529 -0.360984,-0.41453 -0.72868,-0.54392 -1.025754,-0.36092 -0.288969,0.17785 -0.25517,0.40835 0.158217,1.07854 0.593341,0.96194 0.321076,0.86928 -0.492218,-0.16767 -0.417295,-0.53195 -0.879718,-1.11957 -1.027604,-1.30584 -0.297251,-0.37435 -0.582438,-0.4324 -0.787557,-0.16045 -0.116218,0.15418 -0.223422,0.10452 -0.792057,-0.36466 -0.428922,-0.35407 -0.769388,-0.54289 -0.978921,-0.54289 -0.202205,0 -0.460161,-0.13534 -0.696019,-0.36466 -0.43469,-0.42303 -0.679387,-0.45611 -0.984191,-0.1333 -0.310119,0.32864 -0.275309,0.57526 0.202607,1.43545 0.23162,0.41689 0.42113,0.79844 0.42113,0.84786 0,0.24862 -0.468985,0.0257 -1.12301,-0.53531 -0.502787,-0.4307 -0.831516,-0.62511 -1.057255,-0.62511 -0.360507,0 -0.551931,0.27387 -0.398644,0.57039 0.0781,0.15101 0.04077,0.17045 -0.214113,0.11022 -0.175157,-0.0413 -0.394001,-0.0199 -0.505822,0.0487 -0.159739,0.0983 -0.237779,0.0491 -0.411743,-0.25984 -0.278429,-0.49455 -0.690597,-0.47175 -0.756821,0.0418 -0.04058,0.31491 -0.464793,0.7255 -0.759719,0.73543 -0.05689,10e-4 -0.19578,-0.16047 -0.308682,-0.3612 -0.157059,-0.27901 -0.287794,-0.36466 -0.55652,-0.36466 -0.285832,0 -0.444855,-0.12434 -0.854023,-0.66732 -0.570485,-0.75714 -0.817854,-0.94541 -1.126671,-0.85741 -0.363245,0.10357 -0.398586,0.36739 -0.135525,1.01225 0.13865,0.33988 0.215876,0.64489 0.171603,0.67777 -0.0443,0.033 -0.231291,-0.0148 -0.415585,-0.10303 -0.305527,-0.14863 -0.364556,-0.14753 -0.66947,0.0109 -0.314598,0.1636 -0.343277,0.16249 -0.484271,-0.0148 -0.513316,-0.64907 -1.5446,-1.78849 -1.677099,-1.85299 -0.655989,-0.31923 -0.959324,0.20167 -0.503546,0.86474 0.294543,0.42854 0.296871,0.45361 0.05449,0.58512 -0.386967,0.21 -0.51293,0.17472 -1.182183,-0.33144 -0.850564,-0.64326 -1.544139,-0.60882 -1.544139,0.0768 0,0.26839 -0.02704,0.28473 -0.297126,0.1773 -0.23173,-0.092 -0.340715,-0.0858 -0.495134,0.0289 -0.170414,0.12651 -0.167866,0.20051 0.01826,0.53111 l 0.216255,0.38413 h -0.555242 c -0.30531,0 -0.594142,0.0471 -0.641859,0.10426 -0.151183,0.18137 -0.315094,0.11443 -0.602146,-0.24665 -0.366483,-0.46104 -1.111354,-0.58746 -1.814907,-0.30803 -0.466559,0.18508 -0.482429,0.18508 -0.630885,-0.0109 -0.08379,-0.11077 -0.360627,-0.36826 -0.615258,-0.57301 -0.385247,-0.30979 -0.505454,-0.35303 -0.716093,-0.25754 -0.139224,0.0633 -0.273667,0.2432 -0.298763,0.40006 -0.03866,0.24206 -0.09581,0.27586 -0.375291,0.22402 -0.233243,-0.0436 -0.457076,0.0167 -0.765292,0.21053 -0.334973,0.20912 -0.523968,0.25612 -0.817908,0.20254 -0.914519,-0.1662 -0.94377,-0.15363 -0.94377,0.4109 0,0.28648 -0.06945,0.60796 -0.154313,0.71432 -0.132329,0.16583 -0.278292,0.005 -1.024819,-1.14605 -0.478787,-0.73674 -1.220397,-1.79931 -1.64802,-2.36137 -0.706678,-0.92873 -0.811538,-1.01892 -1.15101,-0.98979 -0.558714,0.0482 -0.536283,0.3501 0.109632,1.47646 0.604301,1.0538 0.671523,1.22549 0.401241,1.0249 -0.273886,-0.20312 -0.83079,-0.15232 -0.913892,0.0832 -0.105684,0.29999 -0.230789,0.25982 -0.566175,-0.18212 -0.424614,-0.5596 -1.090214,-1.0056 -1.378307,-0.92355 -0.317277,0.09 -0.206793,0.47021 0.435955,1.49871 0.421334,0.67423 0.488989,0.87747 0.415467,1.24818 -0.04828,0.24349 -0.136107,0.44278 -0.195124,0.44278 -0.173003,0 -0.65144,-0.43431 -1.003101,-0.91052 -0.374207,-0.50677 -0.762531,-0.64852 -1.096831,-0.40041 -0.20933,0.15547 -0.209648,0.2051 -0.004,0.60981 0.412562,0.81199 0.421065,0.85988 0.06655,0.37539 -0.501983,-0.6861 -0.998387,-0.77451 -1.328561,-0.23663 -0.219805,0.35811 -0.20282,0.54677 0.130315,1.44803 0.159335,0.43108 0.25014,0.8763 0.20178,0.98937 -0.04828,0.11294 0.05435,0.53345 0.228212,0.93417 0.173877,0.40068 0.276667,0.75778 0.228422,0.7936 -0.04819,0.0357 -0.232183,-0.0109 -0.408774,-0.10195 -0.417381,-0.21714 -0.638128,-0.21112 -0.806216,0.023 -0.104236,0.14434 0.04233,0.49447 0.621912,1.48465 0.417065,0.71259 0.760474,1.37252 0.763128,1.46659 0.0028,0.0972 -0.14668,0.19909 -0.346101,0.23634 -0.257297,0.0478 -0.350939,0.13493 -0.350939,0.32594 0,0.14324 0.157921,0.549 0.350939,0.90158 0.193016,0.35257 0.350939,0.67981 0.350939,0.72725 0,0.21486 -0.415871,0.0521 -0.718873,-0.28101 -0.331637,-0.36477 -0.813711,-0.54816 -1.098035,-0.41777 -0.227086,0.10425 -0.177676,0.51376 0.132397,1.09762 0.354566,0.66745 0.354201,0.67083 -0.08791,0.82032 -0.365752,0.1238 -0.367866,0.13086 -0.271992,0.94683 l 0.09663,0.82225 -0.3948,0.0334 c -0.356853,0.0304 -0.39899,0.077 -0.438474,0.48424 -0.0481,0.4958 0.708178,2.8366 1.04093,3.22195 0.246389,0.28532 0.558605,0.30184 0.747776,0.0396 0.101283,-0.14066 0.06347,-0.3952 -0.135435,-0.91131 -0.353968,-0.91868 -0.352604,-1.10796 0.0058,-0.76914 0.151417,0.14325 0.316717,0.35426 0.367328,0.46887 0.0506,0.11457 0.301423,0.45206 0.557353,0.74988 0.429424,0.4997 0.444968,0.54626 0.20156,0.6036 -0.207541,0.0491 -0.284593,0.20652 -0.361499,0.73955 -0.0807,0.55902 -0.04548,0.77866 0.200866,1.25658 0.164239,0.31855 0.471954,0.70923 0.683825,0.86821 0.21187,0.15899 0.469954,0.36765 0.573523,0.46378 0.298656,0.27699 0.64494,0.15546 0.724135,-0.25465 0.05857,-0.30353 0.151295,-0.384 0.561501,-0.48786 0.270224,-0.0681 0.720471,-0.12692 1.000542,-0.13031 0.280074,-0.005 0.58851,-0.0768 0.685413,-0.16362 0.250296,-0.22372 0.495089,-0.0413 0.770629,0.57435 0.309851,0.69235 0.546967,0.8247 0.960704,0.53621 0.413498,-0.2883 0.569735,-0.28191 1.152878,0.0482 0.522932,0.29602 0.885644,0.27301 1.0044,-0.0642 0.108004,-0.30653 0.31617,-0.25266 0.413063,0.1067 0.04665,0.17323 0.138033,0.33916 0.203059,0.36896 0.06502,0.0297 0.242831,0.26327 0.395106,0.5188 0.469578,0.78787 1.054192,0.50461 0.903793,-0.43792 -0.07617,-0.47745 -0.05694,-0.52029 0.285273,-0.63599 0.20183,-0.0682 0.366957,-0.16325 0.366957,-0.21113 0,-0.0478 0.363232,-0.0904 0.80716,-0.0946 0.443945,-0.005 1.045477,-0.0414 1.336726,-0.0832 0.675342,-0.0968 1.340698,0.0984 1.451269,0.42535 0.04522,0.13344 0.177968,0.30203 0.295059,0.37416 0.175973,0.10874 0.256152,0.0915 0.462479,-0.0977 0.24912,-0.22831 0.250277,-0.22831 0.599523,-0.0258 0.19922,0.1162 0.390404,0.36446 0.443937,0.57625 0.106827,0.42262 0.421565,0.5678 0.731799,0.33756 0.175361,-0.13018 0.185286,-0.25696 0.05966,-0.76124 -0.0829,-0.3328 -0.12126,-0.62689 -0.08531,-0.65362 0.03599,-0.0257 0.177947,0.10547 0.315467,0.29347 0.137521,0.18822 0.433088,0.50164 0.656803,0.69658 0.489305,0.42648 0.909746,0.4234 1.187885,-0.01 l 0.193508,-0.30056 0.344388,0.3266 c 0.216012,0.2048 0.470417,0.32662 0.682482,0.32662 0.349743,0 0.434868,-0.12855 0.515512,-0.77946 0.03407,-0.27501 0.07876,-0.23403 0.389433,0.35577 0.395031,0.75004 0.691441,0.95884 1.048645,0.73883 0.194144,-0.11973 0.214724,-0.271 0.132231,-0.973 -0.120379,-1.02435 0.109893,-1.02094 0.36685,0.005 0.241761,0.96557 0.363161,1.17343 0.685361,1.17343 0.300301,0 0.496431,-0.31048 0.378432,-0.59908 -0.041,-0.10032 -0.107178,-0.52225 -0.147067,-0.93769 -0.09449,-0.98441 0.176586,-1.02264 0.739128,-0.10425 0.447676,0.7309 0.571168,0.82575 1.337467,1.02724 0.513816,0.13506 0.553756,0.12977 0.814232,-0.10887 0.228021,-0.20914 0.259159,-0.34838 0.185874,-0.83211 l -0.08804,-0.58105 0.466995,0.39109 c 0.683959,0.5727 1.375724,0.9112 1.862938,0.91154 0.36691,2.2e-4 0.479704,0.0707 0.779889,0.48713 0.390879,0.54223 0.690932,0.72403 1.033741,0.62642 0.183211,-0.0521 0.229645,-0.21714 0.229645,-0.81619 v -0.75075 l 0.324889,0.22659 c 0.178698,0.12448 0.453165,0.22658 0.609938,0.22658 0.156774,0 0.403928,0.0973 0.549231,0.21657 0.189106,0.15491 0.371346,0.20082 0.641207,0.16065 0.237499,-0.035 0.439851,2e-4 0.546822,0.096 0.218665,0.19538 0.542978,0.19336 0.839469,-0.005 0.215133,-0.14473 0.267402,-0.10086 0.62345,0.52098 0.284978,0.49765 0.460081,0.67864 0.656587,0.67864 0.149603,0 0.338588,0.11498 0.42786,0.26039 0.151258,0.24636 0.518007,0.34325 0.723131,0.19108 z m -3.614672,-3.33159 c -0.117516,-0.22716 0.03853,-0.33295 0.204334,-0.13826 0.165999,0.1948 0.169535,0.30953 0.0096,0.30953 -0.06896,0 -0.165189,-0.077 -0.213866,-0.17136 z m -2.243531,-0.36677 c 0.125177,-0.15048 0.337046,0.0148 0.332283,0.25752 -0.0042,0.22086 -0.01109,0.22172 -0.206069,0.0307 -0.110877,-0.10887 -0.167676,-0.2383 -0.126211,-0.28822 z m -31.23054,-5.32653 c -0.163953,-0.33164 -0.292826,-0.70672 -0.286392,-0.8335 0.01616,-0.31914 0.638869,0.67746 0.76736,1.22811 0.131897,0.56523 -0.10091,0.3742 -0.480968,-0.39461 z m 67.169245,-13.25945 c -0.048,-0.0927 -0.0244,-0.13453 0.0551,-0.0979 0.0763,0.035 0.13876,0.10778 0.13876,0.16158 0,0.14971 -0.10059,0.11674 -0.19393,-0.0637 z m -56.071978,-0.18538 c -0.03154,-0.12081 0.02155,-0.15433 0.175473,-0.11077 0.259509,0.0738 0.303399,0.39091 0.0453,0.32714 -0.09651,-0.0229 -0.195845,-0.12136 -0.220767,-0.21684 z m 62.161708,-0.69497 c -0.0826,-0.11457 -0.11866,-0.20826 -0.0801,-0.20826 0.0387,0 0.1378,0.0941 0.22044,0.20826 0.0826,0.11457 0.11866,0.20824 0.0801,0.20824 -0.0387,0 -0.13779,-0.0941 -0.22044,-0.20824 z"
       style="fill:#ff6600;stroke-width:0.12093613" />
  </g>
</svg>
