<?xml version="1.0" encoding="UTF-8" standalone="no"?>
<!-- Created with Inkscape (http://www.inkscape.org/) -->

<svg
   xmlns:dc="http://purl.org/dc/elements/1.1/"
   xmlns:cc="http://creativecommons.org/ns#"
   xmlns:rdf="http://www.w3.org/1999/02/22-rdf-syntax-ns#"
   xmlns:svg="http://www.w3.org/2000/svg"
   xmlns="http://www.w3.org/2000/svg"
   xmlns:sodipodi="http://sodipodi.sourceforge.net/DTD/sodipodi-0.dtd"
   xmlns:inkscape="http://www.inkscape.org/namespaces/inkscape"
   width="184mm"
   height="36mm"
   viewBox="0 0 184 36"
   version="1.1"
   id="svg8"
   inkscape:version="0.92.4 (5da689c313, 2019-01-14)"
   sodipodi:docname="21mediano.svg">
  <defs
     id="defs2" />
  <sodipodi:namedview
     id="base"
     pagecolor="#ffffff"
     bordercolor="#666666"
     borderopacity="1.0"
     inkscape:pageopacity="0.0"
     inkscape:pageshadow="2"
     inkscape:zoom="0.9899495"
     inkscape:cx="587.05401"
     inkscape:cy="96.3222"
     inkscape:document-units="mm"
     inkscape:current-layer="layer1"
     showgrid="false"
     inkscape:window-width="1920"
     inkscape:window-height="1001"
     inkscape:window-x="-9"
     inkscape:window-y="-9"
     inkscape:window-maximized="1"
     units="in" />
  <metadata
     id="metadata5">
    <rdf:RDF>
      <cc:Work
         rdf:about="">
        <dc:format>image/svg+xml</dc:format>
        <dc:type
           rdf:resource="http://purl.org/dc/dcmitype/StillImage" />
        <dc:title></dc:title>
      </cc:Work>
    </rdf:RDF>
  </metadata>
  <g
     inkscape:label="Capa 1"
     inkscape:groupmode="layer"
     id="layer1"
     transform="translate(0,-261)">
    <path
       inkscape:connector-curvature="0"
       id="path23"
       d="m 65.868769,263.28769 c 0.251901,0.1447 0.171719,0.72929 -0.194953,1.42224 -0.189156,0.35747 -0.343928,0.83243 -0.343928,1.05552 v 0.40556 l 0.469693,-0.2694 c 0.258327,-0.14817 0.648057,-0.47413 0.866061,-0.72449 0.29318,-0.33673 0.546665,-0.45526 0.973737,-0.45526 0.55351,0 0.575541,0.0328 0.533248,0.75481 -0.03765,0.6435 0.02198,0.7669 0.404156,0.83642 0.329051,0.0599 0.448286,0.20249 0.448286,0.53604 0,0.58212 0.273701,0.57787 0.764309,-0.0123 0.213383,-0.25663 0.644086,-0.52218 0.957127,-0.59046 0.313041,-0.068 0.776842,-0.35744 1.030663,-0.64261 0.541604,-0.6086 1.019146,-0.75352 1.525835,-0.46302 0.346596,0.19872 0.339137,0.49672 -0.03143,1.2566 -0.07193,0.14748 0.134567,0.28866 0.630095,0.43033 0.405425,0.11565 0.842893,0.21071 0.972148,0.21071 0.129261,0 0.425712,0.0991 0.658779,0.2199 0.50749,0.26356 0.42462,0.30834 1.326011,-0.72235 0.78682,-0.8998 1.117527,-1.05116 1.823512,-0.8346 0.409335,0.1256 0.507742,0.0629 0.976633,-0.61865 0.674629,-0.98115 0.998056,-1.19153 1.479525,-0.96247 0.196912,0.0937 0.358018,0.31523 0.358018,0.49252 v 0.32216 l 0.550235,-0.36674 c 0.496631,-0.33088 0.609773,-0.35126 1.161484,-0.2072 0.3362,0.0877 0.692701,0.28578 0.792235,0.44012 0.17708,0.27445 0.189641,0.27302 0.58522,-0.0731 0.273269,-0.23915 0.567885,-0.34034 0.909281,-0.31232 0.458133,0.0372 0.505038,0.11825 0.505038,0.87204 0,1.12616 0.333172,1.23079 1.751514,0.55004 1.749307,-0.83964 2.578245,-0.65004 2.124783,0.48597 -0.127898,0.32034 -0.143881,0.58249 -0.03554,0.58249 0.108329,0 0.770315,-0.65533 1.47106,-1.45635 1.109699,-1.26846 1.348313,-1.45636 1.849513,-1.45636 0.474127,0 0.575444,0.0641 0.575444,0.36499 0,0.20063 -0.112066,0.57305 -0.249043,0.82742 -0.335801,0.62368 -0.404508,2.11747 -0.09739,2.11747 0.131885,0 0.586783,-0.36182 1.010831,-0.80398 0.424063,-0.44223 0.917048,-0.83611 1.095522,-0.87539 0.510241,-0.11219 1.061942,0.23307 0.942855,0.59028 -0.08417,0.25228 -0.02244,0.30467 0.30229,0.2559 0.488119,-0.0731 0.761738,0.0188 1.089675,0.36146 0.214431,0.22508 0.359119,0.12612 1.172766,-0.80173 1.003873,-1.14463 1.460453,-1.44692 2.004443,-1.3273 0.52243,0.11503 0.45332,1.38057 -0.12101,2.21582 -0.2587,0.37625 -0.44057,0.70091 -0.40416,0.72139 0.0364,0.0187 0.57431,-0.0367 1.19532,-0.12752 0.79463,-0.11564 1.31504,-0.29522 1.75672,-0.60554 0.4514,-0.31707 0.74253,-0.41553 1.03699,-0.35091 0.3288,0.0724 0.38216,0.18744 0.27105,0.58416 -0.0762,0.27192 -0.16747,0.60535 -0.20306,0.74131 -0.10774,0.4118 1.16442,0.41264 1.82961,8.7e-4 0.42949,-0.26573 0.67836,-0.31704 1.21089,-0.25007 0.646,0.0817 0.70651,0.0446 1.66942,-1.01619 1.03069,-1.13531 1.58655,-1.38596 2.02724,-0.91387 0.1924,0.20602 0.15105,0.43194 -0.17723,0.96786 -0.7369,1.20294 -0.24446,1.376 1.02743,0.36111 0.62055,-0.49518 0.96535,-0.65854 1.32757,-0.62888 0.42105,0.0326 0.49721,0.13966 0.54615,0.7567 0.0312,0.39413 0.10878,0.74637 0.17223,0.78274 0.2887,0.16555 1.26941,-0.27479 1.76945,-0.7945 0.70906,-0.73689 1.49858,-0.80766 1.40316,-0.12558 -0.0379,0.27152 0.0695,0.50516 0.27433,0.59573 0.18526,0.0818 0.36927,0.32761 0.40894,0.54622 0.0637,0.35127 0.20523,0.2468 1.22684,-0.9071 0.63511,-0.71741 1.28852,-1.33534 1.45204,-1.37317 0.1635,-0.0378 0.47784,0.0254 0.69852,0.13948 0.37213,0.19285 0.4474,0.16086 1.03765,-0.4409 0.79782,-0.81359 1.71084,-1.2555 2.15626,-1.04358 0.5455,0.25954 0.34915,0.75999 -0.96731,2.46535 -1.47744,1.91393 -1.57491,2.5106 -0.20471,1.25315 3.02963,-2.78024 3.09011,-2.8267 3.62425,-2.78323 0.81495,0.0663 0.61175,0.70657 -0.60954,1.92041 -1.17599,1.16878 -1.21445,1.23308 -0.73816,1.23308 0.44737,0 1.07427,-0.48475 2.69668,-2.08525 1.3854,-1.36669 1.9807,-1.64656 2.45939,-1.15622 0.16075,0.16484 0.28889,0.12889 0.71124,-0.19875 0.28334,-0.21989 0.65683,-0.3995 0.82996,-0.3995 0.58655,0 0.59156,0.40759 0.0149,1.22103 -0.31599,0.44585 -0.57454,0.83544 -0.57454,0.86578 0,0.0292 0.31979,-0.0996 0.71064,-0.28756 1.3271,-0.64019 2.33515,-0.60597 2.93941,0.0997 0.36068,0.42128 0.53337,0.43769 0.91533,0.0869 0.34577,-0.31744 0.94188,-0.34328 1.3074,-0.0565 0.43759,0.34289 1.38642,0.11243 1.84774,-0.44914 0.79363,-0.96612 1.79094,-1.74495 2.23434,-1.74495 0.6602,0 0.55743,0.49038 -0.39086,1.8651 -0.54143,0.78492 -0.78008,1.3124 -0.68843,1.52168 0.0771,0.17617 0.21757,0.32033 0.31211,0.32033 0.0946,0 0.67579,-0.54059 1.29169,-1.20136 1.13145,-1.2139 1.57591,-1.47315 2.05486,-1.1986 0.19656,0.11292 0.10527,0.3349 -0.36196,0.88111 -0.34367,0.40172 -0.62484,0.76262 -0.62484,0.80204 0,0.0397 0.33775,0.0526 0.75059,0.0292 0.65419,-0.0364 0.84338,-0.14157 1.47325,-0.82167 0.81317,-0.87783 1.27854,-1.10128 1.6948,-0.81376 0.218,0.15076 0.14444,0.35711 -0.35429,0.99404 -0.67168,0.85797 -0.62433,1.12409 0.13036,0.73258 0.63804,-0.3309 1.61712,-0.0924 1.61712,0.39404 0,0.42218 0.23739,0.42171 0.9312,-0.002 0.41078,-0.25044 0.70028,-0.31669 1.14477,-0.26066 0.45987,0.0578 0.74728,-0.0187 1.26578,-0.32653 0.39439,-0.23585 0.90719,-0.40137 1.24452,-0.40137 0.31554,0 0.76984,-0.10152 1.00958,-0.226 0.56133,-0.29123 1.18677,-0.0923 1.29128,0.41133 0.0729,0.35127 0.0993,0.34361 1.58949,-0.45552 2.3008,-1.2338 3.28407,-1.60652 4.00052,-1.51629 0.33367,0.0424 0.8904,0.0138 1.23715,-0.0611 0.4817,-0.10512 0.79091,-0.0899 1.31035,0.0641 0.37393,0.11094 0.68147,0.2446 0.68341,0.29737 0.001,0.0526 0.10111,0.18416 0.22024,0.2923 0.17631,0.15963 0.36737,0.0951 1.02431,-0.34434 0.98879,-0.66224 2.13507,-1.0117 2.72498,-0.83069 0.49498,0.15163 0.52362,0.58841 0.0685,1.04476 -0.18154,0.18201 -0.33375,0.4422 -0.33827,0.57813 -0.007,0.19755 0.0962,0.22742 0.51147,0.14955 0.2858,-0.0537 0.8516,-0.0903 1.25732,-0.0824 0.40568,0.007 0.8055,-0.0479 0.88848,-0.12488 0.0829,-0.077 0.41318,-0.19687 0.73388,-0.2672 0.7922,-0.17267 1.21968,0.0544 1.21968,0.64776 v 0.47194 l 0.6351,-0.34182 c 1.17097,-0.63017 2.82913,-0.60458 2.82913,0.0439 0,0.13687 0.0971,0.24861 0.21537,0.24861 0.50049,0 0.45242,0.55997 -0.12069,1.40878 -0.39905,0.59081 -0.63016,1.20892 -0.66136,1.76872 -0.0264,0.47334 -0.12745,1.07948 -0.22488,1.34707 l -0.17692,0.48641 1.05424,0.0904 c 1.49356,0.12821 1.72375,0.33489 1.22765,1.10124 -0.21916,0.33852 -0.72855,1.16257 -1.13198,1.83113 l -0.73349,1.21562 0.55059,0.25556 c 0.54671,0.2537 0.54785,0.25953 0.1607,0.84094 -0.51168,0.76807 -0.49523,0.82075 0.17724,0.56817 0.31198,-0.11701 0.69407,-0.16813 0.84912,-0.11305 0.17905,0.0633 0.63488,-0.13306 1.24908,-0.53918 0.67544,-0.44636 1.08106,-0.61407 1.34487,-0.55605 0.66878,0.14695 0.41297,0.60911 -1.38094,2.49392 -0.96731,1.0163 -1.69481,1.8845 -1.61666,1.92928 0.0781,0.0446 0.49149,-0.15026 0.91858,-0.43356 0.72088,-0.47811 0.82026,-0.50358 1.3857,-0.35601 0.33505,0.0877 0.60991,0.26466 0.61086,0.39362 8.6e-4,0.12907 -0.70059,1.02132 -1.5589,1.98298 -1.4928,1.67245 -1.54157,1.75648 -1.12262,1.93217 0.48529,0.20343 0.44517,0.49466 -0.18149,1.31735 -0.36249,0.47597 -0.35995,0.49651 0.0625,0.49651 0.72016,0 0.77299,0.38893 0.13737,1.01077 -0.46796,0.45778 -0.55954,0.67813 -0.43724,1.05179 l 0.15468,0.47305 0.73266,-0.40704 c 1.3183,-0.7325 1.737,-0.44733 0.89368,0.60868 -0.30125,0.37724 -0.62528,0.94347 -0.72011,1.25831 -0.16194,0.53785 -0.21791,0.57247 -0.92597,0.57247 -0.63401,0 -1.04037,0.16537 -2.56098,1.04258 -1.01591,0.58604 -1.94592,1.01618 -2.12377,0.98215 -0.20958,-0.0399 0.17061,-0.35091 1.12586,-0.92147 1.31887,-0.78736 1.73145,-1.16947 1.26266,-1.16947 -0.0987,0 -0.42495,0.0985 -0.72484,0.21918 -0.42139,0.16936 -0.63883,0.18557 -0.95647,0.0718 -0.52339,-0.18745 -1.10267,0.0611 -2.52565,1.08341 -0.56973,0.40932 -1.16685,0.74418 -1.32699,0.74418 -0.4185,0 -0.37228,-0.0938 0.40171,-0.81483 0.38107,-0.35491 0.69285,-0.70417 0.69285,-0.77594 0,-0.20533 -0.60449,-0.15217 -0.94418,0.0825 -0.22782,0.15738 -0.56897,0.19591 -1.31199,0.14765 -0.98473,-0.0637 -1.03252,-0.0479 -2.47854,0.80996 -0.81095,0.48118 -1.55834,0.8254 -1.66091,0.76489 -0.1025,-0.0605 0.43003,-0.43234 1.1835,-0.82642 1.00988,-0.52821 1.30209,-0.75543 1.1117,-0.86455 -0.30723,-0.17614 -2.10116,0.4536 -2.85291,1.00149 -0.49983,0.36427 -1.36084,0.46587 -1.36084,0.16032 0,-0.1004 0.15581,-0.2566 0.34641,-0.34725 0.58626,-0.27885 0.38989,-0.39718 -0.65944,-0.39718 -0.90895,0 -1.15362,0.0779 -2.53946,0.80556 -1.64829,0.86587 -2.37894,0.99863 -1.42768,0.25956 1.10703,-0.86023 0.7127,-0.87603 -2.02722,-0.0811 -2.02726,0.58816 -3.39246,0.74068 -3.39246,0.37904 0,-0.10187 0.25982,-0.40468 0.57737,-0.6726 0.31756,-0.26793 0.57738,-0.56261 0.57738,-0.65492 0,-0.3753 -0.46373,-0.12233 -1.21014,0.6596 -0.86668,0.90813 -1.5272,1.13692 -3.32308,1.15101 -0.84833,0.007 -0.98536,-0.0367 -1.24231,-0.39224 -0.31667,-0.43827 -0.23442,-0.55042 2.17698,-2.96823 0.57651,-0.57806 0.98952,-1.08446 0.9178,-1.12539 -0.21974,-0.1256 -0.91492,0.45763 -2.73862,2.29654 -0.96153,0.96955 -1.95411,1.86959 -2.20575,2.00017 -0.29145,0.15094 -0.81386,0.23627 -1.43933,0.23448 -0.62752,-0.002 -1.33188,0.11305 -1.95188,0.31928 -0.96646,0.32103 -0.97116,0.32103 -1.26288,0.0537 -0.20802,-0.19121 -0.44545,-0.24681 -0.8198,-0.19285 -0.69693,0.10018 -0.686,-0.13637 0.0503,-1.09101 0.66942,-0.86769 0.66243,-0.84786 0.29844,-0.84786 -0.15341,0 -0.66997,0.21918 -1.1479,0.48643 -0.76052,0.42574 -0.9368,0.46874 -1.41271,0.34437 -0.5018,-0.13097 -0.62892,-0.0764 -1.64678,0.71226 -0.71595,0.55455 -1.23664,0.83894 -1.48385,0.81044 -0.40079,-0.0464 -0.48043,-0.50778 -0.16051,-0.93026 0.14062,-0.18555 0.0609,-0.23143 -0.4022,-0.23143 -0.31974,0 -0.90049,-0.17281 -1.30073,-0.38719 -0.43411,-0.23259 -1.03554,-0.40442 -1.50497,-0.43027 -0.74598,-0.0412 -0.83596,0.007 -1.95736,0.98713 -1.20023,1.05199 -1.70748,1.29934 -2.1473,1.04718 -0.17688,-0.10153 -0.0327,-0.33453 0.50219,-0.81256 0.56247,-0.50244 0.71273,-0.75621 0.60015,-1.01331 -0.11187,-0.25556 0.0338,-0.50726 0.57137,-0.98762 0.39684,-0.35456 0.65499,-0.7063 0.57366,-0.78172 -0.27679,-0.25703 -0.72705,-0.13827 -1.11225,0.29302 -0.946,1.05903 -3.5899,3.34681 -3.90924,3.38265 -0.61848,0.0697 -0.63573,-0.33745 -0.0421,-0.99261 l 0.57601,-0.63581 -0.64562,0.46302 c -1.4227,1.02019 -1.84113,1.23674 -2.22618,1.152 -0.21038,-0.0464 -0.38252,-0.19003 -0.38252,-0.31997 0,-0.12958 0.88339,-1.1278 1.96308,-2.21794 1.93102,-1.94962 2.2056,-2.3208 1.71693,-2.3208 -0.62554,0 -1.19458,0.35346 -2.49918,1.55309 -2.312,2.12564 -4.0152,3.40699 -4.59136,3.45415 -0.66348,0.0544 -0.8686,-0.24682 -0.53814,-0.79033 0.32281,-0.53089 0.19273,-0.60415 -0.56627,-0.31925 -0.63795,0.23952 -1.25951,0.19613 -1.25764,-0.0873 7e-4,-0.093 0.3681,-0.57958 0.81661,-1.08068 0.44852,-0.50103 0.76231,-0.94142 0.6973,-0.9787 -0.24206,-0.13879 -0.85823,0.29885 -1.56197,1.10959 -0.71047,0.81835 -1.14804,1.06193 -1.61229,0.89746 -0.22935,-0.0817 -0.17614,-0.3984 0.15296,-0.91169 0.10461,-0.16295 -0.0678,-0.0997 -0.44895,0.16554 -0.95914,0.66706 -1.38159,0.58449 -1.28754,-0.25192 0.0217,-0.19283 -0.0712,-0.3902 -0.20648,-0.4381 -0.13528,-0.0479 -0.24595,-0.20274 -0.24595,-0.34398 0,-0.46156 -0.39313,-0.27262 -1.34657,0.64746 -1.23518,1.19193 -1.57602,1.35482 -2.08171,0.99492 -0.52036,-0.37043 -1.10057,-0.46618 -1.43304,-0.23662 -0.15187,0.10489 -0.47124,0.19072 -0.70972,0.19072 -0.71251,0 -0.52197,-0.47892 0.72111,-1.8127 0.63512,-0.68141 1.15475,-1.26724 1.15475,-1.30188 0,-0.10018 -1.24473,-0.069 -1.51957,0.0386 -0.13717,0.054 -0.9864,0.72401 -1.88724,1.49004 -1.70384,1.44881 -2.65596,2.11575 -3.02044,2.11575 -0.11756,0 -0.33258,-0.0825 -0.47789,-0.18251 -0.34721,-0.23991 -0.15969,-0.50843 1.70391,-2.44082 0.82833,-0.8589 1.50605,-1.63284 1.50605,-1.71989 0,-0.36221 -0.41526,-0.0877 -1.61661,1.06859 -1.54848,1.49031 -3.2104,2.91037 -3.555392,3.03809 -0.1404,0.0518 -0.391256,0.0188 -0.55744,-0.0784 -0.248897,-0.14277 -0.213321,-0.25953 0.201845,-0.66283 0.277196,-0.26939 0.438061,-0.52744 0.357474,-0.57367 -0.201856,-0.11565 -1.462088,0.58564 -2.133834,1.18754 -0.540195,0.48405 -1.071814,0.62831 -1.353324,0.36715 -0.207264,-0.19215 0.284853,-1.17391 0.948902,-1.89286 0.321088,-0.34763 0.54758,-0.69431 0.503324,-0.77038 -0.04427,-0.0763 -0.909479,0.40135 -1.922732,1.06107 -1.013243,0.65968 -1.967011,1.20006 -2.119475,1.20073 -0.152487,4.7e-4 -0.378508,-0.10276 -0.502316,-0.2293 -0.123824,-0.12698 -0.268773,-0.2013 -0.322144,-0.16555 -0.05334,0.0365 -0.517265,0.42254 -1.030865,0.85948 -1.315442,1.11899 -2.023902,1.47779 -2.484887,1.25848 -0.476486,-0.22672 -0.323122,-0.48483 1.140908,-1.92045 0.668328,-0.65539 1.586218,-1.60867 2.039756,-2.11837 1.129182,-1.26907 1.328606,-2.80318 0.213533,-1.6427 -0.216379,0.22529 -1.201592,1.18601 -2.189355,2.13515 -2.784217,2.67532 -3.371714,3.08548 -3.947117,2.75562 -0.380433,-0.21802 -0.491385,-0.17404 -1.322467,0.52497 -0.778685,0.65492 -1.427538,0.83866 -1.672039,0.47342 -0.06949,-0.10365 0.283107,-0.67432 0.783614,-1.26762 0.957085,-1.13458 1.112911,-1.49261 0.600592,-1.37989 -0.170171,0.0375 -0.450036,-0.0292 -0.621896,-0.14765 -0.27054,-0.18675 -0.120528,-0.42786 1.117736,-1.79582 1.533006,-1.69349 1.542923,-1.70753 1.210574,-1.70753 -0.1208,0 -0.608111,0.40219 -1.082909,0.89373 -2.247203,2.32632 -5.835502,5.46133 -6.251052,5.46133 -0.172431,0 -0.394095,-0.12488 -0.492555,-0.27739 -0.158738,-0.24609 -0.314454,-0.17092 -1.374675,0.66198 -0.657599,0.51667 -1.304436,0.93947 -1.437411,0.93947 -0.474453,0 -0.523805,-0.43924 -0.100046,-0.89033 0.403619,-0.42966 0.405896,-0.46649 0.03631,-0.58509 -0.583047,-0.1872 -0.505501,-0.39113 0.738315,-1.94342 1.842513,-2.29943 1.853543,-2.74197 0.01956,-0.78482 -0.684246,0.7302 -1.088906,1.02613 -1.40333,1.02613 -0.243009,0 -0.441845,-0.0598 -0.441845,-0.13237 0,-0.23952 -0.729523,-0.13826 -1.427804,0.19874 -0.37739,0.18203 -0.830431,0.33088 -1.006744,0.33088 -0.176332,0 -0.43182,0.11947 -0.567777,0.26462 -0.135969,0.14556 -0.402695,0.26466 -0.592747,0.26466 -0.693448,0 -0.623801,-0.43472 0.21169,-1.32154 0.463613,-0.49205 0.842946,-0.92261 0.842946,-0.95673 0,-0.0328 -0.645132,-0.0656 -1.43362,-0.0699 -1.168404,-0.007 -1.506385,-0.0592 -1.82688,-0.2861 -0.544597,-0.38553 -0.810647,-0.35091 -1.414086,0.18463 -0.593897,0.52675 -1.198834,0.69118 -1.687583,0.45864 -0.475413,-0.226 -0.419811,-0.51892 0.260298,-1.37055 0.976177,-1.22239 0.528241,-1.10463 -0.8098,0.21307 -0.686543,0.67596 -1.447326,1.42268 -1.69063,1.65937 -0.48904,0.4757 -0.958235,0.54949 -1.295699,0.20392 -0.191185,-0.19593 -0.367579,-0.13288 -1.3031,0.46337 -0.705669,0.44994 -1.265811,0.68989 -1.610536,0.68989 -0.332671,0 -0.757063,0.17197 -1.145099,0.46339 -0.715157,0.53754 -1.117737,0.57959 -1.619205,0.16937 -0.510212,-0.41762 -0.452944,-0.73102 0.333333,-1.82411 0.381064,-0.52976 0.692847,-1.01461 0.692847,-1.0774 0,-0.31594 -0.771579,-0.0326 -1.847591,0.68023 -0.827191,0.54734 -1.368023,0.79435 -1.73941,0.79435 -0.593109,0 -0.908043,-0.34801 -0.655852,-0.72481 0.128496,-0.1919 0.06703,-0.2166 -0.352266,-0.14017 -0.288171,0.0524 -0.648215,0.0254 -0.832183,-0.0619 -0.262804,-0.12489 -0.391197,-0.0625 -0.677405,0.33019 -0.458074,0.62845 -1.136179,0.59947 -1.245132,-0.0531 -0.06676,-0.40017 -0.764682,-0.92195 -1.249897,-0.93456 -0.09359,-0.002 -0.3221,0.20391 -0.507847,0.459 -0.258399,0.35456 -0.473487,0.4634 -0.915596,0.4634 -0.470254,0 -0.731879,0.15806 -1.405051,0.84799 -0.93857,0.96214 -1.345541,1.20137 -1.853615,1.08956 -0.597615,-0.13149 -0.655757,-0.4669 -0.222966,-1.28632 0.228115,-0.4319 0.355163,-0.81949 0.282322,-0.86127 -0.07287,-0.0418 -0.380524,0.0188 -0.683725,0.13096 -0.502655,0.18886 -0.599772,0.18746 -1.101421,-0.0138 -0.517585,-0.2079 -0.564763,-0.20649 -0.796727,0.0187 -0.844517,0.82479 -2.541197,2.2727 -2.759189,2.35464 -1.079242,0.40569 -1.578293,-0.25627 -0.828439,-1.09884 0.484587,-0.54459 0.488416,-0.57641 0.08963,-0.74355 -0.636641,-0.26684 -0.843878,-0.22203 -1.944944,0.42116 -1.399358,0.81744 -2.540436,0.77366 -2.540436,-0.0976 0,-0.34106 -0.04449,-0.36183 -0.488833,-0.22531 -0.381249,0.11688 -0.560551,0.10904 -0.814605,-0.0367 -0.280368,-0.16085 -0.276175,-0.25479 0.03004,-0.67488 l 0.355786,-0.48815 H 32.32149 c -0.502301,0 -0.977495,-0.0598 -1.055998,-0.13237 -0.248736,-0.23047 -0.518393,-0.14539 -0.99066,0.31344 -0.60294,0.58584 -1.828411,0.74649 -2.985905,0.39142 -0.767591,-0.23517 -0.793698,-0.23517 -1.037944,0.0138 -0.137826,0.14071 -0.593305,0.46798 -1.012227,0.72817 -0.633814,0.39367 -0.831583,0.44862 -1.178127,0.32727 -0.229053,-0.0804 -0.450239,-0.30905 -0.491526,-0.50838 -0.0636,-0.30761 -0.15761,-0.35055 -0.617435,-0.28468 -0.383736,0.0552 -0.751988,-0.0213 -1.259069,-0.26753 -0.551102,-0.26574 -0.862042,-0.32544 -1.345638,-0.25735 -1.504574,0.21117 -1.552698,0.1952 -1.552698,-0.52218 0,-0.36402 -0.114264,-0.77254 -0.253879,-0.90771 -0.217708,-0.21071 -0.457854,-0.007 -1.686048,1.45633 -0.787703,0.93623 -2.007811,2.28646 -2.711345,3.00071 -1.162636,1.18018 -1.335148,1.29478 -1.893656,1.25778 -0.919199,-0.0611 -0.882297,-0.4449 0.180363,-1.87621 0.994204,-1.33911 1.104798,-1.55729 0.660128,-1.30237 -0.450603,0.2581 -1.366827,0.19355 -1.503548,-0.10579 -0.173872,-0.38122 -0.379694,-0.33017 -0.931477,0.23144 -0.6985811,0.7111 -1.793632,1.27785 -2.2676076,1.1736 -0.5219858,-0.11442 -0.3402159,-0.59752 0.7172377,-1.90449 0.6931851,-0.85677 0.804491,-1.11504 0.6835327,-1.58611 -0.079435,-0.30942 -0.2239254,-0.56267 -0.3210213,-0.56267 -0.2846257,0 -1.0717579,0.55189 -1.6503144,1.15705 -0.6156476,0.64398 -1.2545253,0.82409 -1.8045192,0.50882 -0.344393,-0.19756 -0.3449155,-0.26064 -0.00632,-0.77494 0.6787537,-1.03179 0.692742,-1.09267 0.1095032,-0.477 -0.8258692,0.87184 -1.6425606,0.9842 -2.1857663,0.30069 -0.3616254,-0.45504 -0.3336804,-0.6948 0.2143993,-1.84008 0.2621398,-0.54777 0.4115342,-1.11354 0.3319711,-1.25723 -0.079435,-0.14365 0.089405,-0.67788 0.3754556,-1.18709 0.2860659,-0.50914 0.4551768,-0.96294 0.3758036,-1.00845 -0.07928,-0.0454 -0.381991,0.0138 -0.6725192,0.12958 -0.6866817,0.27591 -1.0498577,0.26827 -1.3263976,-0.0292 -0.1714833,-0.18343 0.069627,-0.62835 1.0231785,-1.88663 0.6861595,-0.9055 1.2511389,-1.74413 1.2555065,-1.86366 0.00473,-0.12356 -0.2413156,-0.25299 -0.5694102,-0.30032 -0.4233074,-0.0607 -0.5773696,-0.17144 -0.5773696,-0.41418 0,-0.18204 0.2598136,-0.69765 0.5773696,-1.14568 0.3175553,-0.44802 0.5773696,-0.86385 0.5773696,-0.92414 0,-0.27303 -0.6841975,-0.0663 -1.1827002,0.35709 -0.5456107,0.46352 -1.3387246,0.69657 -1.8064974,0.53087 -0.3736042,-0.13235 -0.2923163,-0.65286 0.217817,-1.39479 0.5833354,-0.84815 0.5827342,-0.85247 -0.1446323,-1.04241 -0.6017385,-0.15737 -0.6052196,-0.16622 -0.4474863,-1.20321 l 0.158984,-1.04485 -0.649527,-0.0425 c -0.5871012,-0.0385 -0.6564262,-0.0977 -0.72138363,-0.61533 -0.0791196,-0.63006 1.16510393,-3.6046 1.71255053,-4.09429 0.4053629,-0.36256 0.919025,-0.38355 1.2302508,-0.0503 0.1666409,0.17875 0.1044373,0.5022 -0.2228171,1.15804 -0.5823542,1.16741 -0.5801071,1.40796 0.0095,0.97739 0.2491168,-0.18203 0.5210679,-0.45017 0.6043336,-0.59581 0.083235,-0.14557 0.4959078,-0.57445 0.916968,-0.95289 0.706493,-0.635 0.7320646,-0.69419 0.3316072,-0.76703 -0.3414498,-0.0624 -0.4682158,-0.26245 -0.5947442,-0.93978 -0.1327638,-0.71038 -0.074847,-0.98947 0.3304679,-1.59682 0.2702104,-0.40478 0.7764669,-0.90123 1.1250375,-1.10324 0.3485707,-0.20203 0.7731756,-0.4672 0.9435681,-0.58935 0.4913504,-0.35199 1.0610612,-0.19756 1.1913559,0.3236 0.096369,0.3857 0.2489112,0.48796 0.9237883,0.61992 0.4445743,0.0865 1.1853263,0.16138 1.6461053,0.16554 0.460778,0.007 0.968222,0.0976 1.127647,0.20792 0.411788,0.28428 0.814526,0.0524 1.26785,-0.72986 0.50977,-0.8798 0.899877,-1.04798 1.580562,-0.68138 0.68029,0.36636 0.937335,0.35822 1.896729,-0.0611 0.860333,-0.37617 1.457073,-0.34693 1.65245,0.0817 0.1777,0.38952 0.520167,0.32107 0.679578,-0.13566 0.07674,-0.22014 0.22709,-0.43098 0.334076,-0.46886 0.106976,-0.0378 0.399507,-0.33453 0.650032,-0.65926 0.772556,-1.00118 1.734371,-0.64124 1.486931,0.55651 -0.125316,0.6067 -0.09367,0.66112 0.469339,0.80817 0.332053,0.0865 0.603721,0.20746 0.603721,0.26827 0,0.0607 0.597594,0.1148 1.32795,0.12023 0.730387,0.007 1.720032,0.0526 2.199201,0.10579 1.111079,0.12294 2.205734,-0.12508 2.387646,-0.5405 0.07437,-0.16955 0.292793,-0.38379 0.485433,-0.47547 0.289514,-0.13809 0.421425,-0.11626 0.760879,0.12421 0.409857,0.29012 0.411759,0.29012 0.986341,0.0328 0.327762,-0.14764 0.642299,-0.46311 0.730372,-0.73224 0.175749,-0.53705 0.693566,-0.72154 1.203966,-0.42896 0.288505,0.16536 0.304835,0.32651 0.09811,0.96734 -0.136388,0.42289 -0.199507,0.79663 -0.140362,0.83058 0.0592,0.0326 0.292757,-0.1341 0.519009,-0.37292 0.22625,-0.23916 0.712524,-0.63746 1.080582,-0.88519 0.805013,-0.54193 1.496725,-0.53801 1.954321,0.0123 l 0.318364,0.38192 0.566593,-0.41502 c 0.355384,-0.26025 0.773935,-0.41504 1.122826,-0.41504 0.575408,0 0.715454,0.16345 0.84813,0.9905 0.05604,0.34946 0.129587,0.29738 0.6407,-0.4521 0.64991,-0.95309 1.137568,-1.21844 1.725247,-0.93886 0.319404,0.15215 0.353265,0.34434 0.217532,1.23644 -0.198057,1.30166 0.180782,1.29735 0.60355,-0.007 0.397744,-1.22701 0.597475,-1.49112 1.127563,-1.49112 0.494057,0 0.816734,0.39455 0.622599,0.76127 -0.06746,0.1275 -0.176349,0.66364 -0.241953,1.19156 -0.155457,1.25094 0.290518,1.29951 1.216023,0.13236 0.736521,-0.9288 0.939693,-1.04934 2.200414,-1.30536 0.845339,-0.17163 0.911049,-0.16486 1.339588,0.13825 0.375144,0.26575 0.426371,0.44272 0.305802,1.0574 l -0.144829,0.73838 0.768308,-0.49697 c 1.125257,-0.72777 2.263356,-1.15791 3.064926,-1.15837 0.603647,-2.7e-4 0.789214,-0.0899 1.283086,-0.61899 0.643076,-0.68904 1.13673,-0.92007 1.700722,-0.79603 0.301423,0.0663 0.377816,0.27593 0.377816,1.03717 v 0.95404 l 0.534515,-0.28794 c 0.293994,-0.15824 0.745551,-0.28794 1.003476,-0.28794 0.257927,0 0.664547,-0.12368 0.9036,-0.27521 0.31112,-0.19686 0.610947,-0.25518 1.054925,-0.20415 0.390737,0.0445 0.72365,-2.5e-4 0.89964,-0.12182 0.359748,-0.24827 0.893311,-0.24572 1.381101,0.007 0.353941,0.1839 0.439937,0.1282 1.025708,-0.66203 0.468854,-0.63238 0.756933,-0.86237 1.080225,-0.86237 0.246137,0 0.557055,-0.14609 0.703924,-0.33091 0.248842,-0.31304 0.852231,-0.43618 1.189704,-0.24281 z m -5.946901,4.2336 c -0.193342,0.28865 0.06337,0.42308 0.33617,0.17568 0.273106,-0.24753 0.278922,-0.39334 0.01568,-0.39334 -0.113431,0 -0.271772,0.0977 -0.351855,0.21778 z m -3.691089,0.46606 c 0.20592,0.19123 0.554513,-0.0187 0.546674,-0.32725 -0.0068,-0.28064 -0.01824,-0.28174 -0.339027,-0.039 -0.182432,0.13828 -0.275865,0.30284 -0.207647,0.36628 z M 4.8498855,274.756 c -0.2697354,0.42143 -0.481761,0.89806 -0.4711748,1.05917 0.026585,0.40553 1.0510762,-0.86088 1.2624688,-1.56062 0.2169943,-0.71826 -0.1660083,-0.47552 -0.791294,0.50145 z M 115.35761,291.60537 c -0.0789,0.11776 -0.0401,0.17093 0.0908,0.12439 0.12555,-0.0445 0.2283,-0.13688 0.2283,-0.20532 0,-0.19026 -0.16553,-0.14835 -0.31907,0.0809 z m -92.250359,0.23555 c -0.0519,0.15354 0.03545,0.19612 0.288691,0.14069 0.426946,-0.0938 0.499153,-0.49676 0.07454,-0.41571 -0.158777,0.0291 -0.322208,0.15424 -0.363208,0.27557 z m 102.269269,0.88313 c -0.13598,0.14557 -0.19524,0.26466 -0.13172,0.26466 0.0636,0 0.22671,-0.11949 0.36267,-0.26466 0.13598,-0.14557 0.19524,-0.26462 0.13172,-0.26462 -0.0636,0 -0.22671,0.11948 -0.36267,0.26462 z"
       style="fill:#ff6600;stroke-width:0.17486228" />
  </g>
</svg>
