<?xml version="1.0" encoding="UTF-8" standalone="no"?>
<!-- Created with Inkscape (http://www.inkscape.org/) -->

<svg
   xmlns:dc="http://purl.org/dc/elements/1.1/"
   xmlns:cc="http://creativecommons.org/ns#"
   xmlns:rdf="http://www.w3.org/1999/02/22-rdf-syntax-ns#"
   xmlns:svg="http://www.w3.org/2000/svg"
   xmlns="http://www.w3.org/2000/svg"
   xmlns:sodipodi="http://sodipodi.sourceforge.net/DTD/sodipodi-0.dtd"
   xmlns:inkscape="http://www.inkscape.org/namespaces/inkscape"
   width="186mm"
   height="36mm"
   viewBox="0 0 186 36"
   version="1.1"
   id="svg8"
   inkscape:version="0.92.4 (5da689c313, 2019-01-14)"
   sodipodi:docname="21.svg">
  <defs
     id="defs2" />
  <sodipodi:namedview
     id="base"
     pagecolor="#ffffff"
     bordercolor="#666666"
     borderopacity="1.0"
     inkscape:pageopacity="0.0"
     inkscape:pageshadow="2"
     inkscape:zoom="1.979899"
     inkscape:cx="589.01087"
     inkscape:cy="19.995774"
     inkscape:document-units="mm"
     inkscape:current-layer="layer1"
     showgrid="false"
     inkscape:window-width="1920"
     inkscape:window-height="1001"
     inkscape:window-x="-9"
     inkscape:window-y="-9"
     inkscape:window-maximized="1"
     units="in" />
  <metadata
     id="metadata5">
    <rdf:RDF>
      <cc:Work
         rdf:about="">
        <dc:format>image/svg+xml</dc:format>
        <dc:type
           rdf:resource="http://purl.org/dc/dcmitype/StillImage" />
        <dc:title></dc:title>
      </cc:Work>
    </rdf:RDF>
  </metadata>
  <g
     inkscape:label="Capa 1"
     inkscape:groupmode="layer"
     id="layer1"
     transform="translate(0,-261)">
    <path
       inkscape:connector-curvature="0"
       id="path23"
       d="m 67.081328,264.42488 c 0.258659,0.13774 0.176326,0.69422 -0.200177,1.35385 -0.194234,0.34028 -0.353155,0.7924 -0.353155,1.00477 v 0.38605 l 0.482291,-0.25643 c 0.265257,-0.14105 0.66544,-0.45134 0.889289,-0.68967 0.301044,-0.32054 0.561327,-0.43336 0.999854,-0.43336 0.568354,0 0.590977,0.0311 0.547551,0.71852 -0.03864,0.61255 0.02259,0.73002 0.414999,0.79619 0.337874,0.0571 0.460307,0.19276 0.460307,0.51028 0,0.55412 0.28104,0.55007 0.784807,-0.0116 0.219107,-0.24429 0.661362,-0.49707 0.982797,-0.56207 0.321438,-0.0647 0.79768,-0.34026 1.05831,-0.61171 0.556129,-0.57934 1.04648,-0.7173 1.566757,-0.44076 0.35589,0.18916 0.348235,0.47284 -0.03227,1.19618 -0.07385,0.14038 0.138161,0.27478 0.646995,0.40963 0.416299,0.11012 0.8655,0.20059 0.998222,0.20059 0.132733,0 0.437129,0.0943 0.676447,0.20933 0.521102,0.25088 0.436008,0.29351 1.361578,-0.68762 0.807922,-0.85654 1.147499,-1.00063 1.872418,-0.79447 0.420313,0.11955 0.521361,0.06 1.002828,-0.5889 0.692724,-0.93398 1.024825,-1.13424 1.519209,-0.91621 0.202193,0.0891 0.367621,0.30009 0.367621,0.46885 v 0.30666 l 0.564993,-0.34909 c 0.509952,-0.31498 0.626129,-0.33438 1.192637,-0.19724 0.345215,0.0835 0.711277,0.27203 0.813479,0.41894 0.181839,0.26128 0.194729,0.2599 0.600918,-0.0696 0.2806,-0.22766 0.583116,-0.32399 0.933672,-0.29731 0.470417,0.0354 0.518582,0.11261 0.518582,0.83011 0,1.07201 0.342105,1.17161 1.798492,0.52359 1.796223,-0.79927 2.647392,-0.61879 2.18177,0.46259 -0.13132,0.30494 -0.147731,0.55449 -0.03648,0.55449 0.111253,0 0.790974,-0.62382 1.510514,-1.38633 1.13946,-1.20746 1.384477,-1.38632 1.899118,-1.38632 0.486846,0 0.590877,0.0609 0.590877,0.34744 0,0.19098 -0.115071,0.5455 -0.25572,0.78764 -0.34481,0.59367 -0.415358,2.01565 -0.100009,2.01565 0.135431,0 0.60252,-0.34443 1.037946,-0.76533 0.435434,-0.42096 0.94164,-0.79591 1.124904,-0.8333 0.523925,-0.10682 1.090423,0.22186 0.968143,0.5619 -0.08641,0.24015 -0.02304,0.29003 0.310395,0.2436 0.501212,-0.0696 0.782171,0.0179 1.118903,0.34408 0.22018,0.21425 0.36875,0.12005 1.20422,-0.76318 1.0308,-1.0896 1.49962,-1.37736 2.0582,-1.26348 0.53644,0.10946 0.46548,1.31418 -0.12424,2.10927 -0.26564,0.35816 -0.45239,0.6672 -0.415,0.6867 0.0374,0.0179 0.58971,-0.0349 1.22738,-0.12137 0.81594,-0.11013 1.35031,-0.28103 1.80383,-0.57644 0.46351,-0.30182 0.76245,-0.39554 1.06481,-0.33404 0.33762,0.0689 0.39241,0.17843 0.27832,0.55608 -0.0782,0.25884 -0.17197,0.57624 -0.20851,0.70566 -0.11065,0.392 1.19565,0.39281 1.87868,8.4e-4 0.44101,-0.25295 0.69656,-0.3018 1.24337,-0.23804 0.66333,0.0777 0.72546,0.0425 1.71419,-0.96733 1.05834,-1.08073 1.62911,-1.31932 2.08162,-0.86994 0.19756,0.19613 0.15509,0.41118 -0.18199,0.92133 -0.75667,1.1451 -0.25102,1.30984 1.05498,0.34374 0.6372,-0.47136 0.99125,-0.62687 1.36318,-0.59863 0.43234,0.0311 0.51055,0.13294 0.5608,0.72031 0.0321,0.37517 0.11169,0.71049 0.17685,0.74511 0.29644,0.15758 1.30345,-0.26159 1.8169,-0.7563 0.72809,-0.70146 1.53878,-0.76883 1.4408,-0.11955 -0.039,0.25848 0.0714,0.48087 0.28168,0.56709 0.19023,0.0779 0.37918,0.31186 0.41991,0.51995 0.0655,0.33438 0.21074,0.23494 1.25975,-0.86349 0.65215,-0.68291 1.32308,-1.27112 1.49098,-1.30713 0.16789,-0.036 0.49066,0.0241 0.71726,0.13278 0.38211,0.18357 0.4594,0.15312 1.06549,-0.4197 0.8192,-0.77448 1.75672,-1.19515 2.21408,-0.99341 0.56014,0.24706 0.35852,0.72344 -0.99325,2.34681 -1.51707,1.82191 -1.61715,2.38988 -0.21019,1.1929 3.11088,-2.64657 3.17298,-2.69078 3.72144,-2.64941 0.83681,0.0632 0.62815,0.6726 -0.62589,1.82807 -1.20752,1.11258 -1.24702,1.17379 -0.75796,1.17379 0.45937,0 1.1031,-0.46145 2.76901,-1.98498 1.42257,-1.30098 2.03385,-1.56739 2.52537,-1.10063 0.16506,0.15692 0.29664,0.12269 0.73031,-0.18919 0.29094,-0.20932 0.67444,-0.38029 0.85223,-0.38029 0.60228,0 0.60742,0.388 0.0153,1.16232 -0.32447,0.42441 -0.58995,0.79526 -0.58995,0.82415 0,0.0278 0.32837,-0.0948 0.7297,-0.27374 1.3627,-0.6094 2.39778,-0.57682 3.01824,0.0949 0.37037,0.40103 0.54769,0.41665 0.93989,0.0828 0.35503,-0.30217 0.96714,-0.32677 1.34246,-0.0539 0.44932,0.32641 1.42361,0.10699 1.89729,-0.42753 0.81493,-0.91966 1.83899,-1.66105 2.29428,-1.66105 0.67791,0 0.57239,0.46679 -0.40134,1.77542 -0.55596,0.74718 -0.801,1.24929 -0.70691,1.44851 0.0792,0.16769 0.22342,0.30493 0.32049,0.30493 0.0971,0 0.69392,-0.51461 1.32634,-1.1436 1.16179,-1.15553 1.61817,-1.40231 2.10997,-1.14097 0.20184,0.10748 0.10806,0.31879 -0.37166,0.83874 -0.35289,0.38241 -0.64161,0.72595 -0.64161,0.76348 0,0.0379 0.34682,0.0501 0.77072,0.0278 0.67174,-0.0347 0.866,-0.13476 1.51277,-0.78215 0.83498,-0.83563 1.31283,-1.04832 1.74025,-0.77465 0.22385,0.14353 0.14833,0.33995 -0.3638,0.94625 -0.68968,0.81671 -0.64106,1.07004 0.13385,0.69735 0.65515,-0.31497 1.66049,-0.088 1.66049,0.3751 0,0.40189 0.24375,0.40144 0.95617,-0.002 0.4218,-0.23839 0.71907,-0.30146 1.17549,-0.24812 0.4722,0.0551 0.76732,-0.0179 1.29971,-0.31083 0.40498,-0.22451 0.93153,-0.38206 1.2779,-0.38206 0.324,0 0.7905,-0.0967 1.03666,-0.21514 0.5764,-0.27723 1.21861,-0.0878 1.32592,0.39155 0.0749,0.33438 0.10191,0.3271 1.63212,-0.43362 2.3625,-1.17448 3.37214,-1.52928 4.10781,-1.44338 0.34263,0.0403 0.91429,0.0132 1.27034,-0.0582 0.49462,-0.10004 0.81213,-0.0855 1.34549,0.0609 0.38396,0.10566 0.69975,0.23285 0.70173,0.28308 0.002,0.0501 0.10383,0.17531 0.22616,0.27826 0.18103,0.15195 0.37723,0.0906 1.05178,-0.3278 1.01531,-0.63039 2.19233,-0.96305 2.79805,-0.79075 0.50827,0.14435 0.53768,0.56012 0.0704,0.99453 -0.1864,0.17327 -0.3427,0.42094 -0.34733,0.55033 -0.007,0.18805 0.099,0.21648 0.52518,0.14237 0.29347,-0.0511 0.87443,-0.086 1.29102,-0.0784 0.41659,0.007 0.82714,-0.0456 0.91233,-0.11889 0.0851,-0.0733 0.42426,-0.18739 0.75354,-0.25434 0.81346,-0.16437 1.25239,0.0517 1.25239,0.61661 v 0.44925 l 0.65215,-0.32538 c 1.20236,-0.59987 2.905,-0.57551 2.905,0.0417 0,0.1303 0.0996,0.23665 0.22117,0.23665 0.51389,0 0.46456,0.53305 -0.12414,1.34105 -0.40973,0.56239 -0.64706,1.15079 -0.67908,1.68367 -0.0271,0.45057 -0.13096,1.02757 -0.23091,1.2823 l -0.18167,0.46303 1.08251,0.0861 c 1.53361,0.12203 1.76999,0.31879 1.26059,1.04827 -0.22504,0.32226 -0.74809,1.10669 -1.16235,1.7431 l -0.75316,1.15716 0.56536,0.24327 c 0.56137,0.24151 0.56254,0.24704 0.16494,0.80051 -0.52539,0.73114 -0.50849,0.78129 0.182,0.54086 0.32034,-0.11144 0.71269,-0.16006 0.8719,-0.10764 0.18384,0.0602 0.65192,-0.12666 1.28257,-0.51326 0.69356,-0.42489 1.11008,-0.58454 1.38095,-0.52931 0.68671,0.13989 0.42402,0.57983 -1.41799,2.37401 -0.99324,0.96743 -1.74024,1.79388 -1.66002,1.83651 0.0803,0.0425 0.50469,-0.14303 0.94325,-0.41271 0.74021,-0.45511 0.84224,-0.47937 1.42287,-0.33889 0.344,0.0835 0.62625,0.25192 0.62721,0.37469 8.9e-4,0.12286 -0.71937,0.97221 -1.60071,1.88764 -1.53283,1.59203 -1.58292,1.672 -1.15273,1.83925 0.49831,0.19366 0.45713,0.47088 -0.18634,1.25401 -0.37223,0.45308 -0.3696,0.47264 0.0639,0.47264 0.73946,0 0.79372,0.37023 0.14104,0.96217 -0.48052,0.43576 -0.57456,0.64552 -0.449,1.00121 l 0.15891,0.45031 0.75229,-0.38747 c 1.35367,-0.69729 1.78358,-0.42583 0.91764,0.57941 -0.30934,0.3591 -0.64205,0.8981 -0.73941,1.19782 -0.16631,0.51198 -0.22376,0.54494 -0.95081,0.54494 -0.65101,0 -1.06827,0.15741 -2.62966,0.99244 -1.04318,0.55786 -1.99813,0.96732 -2.18073,0.93493 -0.21521,-0.038 0.17501,-0.33405 1.15604,-0.87717 1.35426,-0.74949 1.7779,-1.11324 1.29654,-1.11324 -0.10139,0 -0.43635,0.0938 -0.74432,0.20865 -0.43266,0.16121 -0.65593,0.17664 -0.9821,0.0683 -0.53742,-0.17844 -1.13225,0.0582 -2.59337,1.03132 -0.585,0.38964 -1.19816,0.70839 -1.36258,0.70839 -0.42972,0 -0.38228,-0.0893 0.41247,-0.77564 0.39129,-0.33785 0.71143,-0.67032 0.71143,-0.73863 0,-0.19545 -0.62069,-0.14485 -0.96949,0.0784 -0.23394,0.14981 -0.58423,0.1865 -1.34717,0.14055 -1.01114,-0.0607 -1.06021,-0.0456 -2.54502,0.77102 -0.8327,0.45803 -1.60014,0.78571 -1.70545,0.72812 -0.10529,-0.0575 0.44157,-0.41157 1.21525,-0.7867 1.03696,-0.50281 1.337,-0.71909 1.14152,-0.82297 -0.31548,-0.16768 -2.15753,0.43179 -2.92944,0.95333 -0.51324,0.34676 -1.39735,0.44346 -1.39735,0.15262 0,-0.0956 0.16005,-0.24428 0.35571,-0.33056 0.60199,-0.26544 0.40036,-0.37808 -0.67712,-0.37808 -0.93334,0 -1.18457,0.0741 -2.60757,0.76683 -1.69249,0.82422 -2.44275,0.95061 -1.46598,0.24707 1.13672,-0.81886 0.73182,-0.83389 -2.08159,-0.0772 -2.08163,0.55987 -3.48344,0.70505 -3.48344,0.3608 0,-0.0969 0.26678,-0.38522 0.59285,-0.64026 0.32608,-0.25503 0.59286,-0.53555 0.59286,-0.62343 0,-0.35725 -0.47617,-0.11641 -1.24259,0.62789 -0.88993,0.86447 -1.56816,1.08225 -3.41221,1.09566 -0.87108,0.007 -1.0118,-0.0349 -1.27564,-0.37338 -0.32516,-0.4172 -0.24069,-0.52396 2.23537,-2.8255 0.59198,-0.55026 1.01607,-1.03232 0.94242,-1.07128 -0.22562,-0.11955 -0.93945,0.43563 -2.81206,2.18612 -0.98733,0.92293 -2.00653,1.77969 -2.26492,1.90399 -0.29927,0.14369 -0.83569,0.2249 -1.47793,0.22321 -0.64435,-0.002 -1.3676,0.10764 -2.00423,0.30392 -0.99238,0.3056 -0.99721,0.3056 -1.29676,0.0511 -0.21359,-0.18202 -0.45739,-0.23495 -0.84178,-0.18359 -0.71562,0.0954 -0.7044,-0.1298 0.0517,-1.03853 0.68736,-0.82597 0.68019,-0.80711 0.30643,-0.80711 -0.15754,0 -0.68794,0.20866 -1.17869,0.46306 -0.78091,0.40526 -0.96193,0.44619 -1.4506,0.32781 -0.51527,-0.12468 -0.64578,-0.0727 -1.69094,0.67801 -0.73515,0.52788 -1.26981,0.79859 -1.52367,0.77146 -0.41152,-0.0442 -0.4933,-0.48335 -0.16479,-0.88552 0.1444,-0.17664 0.0625,-0.2203 -0.41299,-0.2203 -0.32833,0 -0.92465,-0.16452 -1.33562,-0.36858 -0.44576,-0.22141 -1.06331,-0.38498 -1.54534,-0.40958 -0.76598,-0.0392 -0.85837,0.007 -2.00985,0.93966 -1.23243,1.00141 -1.75328,1.23686 -2.2049,0.99683 -0.18163,-0.0967 -0.0336,-0.31845 0.51565,-0.77348 0.57755,-0.47829 0.73186,-0.71985 0.61626,-0.96459 -0.11491,-0.24327 0.0346,-0.48288 0.58669,-0.94013 0.40749,-0.33752 0.67256,-0.67234 0.58905,-0.74414 -0.28422,-0.24466 -0.74655,-0.13162 -1.14208,0.27893 -0.97139,1.00811 -3.68619,3.18588 -4.0141,3.21999 -0.63507,0.0663 -0.65278,-0.32122 -0.0432,-0.94488 l 0.59146,-0.60522 -0.66294,0.44075 c -1.46086,0.97113 -1.89051,1.17728 -2.28589,1.09662 -0.21602,-0.0442 -0.39277,-0.1809 -0.39277,-0.3046 0,-0.12335 0.90707,-1.07357 2.01572,-2.11128 1.98282,-1.85588 2.26476,-2.20921 1.76298,-2.20921 -0.64231,0 -1.22662,0.33646 -2.56621,1.4784 -2.37401,2.02344 -4.12288,3.24317 -4.7145,3.28806 -0.68128,0.0518 -0.8919,-0.23495 -0.55258,-0.75232 0.33147,-0.50537 0.1979,-0.57511 -0.58145,-0.3039 -0.65506,0.228 -1.2933,0.1867 -1.29137,-0.083 7.1e-4,-0.0886 0.37797,-0.55172 0.83851,-1.02871 0.46054,-0.47694 0.78275,-0.89616 0.716,-0.93165 -0.24855,-0.13211 -0.88125,0.28448 -1.60386,1.05624 -0.72953,0.779 -1.17883,1.01087 -1.65554,0.8543 -0.2355,-0.0777 -0.18086,-0.37924 0.15707,-0.86785 0.1074,-0.15511 -0.0696,-0.0949 -0.46099,0.15758 -0.98486,0.63499 -1.41864,0.55639 -1.32207,-0.2398 0.0223,-0.18357 -0.0731,-0.37143 -0.21202,-0.41703 -0.13889,-0.0456 -0.25255,-0.19299 -0.25255,-0.32744 0,-0.43937 -0.40367,-0.25953 -1.38268,0.61632 -1.26831,1.13462 -1.61829,1.28967 -2.13754,0.94708 -0.53432,-0.35262 -1.1301,-0.44376 -1.47148,-0.22524 -0.15593,0.0999 -0.48388,0.18155 -0.72876,0.18155 -0.73162,0 -0.53597,-0.45589 0.74046,-1.72554 0.65215,-0.64864 1.18572,-1.20631 1.18572,-1.23927 0,-0.0954 -1.27812,-0.0656 -1.56033,0.0367 -0.14083,0.0513 -1.01286,0.68919 -1.93786,1.4184 -1.74954,1.37914 -2.72719,2.01401 -3.10145,2.01401 -0.12069,0 -0.3415,-0.0784 -0.49071,-0.17373 -0.35652,-0.22836 -0.16398,-0.48398 1.74962,-2.32346 0.85054,-0.81759 1.54644,-1.55432 1.54644,-1.63719 0,-0.3448 -0.4264,-0.0835 -1.65997,1.01722 -1.59001,1.41864 -3.29651,2.77043 -3.65075,2.892 -0.14417,0.0494 -0.40175,0.0179 -0.57239,-0.0747 -0.25557,-0.13592 -0.21904,-0.24707 0.20726,-0.63097 0.28463,-0.25643 0.44981,-0.50209 0.36706,-0.54609 -0.20727,-0.11013 -1.5013,0.55748 -2.191063,1.13045 -0.554686,0.46077 -1.100561,0.5981 -1.389623,0.34949 -0.212823,-0.1829 0.292496,-1.11747 0.974355,-1.80184 0.329699,-0.33092 0.562264,-0.66093 0.516822,-0.73335 -0.04545,-0.0726 -0.933873,0.38206 -1.974303,1.01006 -1.040419,0.62797 -2.019767,1.14235 -2.176322,1.143 -0.156553,4.4e-4 -0.388657,-0.0979 -0.515786,-0.21828 -0.127127,-0.12088 -0.275985,-0.19163 -0.330785,-0.15759 -0.05476,0.0347 -0.531138,0.40221 -1.058514,0.81815 -1.350724,1.06519 -2.078188,1.40673 -2.551536,1.19797 -0.489265,-0.21582 -0.331787,-0.46152 1.171511,-1.82811 0.686252,-0.62388 1.628762,-1.53132 2.094463,-2.01651 1.159466,-1.20804 1.36424,-2.6684 0.21926,-1.56371 -0.222181,0.21446 -1.233821,1.12898 -2.248078,2.03248 -2.858891,2.54667 -3.462145,2.93712 -4.052979,2.62311 -0.390637,-0.20753 -0.504564,-0.16566 -1.357938,0.49973 -0.799571,0.62345 -1.465826,0.79834 -1.716885,0.45067 -0.07135,-0.0987 0.290701,-0.6419 0.804633,-1.20668 0.982754,-1.08002 1.142758,-1.42084 0.6167,-1.31354 -0.174748,0.0356 -0.462108,-0.0278 -0.638578,-0.14055 -0.277796,-0.17777 -0.12378,-0.40728 1.147715,-1.70946 1.574123,-1.61207 1.584305,-1.62542 1.243044,-1.62542 -0.12404,0 -0.624425,0.38283 -1.111954,0.85075 -2.307475,2.21445 -5.992016,5.19873 -6.41871,5.19873 -0.177062,0 -0.404667,-0.11889 -0.505767,-0.26406 -0.163008,-0.23425 -0.322889,-0.1627 -1.411546,0.63015 -0.675238,0.49184 -1.339422,0.89429 -1.475963,0.89429 -0.487178,0 -0.537853,-0.41811 -0.102739,-0.84751 0.414445,-0.40901 0.416783,-0.44406 0.03729,-0.55696 -0.598683,-0.1782 -0.519058,-0.37233 0.758118,-1.84997 1.891929,-2.18886 1.903257,-2.61013 0.02008,-0.74708 -0.7026,0.69509 -1.118111,0.97679 -1.440971,0.97679 -0.249527,0 -0.453693,-0.0569 -0.453693,-0.126 0,-0.22802 -0.74909,-0.13162 -1.466102,0.18918 -0.387512,0.17327 -0.852701,0.31496 -1.033743,0.31496 -0.181051,0 -0.443402,0.11376 -0.583008,0.2519 -0.139607,0.13857 -0.413494,0.25193 -0.608643,0.25193 -0.712046,0 -0.640532,-0.41381 0.217368,-1.25799 0.476046,-0.46838 0.865554,-0.87824 0.865554,-0.91074 0,-0.0311 -0.662437,-0.0625 -1.472072,-0.0665 -1.199744,-0.007 -1.546787,-0.0564 -1.875877,-0.27233 -0.559204,-0.367 -0.832391,-0.33405 -1.452014,0.17574 -0.609825,0.50143 -1.230988,0.65795 -1.732847,0.43659 -0.488162,-0.21514 -0.431069,-0.49397 0.267282,-1.30465 1.002356,-1.1636 0.542408,-1.05151 -0.831523,0.20282 -0.704956,0.64347 -1.486143,1.35428 -1.735973,1.57959 -0.502155,0.45283 -0.983936,0.52306 -1.330451,0.19411 -0.196313,-0.18651 -0.377436,-0.1265 -1.338051,0.44109 -0.724594,0.42831 -1.299759,0.65672 -1.653731,0.65672 -0.341593,0 -0.777368,0.1637 -1.175813,0.44111 -0.734338,0.5117 -1.147715,0.55172 -1.662632,0.16122 -0.523898,-0.39754 -0.465094,-0.69587 0.342274,-1.73639 0.391284,-0.50429 0.711428,-0.96583 0.711428,-1.0256 0,-0.30075 -0.792273,-0.0311 -1.897145,0.64752 -0.849376,0.52101 -1.404716,0.75616 -1.786061,0.75616 -0.609017,0 -0.932398,-0.33127 -0.673444,-0.68995 0.131937,-0.18268 0.06884,-0.2062 -0.361713,-0.13344 -0.295901,0.0499 -0.665603,0.0241 -0.854503,-0.0589 -0.269855,-0.11889 -0.40169,-0.0595 -0.695575,0.31431 -0.470361,0.59824 -1.166652,0.57064 -1.278527,-0.0506 -0.06857,-0.38093 -0.785193,-0.87761 -1.283421,-0.88962 -0.09608,-0.002 -0.330739,0.19411 -0.521469,0.43693 -0.265328,0.3375 -0.486183,0.44111 -0.940153,0.44111 -0.482865,0 -0.75151,0.15047 -1.442736,0.80722 -0.963743,0.91588 -1.381629,1.1436 -1.90333,1.03716 -0.613644,-0.12517 -0.673345,-0.44443 -0.228948,-1.22445 0.234235,-0.41115 0.36469,-0.78009 0.289895,-0.81987 -0.07484,-0.0399 -0.390728,0.0179 -0.702062,0.12467 -0.516137,0.17978 -0.615858,0.17844 -1.130963,-0.0132 -0.531464,-0.1979 -0.579909,-0.19656 -0.818097,0.0179 -0.867167,0.78513 -2.609353,2.16343 -2.833192,2.24143 -1.108189,0.38618 -1.620623,-0.24395 -0.850659,-1.04602 0.497585,-0.51839 0.501518,-0.54868 0.09206,-0.70778 -0.653716,-0.25402 -0.866513,-0.21135 -1.997109,0.40091 -1.436892,0.77812 -2.608574,0.73647 -2.608574,-0.0929 0,-0.32467 -0.04566,-0.34443 -0.501945,-0.21448 -0.391473,0.11128 -0.575583,0.10384 -0.836451,-0.0349 -0.287889,-0.15312 -0.283584,-0.24254 0.03087,-0.64243 l 0.365328,-0.46468 h -0.937743 c -0.515773,0 -1.003712,-0.0569 -1.084321,-0.126 -0.255408,-0.21939 -0.532297,-0.1384 -1.01723,0.29837 -0.619113,0.55767 -1.877454,0.71058 -3.065991,0.37259 -0.788177,-0.22387 -0.814987,-0.22387 -1.065781,0.0132 -0.141524,0.13394 -0.609218,0.44548 -1.039378,0.69316 -0.650813,0.37473 -0.853885,0.42703 -1.209725,0.31153 -0.235196,-0.0766 -0.462316,-0.2942 -0.504708,-0.48394 -0.06532,-0.29281 -0.161834,-0.3337 -0.633996,-0.27098 -0.394027,0.0526 -0.772159,-0.0202 -1.292839,-0.25468 -0.565883,-0.25295 -0.885164,-0.3098 -1.381731,-0.24498 -1.54493,0.20103 -1.594342,0.18582 -1.594342,-0.49705 0,-0.34653 -0.117313,-0.73541 -0.260689,-0.86407 -0.223545,-0.20059 -0.470131,-0.007 -1.731266,1.3863 -0.80883,0.8912 -2.061663,2.17652 -2.784066,2.85642 -1.193819,1.12343 -1.370959,1.23253 -1.944446,1.19729 -0.943853,-0.0582 -0.905961,-0.4235 0.1852,-1.78598 1.02087,-1.27472 1.13443,-1.48242 0.677834,-1.23975 -0.462689,0.24568 -1.403488,0.18424 -1.543874,-0.1007 -0.178537,-0.36288 -0.38988,-0.3143 -0.956462,0.2203 -0.7173177,0.67691 -1.8417391,1.21642 -2.3284273,1.11718 -0.5359858,-0.10897 -0.3493405,-0.5688 0.7364748,-1.81292 0.7117772,-0.81557 0.8260684,-1.06143 0.7018657,-1.50985 -0.081567,-0.29453 -0.2299311,-0.5356 -0.3296312,-0.5356 -0.2922599,0 -1.1005038,0.52535 -1.6945777,1.1014 -0.63216,0.61302 -1.2881728,0.78447 -1.8529182,0.48436 -0.3536301,-0.18806 -0.3541663,-0.2481 -0.0065,-0.73768 0.6969587,-0.98218 0.7113223,-1.04012 0.1124389,-0.45406 -0.84802,0.82991 -1.6866159,0.93688 -2.2443908,0.28623 -0.3713246,-0.43316 -0.3426299,-0.6614 0.2201495,-1.7516 0.2691709,-0.52144 0.422572,-1.06 0.3408751,-1.19678 -0.081567,-0.13674 0.091803,-0.64528 0.3855256,-1.13 0.2937385,-0.48467 0.4673851,-0.91665 0.3858832,-0.95997 -0.081405,-0.0432 -0.3922363,0.0132 -0.6905568,0.12335 -0.7050991,0.26265 -1.0780161,0.25537 -1.361973,-0.0278 -0.1760839,-0.17461 0.071493,-0.59813 1.0506212,-1.79591 0.7045629,-0.86197 1.2846956,-1.66026 1.2891802,-1.77406 0.00487,-0.11757 -0.247788,-0.24082 -0.5846823,-0.28586 -0.4346608,-0.0577 -0.5928552,-0.16321 -0.5928552,-0.39427 0,-0.17329 0.2667824,-0.66411 0.5928552,-1.0906 0.3260728,-0.42648 0.5928552,-0.82232 0.5928552,-0.87971 0,-0.2599 -0.7025481,-0.0632 -1.2144213,0.33993 -0.5602446,0.44123 -1.3746305,0.66307 -1.8549493,0.50535 -0.3836246,-0.126 -0.3001566,-0.62148 0.2236592,-1.32773 C 2.8616075,279.0316 2.8609901,279.0275 2.1141164,278.8467 1.4962386,278.69689 1.492664,278.68846 1.654628,277.70134 l 0.1632476,-0.99462 -0.6669479,-0.0405 c -0.60284791,-0.0367 -0.67403213,-0.0931 -0.7407318,-0.58576 -0.081242,-0.59975 1.1963531,-3.43127 1.7584826,-3.89742 0.4162351,-0.34512 0.9436743,-0.3651 1.2632477,-0.0479 0.1711119,0.17015 0.1072394,0.47805 -0.2287936,1.10237 -0.5979735,1.11126 -0.5956662,1.34024 0.00975,0.93038 0.2557985,-0.17328 0.5350434,-0.42853 0.6205425,-0.56716 0.085466,-0.13857 0.5092084,-0.54683 0.941562,-0.90708 0.7254421,-0.60446 0.7516995,-0.6608 0.3405013,-0.73015 -0.3506078,-0.0594 -0.4807737,-0.24983 -0.6106959,-0.89459 -0.136324,-0.67621 -0.076855,-0.94188 0.3393315,-1.52002 0.2774576,-0.38533 0.7972925,-0.85791 1.1552121,-1.05021 0.3579197,-0.19231 0.7939129,-0.44473 0.9688756,-0.56101 0.5045289,-0.33507 1.0895199,-0.18806 1.2233092,0.30805 0.098953,0.36714 0.2555873,0.46449 0.9485651,0.59011 0.4564986,0.0823 1.217118,0.15362 1.690255,0.15758 0.473137,0.007 0.994191,0.0929 1.157893,0.19792 0.422832,0.27061 0.83637,0.0499 1.301854,-0.69477 0.523442,-0.83749 0.924014,-0.99759 1.622955,-0.64861 0.698535,0.34873 0.962474,0.34099 1.947598,-0.0582 0.883409,-0.35808 1.496153,-0.33024 1.696772,0.0777 0.182469,0.3708 0.534117,0.30564 0.697803,-0.12914 0.0788,-0.20955 0.233181,-0.41026 0.343036,-0.44632 0.109839,-0.036 0.410224,-0.31844 0.667468,-0.62755 0.793279,-0.95304 1.780889,-0.6104 1.526813,0.52974 -0.128687,0.57753 -0.09619,0.62934 0.481927,0.76932 0.340957,0.0823 0.619912,0.19747 0.619912,0.25538 0,0.0577 0.613621,0.10929 1.363566,0.11442 0.749977,0.007 1.766168,0.0501 2.258186,0.1007 1.140881,0.11707 2.264896,-0.11905 2.451687,-0.51451 0.07637,-0.16139 0.300644,-0.36533 0.498452,-0.45259 0.297281,-0.13146 0.432728,-0.11062 0.781288,0.11823 0.42085,0.27617 0.4228,0.27617 1.012795,0.0311 0.336553,-0.14055 0.659523,-0.44084 0.749961,-0.69703 0.180455,-0.51122 0.712167,-0.68684 1.236259,-0.40833 0.296241,0.15741 0.313009,0.31081 0.10074,0.92083 -0.140061,0.40255 -0.204859,0.75831 -0.144123,0.79063 0.06077,0.0311 0.300612,-0.12765 0.532931,-0.35499 0.23232,-0.22766 0.731633,-0.6068 1.109567,-0.84262 0.826602,-0.51587 1.536866,-0.51215 2.006736,0.0116 l 0.326903,0.36356 0.58179,-0.39506 c 0.364914,-0.24775 0.794693,-0.39509 1.152939,-0.39509 0.590842,0 0.734643,0.15559 0.870878,0.94287 0.05754,0.33266 0.133074,0.28309 0.657885,-0.43035 0.667341,-0.90727 1.168079,-1.15986 1.771522,-0.89373 0.32797,0.14485 0.362737,0.3278 0.223365,1.17698 -0.203369,1.23908 0.185629,1.23498 0.619738,-0.007 0.408411,-1.168 0.613499,-1.41942 1.157805,-1.41942 0.507309,0 0.83864,0.37558 0.639297,0.72467 -0.06928,0.12137 -0.181069,0.63173 -0.248443,1.13426 -0.159625,1.19079 0.298312,1.23704 1.248637,0.126 0.756278,-0.88413 0.964898,-0.99887 2.259434,-1.2426 0.86801,-0.16337 0.935483,-0.15692 1.375516,0.13162 0.385207,0.25296 0.437809,0.42142 0.314005,1.00654 l -0.148706,0.70288 0.788914,-0.47307 c 1.155439,-0.69278 2.324064,-1.10224 3.147135,-1.10267 0.619837,-2.5e-4 0.810379,-0.0855 1.317498,-0.58924 0.660322,-0.65589 1.167218,-0.87582 1.746337,-0.75773 0.309506,0.0632 0.387948,0.26266 0.387948,0.98729 v 0.90815 l 0.548851,-0.27409 c 0.301879,-0.15063 0.765547,-0.27409 1.030391,-0.27409 0.264844,0 0.682371,-0.11773 0.927837,-0.26198 0.319464,-0.18738 0.627331,-0.24291 1.083219,-0.19432 0.401213,0.0425 0.743058,-2.5e-4 0.923768,-0.11592 0.369396,-0.23634 0.917269,-0.23391 1.418142,0.007 0.363436,0.17506 0.451738,0.12203 1.053219,-0.6302 0.481432,-0.60198 0.777234,-0.82091 1.1092,-0.82091 0.252736,0 0.571994,-0.13906 0.722804,-0.31499 0.255514,-0.298 0.875089,-0.41521 1.221613,-0.23114 z m -6.106402,4.03002 c -0.198527,0.27478 0.06507,0.40275 0.345188,0.16724 0.280431,-0.23563 0.286401,-0.37443 0.01609,-0.37443 -0.116469,0 -0.279058,0.0931 -0.361293,0.20731 z m -3.790087,0.44367 c 0.211443,0.18203 0.569386,-0.0179 0.561336,-0.31152 -0.0071,-0.26716 -0.01873,-0.2682 -0.348118,-0.0372 -0.187325,0.13162 -0.283264,0.28827 -0.213218,0.34866 z m -52.7589794,6.44318 c -0.2769701,0.40116 -0.4946824,0.85488 -0.4838122,1.00824 0.027297,0.38602 1.0792672,-0.81949 1.2963295,-1.48558 0.2228142,-0.68372 -0.1704619,-0.45265 -0.8125173,0.47734 z m 113.4716504,16.0392 c -0.081,0.11211 -0.0412,0.16271 0.0932,0.1184 0.12893,-0.0423 0.23442,-0.1303 0.23442,-0.19545 0,-0.18111 -0.16998,-0.14121 -0.32762,0.077 z m -94.724605,0.2242 c -0.05329,0.14618 0.0364,0.1867 0.296435,0.13394 0.438398,-0.0893 0.51254,-0.47288 0.07653,-0.39572 -0.163036,0.0278 -0.330849,0.14683 -0.372949,0.26231 z m 105.012235,0.84068 c -0.13961,0.13856 -0.20048,0.25193 -0.13526,0.25193 0.0653,0 0.2328,-0.11377 0.3724,-0.25193 0.13961,-0.13857 0.20048,-0.2519 0.13526,-0.2519 -0.0653,0 -0.2328,0.11376 -0.3724,0.2519 z"
       style="fill:#ff6600;stroke-width:0.17287925" />
  </g>
</svg>
