<?xml version="1.0" encoding="UTF-8" standalone="no"?>
<!-- Created with Inkscape (http://www.inkscape.org/) -->

<svg
   xmlns:dc="http://purl.org/dc/elements/1.1/"
   xmlns:cc="http://creativecommons.org/ns#"
   xmlns:rdf="http://www.w3.org/1999/02/22-rdf-syntax-ns#"
   xmlns:svg="http://www.w3.org/2000/svg"
   xmlns="http://www.w3.org/2000/svg"
   xmlns:sodipodi="http://sodipodi.sourceforge.net/DTD/sodipodi-0.dtd"
   xmlns:inkscape="http://www.inkscape.org/namespaces/inkscape"
   width="309mm"
   height="67mm"
   viewBox="0 0 309 67"
   version="1.1"
   id="svg8"
   inkscape:version="0.92.4 (5da689c313, 2019-01-14)"
   sodipodi:docname="naranjagrande.svg">
  <defs
     id="defs2" />
  <sodipodi:namedview
     id="base"
     pagecolor="#ffffff"
     bordercolor="#666666"
     borderopacity="1.0"
     inkscape:pageopacity="0.0"
     inkscape:pageshadow="2"
     inkscape:zoom="0.70000001"
     inkscape:cx="1008.2687"
     inkscape:cy="22.924195"
     inkscape:document-units="mm"
     inkscape:current-layer="layer1"
     showgrid="false"
     inkscape:window-width="1920"
     inkscape:window-height="1001"
     inkscape:window-x="-9"
     inkscape:window-y="-9"
     inkscape:window-maximized="1"
     units="in" />
  <metadata
     id="metadata5">
    <rdf:RDF>
      <cc:Work
         rdf:about="">
        <dc:format>image/svg+xml</dc:format>
        <dc:type
           rdf:resource="http://purl.org/dc/dcmitype/StillImage" />
        <dc:title></dc:title>
      </cc:Work>
    </rdf:RDF>
  </metadata>
  <g
     inkscape:label="Capa 1"
     inkscape:groupmode="layer"
     id="layer1"
     transform="translate(0,-230)">
    <path
       inkscape:connector-curvature="0"
       id="path23"
       d="m 115.18978,230.24526 c 0.32419,0.19761 0.22097,0.9959 -0.25088,1.94218 -0.24344,0.48816 -0.4426,1.13675 -0.4426,1.4414 v 0.55383 l 0.60444,-0.36787 c 0.33244,-0.20233 0.83399,-0.64747 1.11454,-0.98939 0.3773,-0.45982 0.7035,-0.62165 1.2531,-0.62165 0.71232,0 0.74066,0.0444 0.68624,1.03074 -0.0484,0.87875 0.0284,1.04727 0.52012,1.14219 0.42345,0.082 0.57689,0.27655 0.57689,0.73204 0,0.79491 0.35224,0.7891 0.98358,-0.0165 0.27462,-0.35049 0.82889,-0.71311 1.23173,-0.80634 0.40287,-0.0928 0.99974,-0.48814 1.32639,-0.87755 0.69698,-0.8311 1.31154,-1.02902 1.96359,-0.63231 0.44603,0.27136 0.43644,0.67832 -0.0404,1.71599 -0.0926,0.20141 0.17318,0.3942 0.81086,0.58767 0.52175,0.15797 1.08473,0.28775 1.25107,0.28775 0.16635,0 0.54783,0.13529 0.84777,0.3003 0.65309,0.35991 0.54644,0.42106 1.70645,-0.98643 1.01255,-1.22877 1.43813,-1.43546 2.34666,-1.13975 0.52676,0.17153 0.65341,0.0861 1.25681,-0.8448 0.86819,-1.33985 1.2844,-1.62714 1.90401,-1.31437 0.25341,0.12781 0.46073,0.43049 0.46073,0.6726 v 0.43993 l 0.70809,-0.50078 c 0.63913,-0.45188 0.78472,-0.4797 1.49471,-0.28297 0.43265,0.11979 0.89145,0.39026 1.01952,0.601 0.2279,0.37482 0.24405,0.37285 0.75313,-0.0999 0.35167,-0.32657 0.73081,-0.46478 1.17014,-0.4265 0.58958,0.0508 0.64993,0.16155 0.64993,1.19085 0,1.53788 0.42877,1.68075 2.25403,0.75111 2.25117,-1.14658 3.31793,-0.88766 2.73437,0.66365 -0.16459,0.43744 -0.18516,0.79545 -0.0457,0.79545 0.13944,0 0.99132,-0.89492 1.8931,-1.9888 1.42807,-1.73219 1.73515,-1.98875 2.38013,-1.98875 0.61017,0 0.74054,0.0874 0.74054,0.49839 0,0.27399 -0.14422,0.78258 -0.3205,1.12996 -0.43213,0.85165 -0.52057,2.89156 -0.12534,2.89156 0.16974,0 0.75512,-0.49409 1.30086,-1.0979 0.54571,-0.60389 1.18014,-1.14179 1.40981,-1.19544 0.65663,-0.15323 1.3666,0.31829 1.21335,0.8061 -0.10828,0.34451 -0.0289,0.41607 0.38902,0.34945 0.62815,-0.0998 0.98028,0.0258 1.4023,0.49361 0.27595,0.30736 0.46214,0.17219 1.50923,-1.09483 1.29189,-1.5631 1.87944,-1.97591 2.57951,-1.81256 0.67231,0.15703 0.58336,1.8853 -0.15571,3.0259 -0.33293,0.51379 -0.56699,0.95716 -0.52013,0.9851 0.0469,0.0258 0.73908,-0.0502 1.53826,-0.17409 1.0226,-0.15801 1.69232,-0.40317 2.26071,-0.82695 0.58091,-0.43299 0.95556,-0.56741 1.3345,-0.47921 0.42315,0.0988 0.49181,0.25598 0.34883,0.79775 -0.098,0.37132 -0.21553,0.82666 -0.26135,1.01231 -0.13866,0.56234 1.4985,0.56351 2.35453,0.002 0.55271,-0.36287 0.87298,-0.43296 1.55829,-0.34149 0.83135,0.1115 0.90921,0.061 2.14836,-1.38769 1.3264,-1.55038 2.04173,-1.89264 2.60887,-1.24797 0.24759,0.28134 0.19437,0.58986 -0.2281,1.3217 -0.94832,1.64273 -0.31459,1.87905 1.3222,0.49313 0.7986,-0.67622 1.24231,-0.89929 1.70844,-0.85879 0.54185,0.0445 0.63987,0.19072 0.70283,1.03334 0.0403,0.53821 0.14,1.01925 0.22166,1.06892 0.37152,0.22605 1.63358,-0.37531 2.27709,-1.08498 0.9125,-1.00629 1.92851,-1.10295 1.80573,-0.17149 -0.0489,0.3708 0.0894,0.68982 0.35301,0.81353 0.23842,0.11173 0.47522,0.44737 0.52627,0.74591 0.0821,0.47968 0.26412,0.337 1.57882,-1.23874 0.81733,-0.97969 1.65818,-1.82354 1.86863,-1.87517 0.2104,-0.0518 0.61493,0.0346 0.89892,0.19049 0.47889,0.26333 0.57575,0.21965 1.33536,-0.60213 1.0267,-1.111 2.20166,-1.7145 2.77486,-1.4251 0.70201,0.35444 0.44934,1.03784 -1.24481,3.36667 -1.90132,2.61365 -2.02676,3.42843 -0.26343,1.71129 3.89881,-3.7967 3.97664,-3.86011 4.664,-3.80074 1.04876,0.0907 0.78726,0.9649 -0.78441,2.62247 -1.51336,1.59609 -1.56287,1.68389 -0.94995,1.68389 0.57575,0 1.38251,-0.66198 3.47036,-2.84759 1.7829,-1.86635 2.54899,-2.24852 3.165,-1.57894 0.20687,0.22513 0.37178,0.17603 0.91529,-0.27139 0.36462,-0.30028 0.84525,-0.54557 1.06809,-0.54557 0.75483,0 0.76125,0.55663 0.0193,1.66744 -0.40665,0.60886 -0.73939,1.14085 -0.73939,1.18228 0,0.0399 0.41155,-0.13599 0.91453,-0.39267 1.70784,-0.87423 3.0051,-0.8275 3.78271,0.13613 0.46418,0.57528 0.6864,0.59773 1.17795,0.11877 0.44495,-0.43347 1.21208,-0.46878 1.68248,-0.0773 0.56312,0.46825 1.78416,0.15346 2.37784,-0.61333 1.02132,-1.31929 2.30477,-2.38289 2.87536,-2.38289 0.84963,0 0.71738,0.66964 -0.50299,2.54694 -0.69676,1.07191 -1.00388,1.79221 -0.88594,2.07802 0.0992,0.24056 0.28001,0.43743 0.40166,0.43743 0.12168,0 0.86968,-0.73824 1.66228,-1.64057 1.45604,-1.65769 2.028,-2.01171 2.64439,-1.63682 0.25294,0.15423 0.13542,0.45734 -0.46581,1.20325 -0.44226,0.54859 -0.80411,1.04142 -0.80411,1.09525 0,0.0544 0.43467,0.0719 0.96592,0.0399 0.84189,-0.0496 1.08536,-0.19334 1.89593,-1.12204 1.04647,-1.19878 1.64535,-1.5039 2.18103,-1.1113 0.28054,0.2059 0.1859,0.48768 -0.45595,1.35745 -0.86436,1.17164 -0.80344,1.53505 0.16776,1.00039 0.82108,-0.45184 2.08106,-0.12623 2.08106,0.53811 0,0.57656 0.30548,0.57589 1.19834,-0.004 0.52864,-0.34199 0.9012,-0.43247 1.47322,-0.35595 0.5918,0.0789 0.96167,-0.0258 1.6289,-0.44591 0.50756,-0.32208 1.16748,-0.54808 1.60158,-0.54808 0.40606,0 0.99072,-0.13871 1.29923,-0.30864 0.72239,-0.39771 1.52726,-0.12596 1.66173,0.5617 0.0939,0.4797 0.12773,0.46926 2.04552,-0.62205 2.96088,-1.6849 4.22625,-2.19385 5.14825,-2.07062 0.42939,0.0578 1.14587,0.0189 1.59208,-0.0835 0.6199,-0.14349 1.01784,-0.12265 1.68628,0.0873 0.48122,0.15159 0.877,0.33404 0.87946,0.40609 0.003,0.0719 0.13013,0.25148 0.28346,0.3992 0.22687,0.21796 0.47278,0.12994 1.31816,-0.47027 1.27248,-0.90433 2.74762,-1.38155 3.50675,-1.13438 0.637,0.20707 0.67387,0.80352 0.0882,1.4267 -0.23361,0.24858 -0.42949,0.60387 -0.43529,0.78951 -0.009,0.26977 0.12408,0.31055 0.65819,0.20423 0.36781,-0.0734 1.09591,-0.12337 1.61801,-0.11246 0.52212,0.0101 1.03664,-0.0654 1.1434,-0.17055 0.10666,-0.10517 0.53172,-0.26883 0.9444,-0.36488 1.0195,-0.23579 1.56961,0.0741 1.56961,0.88457 v 0.64446 l 0.81732,-0.46676 c 1.50688,-0.86056 3.64079,-0.82561 3.64079,0.0597 0,0.18692 0.12482,0.33948 0.2772,0.33948 0.64403,0 0.5822,0.7647 -0.1556,1.92382 -0.51351,0.80681 -0.81094,1.6509 -0.85108,2.41533 -0.0339,0.64639 -0.16413,1.47415 -0.28939,1.83957 l -0.22769,0.66424 1.3567,0.12353 c 1.92203,0.17504 2.21828,0.4573 1.57987,1.5038 -0.28204,0.46232 -0.93757,1.58763 -1.45675,2.50061 l -0.94393,1.66001 0.70857,0.34898 c 0.70354,0.34646 0.70502,0.35442 0.2067,1.14839 -0.65846,1.04887 -0.63728,1.1208 0.22811,0.77592 0.40147,-0.15987 0.89319,-0.22962 1.09273,-0.15444 0.2304,0.0864 0.81703,-0.1817 1.60742,-0.7363 0.86923,-0.60954 1.39125,-0.83857 1.73073,-0.75934 0.86062,0.20069 0.53141,0.83183 -1.77716,3.40569 -1.2448,1.38785 -2.18101,2.57345 -2.08047,2.63459 0.10064,0.061 0.63253,-0.20517 1.18217,-0.59204 0.92769,-0.6529 1.05557,-0.68771 1.78324,-0.48617 0.43115,0.11978 0.78489,0.3614 0.78608,0.53751 0.003,0.17625 -0.90157,1.3947 -2.00614,2.70796 -1.92107,2.28386 -1.98383,2.39859 -1.44469,2.63853 0.62452,0.27779 0.57291,0.67551 -0.23354,1.79895 -0.46651,0.64997 -0.46322,0.67804 0.08,0.67804 0.92677,0 0.99476,0.53109 0.17677,1.38028 -0.60222,0.62515 -0.72009,0.92606 -0.56272,1.43632 l 0.19916,0.64601 0.94284,-0.55588 c 1.69653,-1.0003 2.23532,-0.61086 1.15007,0.83123 -0.3877,0.51514 -0.80469,1.28838 -0.9267,1.71836 -0.20844,0.73447 -0.28045,0.78175 -1.19164,0.78175 -0.81589,0 -1.33884,0.2258 -3.2957,1.42371 -1.3074,0.80028 -2.50422,1.38768 -2.73308,1.34121 -0.26971,-0.0545 0.21934,-0.4792 1.44885,-1.25837 1.69725,-1.07518 2.2282,-1.59702 1.62494,-1.59702 -0.12708,0 -0.54687,0.1346 -0.93284,0.29935 -0.54225,0.23127 -0.82207,0.2534 -1.23086,0.098 -0.67353,-0.25597 -1.41901,0.0835 -3.25023,1.47951 -0.73316,0.55895 -1.50162,1.01626 -1.70769,1.01626 -0.53855,0 -0.47911,-0.12815 0.51695,-1.11273 0.4904,-0.48467 0.89162,-0.96162 0.89162,-1.0596 0,-0.28039 -0.77789,-0.20781 -1.21504,0.11246 -0.29321,0.21492 -0.73223,0.26752 -1.68839,0.20164 -1.26725,-0.0871 -1.32874,-0.0655 -3.18962,1.10607 -1.04361,0.65709 -2.00544,1.12716 -2.13741,1.04455 -0.13198,-0.0824 0.55339,-0.59045 1.52305,-1.12858 1.2996,-0.72132 1.67563,-1.0316 1.43063,-1.1806 -0.39539,-0.24056 -2.70398,0.61942 -3.67141,1.3676 -0.64323,0.49743 -1.75127,0.63618 -1.75127,0.21895 0,-0.13714 0.20058,-0.35043 0.4458,-0.47422 0.75448,-0.38079 0.50178,-0.54238 -0.84861,-0.54238 -1.16974,0 -1.4846,0.1063 -3.26802,1.10007 -2.12117,1.1824 -3.06146,1.36373 -1.8373,0.35446 1.42463,-1.17474 0.91719,-1.19629 -2.6088,-0.11077 -2.60888,0.80317 -4.36574,1.01143 -4.36574,0.5176 0,-0.13899 0.33436,-0.55264 0.74301,-0.9185 0.40868,-0.36585 0.74302,-0.76829 0.74302,-0.89435 0,-0.51249 -0.59679,-0.16699 -1.55732,0.90076 -1.11533,1.24012 -1.96536,1.55255 -4.27645,1.57179 -1.09171,0.0102 -1.26807,-0.0502 -1.59874,-0.53566 -0.40753,-0.59847 -0.30165,-0.75165 2.80155,-4.05338 0.74192,-0.78936 1.27342,-1.48091 1.18111,-1.53679 -0.28276,-0.17152 -1.1774,0.62492 -3.52431,3.13613 -1.23739,1.32402 -2.51474,2.55309 -2.83857,2.73143 -0.37507,0.20611 -1.04735,0.32261 -1.85227,0.32017 -0.80755,-0.004 -1.71398,0.15442 -2.51187,0.43602 -1.24371,0.43839 -1.24978,0.43839 -1.62519,0.0734 -0.26768,-0.26112 -0.57324,-0.33703 -1.05498,-0.26337 -0.89689,0.13687 -0.88281,-0.18619 0.0646,-1.48984 0.86146,-1.1849 0.85247,-1.15785 0.38406,-1.15785 -0.19745,0 -0.86219,0.29933 -1.47725,0.66429 -0.97869,0.58137 -1.20555,0.64009 -1.818,0.47024 -0.64578,-0.17882 -0.80934,-0.10427 -2.11923,0.97267 -0.92134,0.75728 -1.59144,1.14564 -1.90959,1.10672 -0.51574,-0.0635 -0.61823,-0.6934 -0.20653,-1.27032 0.18097,-0.25342 0.0784,-0.31606 -0.5176,-0.31606 -0.41147,0 -1.15884,-0.236 -1.67389,-0.52876 -0.55866,-0.31762 -1.33263,-0.55227 -1.93675,-0.58758 -0.95999,-0.0563 -1.0758,0.0102 -2.51889,1.34803 -1.54461,1.43658 -2.19737,1.77434 -2.76338,1.43002 -0.22763,-0.13872 -0.0422,-0.45683 0.64626,-1.10962 0.72382,-0.68614 0.91723,-1.03267 0.77234,-1.38376 -0.14401,-0.34899 0.0433,-0.69273 0.73529,-1.34869 0.5107,-0.48418 0.84289,-0.9645 0.73825,-1.06752 -0.35621,-0.35098 -0.93564,-0.18883 -1.43135,0.40015 -1.21743,1.4462 -4.61983,4.57035 -5.0308,4.61928 -0.79592,0.0952 -0.81811,-0.46081 -0.0542,-1.35551 l 0.74127,-0.86819 -0.83086,0.63228 c -1.83086,1.39315 -2.36933,1.68889 -2.86486,1.57317 -0.27073,-0.0635 -0.49224,-0.25953 -0.49224,-0.43695 0,-0.17697 1.1368,-1.54012 2.52625,-3.02877 2.48504,-2.66242 2.83839,-3.16929 2.20951,-3.16929 -0.80499,0 -1.5373,0.48268 -3.21618,2.12089 -2.97529,2.90274 -5.16712,4.65252 -5.90859,4.71693 -0.85384,0.0743 -1.11779,-0.33704 -0.69254,-1.07926 0.41541,-0.72498 0.24801,-0.82505 -0.72872,-0.43596 -0.82098,0.32707 -1.62087,0.26784 -1.61845,-0.11909 0.003,-0.12709 0.4737,-0.79147 1.05089,-1.47574 0.57719,-0.68419 0.98099,-1.28558 0.89734,-1.33652 -0.31149,-0.1895 -1.10445,0.40813 -2.01008,1.51526 -0.91431,1.11751 -1.47741,1.45015 -2.07488,1.22555 -0.29512,-0.11145 -0.22664,-0.54404 0.19685,-1.245 0.13462,-0.22251 -0.0873,-0.13614 -0.57772,0.22608 -1.23432,0.91093 -1.77796,0.79816 -1.65693,-0.34402 0.0279,-0.26335 -0.0916,-0.53287 -0.26573,-0.59827 -0.17405,-0.0654 -0.31651,-0.27685 -0.31651,-0.46975 0,-0.6303 -0.50591,-0.37228 -1.73288,0.88418 -1.58956,1.62768 -2.02817,1.85011 -2.67895,1.35866 -0.66965,-0.50586 -1.41633,-0.63662 -1.84417,-0.32316 -0.19543,0.14335 -0.60644,0.26047 -0.91335,0.26047 -0.91692,0 -0.67173,-0.65401 0.928,-2.4754 0.81733,-0.93053 1.48604,-1.73054 1.48604,-1.77781 0,-0.13687 -1.60184,-0.0941 -1.95552,0.0526 -0.17651,0.0737 -1.2694,0.9887 -2.4287,2.03481 -2.19266,1.97844 -3.41792,2.88921 -3.88697,2.88921 -0.15127,0 -0.428,-0.11243 -0.61502,-0.24922 -0.44681,-0.32761 -0.2055,-0.69429 2.19278,-3.33316 1.06596,-1.17287 1.93812,-2.22979 1.93812,-2.34865 0,-0.49465 -0.53439,-0.11977 -2.08042,1.45926 -1.99271,2.03514 -4.13143,3.97435 -4.57541,4.14879 -0.18068,0.0709 -0.5035,0.0257 -0.71735,-0.10718 -0.32031,-0.19498 -0.27452,-0.35445 0.25975,-0.90516 0.35671,-0.36787 0.56373,-0.7203 0.46003,-0.78338 -0.25978,-0.15802 -1.88154,0.79973 -2.74603,1.62167 -0.69517,0.66102 -1.3793,0.85802 -1.74158,0.50137 -0.26672,-0.26237 0.36659,-1.6031 1.22114,-2.58488 0.4132,-0.47472 0.70469,-0.94814 0.64773,-1.05203 -0.057,-0.10415 -1.17041,0.54812 -2.47436,1.449 -1.30393,0.90087 -2.53134,1.63879 -2.72756,1.63974 -0.1962,6e-4 -0.48707,-0.14047 -0.64642,-0.31314 -0.15933,-0.17343 -0.34589,-0.27492 -0.41456,-0.22611 -0.0687,0.0498 -0.66566,0.57704 -1.32662,1.17372 -1.69283,1.52808 -2.60456,2.01804 -3.1978,1.71858 -0.61318,-0.30963 -0.41581,-0.6621 1.46826,-2.62257 0.86006,-0.895 2.04128,-2.19679 2.62493,-2.89282 1.45314,-1.733 1.70977,-3.82798 0.27481,-2.24325 -0.27847,0.30767 -1.54633,1.61959 -2.81749,2.91573 -3.58298,3.65338 -4.33904,4.21351 -5.07951,3.76302 -0.48959,-0.29768 -0.63237,-0.23764 -1.7019,0.71691 -1.00208,0.89438 -1.83709,1.14529 -2.15173,0.64652 -0.0895,-0.1416 0.36433,-0.92087 1.00843,-1.73107 1.23167,-1.54936 1.43221,-2.03827 0.77291,-1.88437 -0.21902,0.0512 -0.57916,-0.0399 -0.80031,-0.20165 -0.34818,-0.255 -0.15514,-0.58422 1.4384,-2.45232 1.97282,-2.31259 1.98557,-2.33175 1.55788,-2.33175 -0.15546,0 -0.78257,0.54919 -1.3936,1.22046 -2.89191,3.17676 -7.50968,7.4579 -8.04444,7.4579 -0.2219,0 -0.50717,-0.17053 -0.63387,-0.3788 -0.20429,-0.33606 -0.40467,-0.2334 -1.76907,0.90401 -0.84624,0.70557 -1.67868,1.2829 -1.84979,1.2829 -0.61058,0 -0.67409,-0.5998 -0.12875,-1.21581 0.5194,-0.58676 0.52233,-0.63705 0.0468,-0.79898 -0.75032,-0.25565 -0.65052,-0.53414 0.95014,-2.65392 2.37113,-3.14007 2.38532,-3.74439 0.0252,-1.07173 -0.88054,0.99716 -1.4013,1.40127 -1.80594,1.40127 -0.31273,0 -0.56861,-0.0817 -0.56861,-0.18074 0,-0.32711 -0.93881,-0.18883 -1.83743,0.27137 -0.48567,0.24859 -1.06868,0.45185 -1.29559,0.45185 -0.2269,0 -0.5557,0.16317 -0.73067,0.36137 -0.17497,0.19876 -0.51823,0.36141 -0.76281,0.36141 -0.8924,0 -0.80276,-0.59367 0.27243,-1.80469 0.59662,-0.67192 1.08479,-1.25989 1.08479,-1.30652 0,-0.0445 -0.83023,-0.0897 -1.84493,-0.0953 -1.50362,-0.0102 -1.93858,-0.0808 -2.35103,-0.3907 -0.70083,-0.52645 -1.04322,-0.47921 -1.81978,0.25214 -0.76429,0.71934 -1.54278,0.94386 -2.17177,0.62631 -0.6118,-0.30863 -0.54024,-0.70864 0.335,-1.87162 1.25624,-1.66925 0.67979,-1.50844 -1.04214,0.29097 -0.88352,0.92308 -1.86257,1.94281 -2.17568,2.26603 -0.62935,0.64961 -1.23315,0.75038 -1.66744,0.27847 -0.24604,-0.26758 -0.47303,-0.18149 -1.67696,0.63277 -0.90813,0.61443 -1.62897,0.94211 -2.07261,0.94211 -0.42811,0 -0.97428,0.23484 -1.47364,0.6328 -0.92034,0.73406 -1.43843,0.79147 -2.08377,0.23128 -0.6566,-0.57031 -0.5829,-0.99828 0.42897,-2.49097 0.49039,-0.72343 0.89163,-1.38555 0.89163,-1.4713 0,-0.43143 -0.99296,-0.0445 -2.37768,0.92891 -1.06452,0.74742 -1.76052,1.08477 -2.23845,1.08477 -0.763275,0 -1.16856,-0.47522 -0.844016,-0.98977 0.165353,-0.26208 0.08627,-0.29582 -0.453329,-0.19144 -0.370848,0.0717 -0.834191,0.0345 -1.070933,-0.0846 -0.338204,-0.17056 -0.503431,-0.0853 -0.871752,0.45089 -0.589494,0.85824 -1.462145,0.81865 -1.602354,-0.0725 -0.08594,-0.54648 -0.984069,-1.25901 -1.608488,-1.27623 -0.120416,-0.004 -0.41451,0.27845 -0.65355,0.62681 -0.33253,0.48415 -0.609321,0.6328 -1.178275,0.6328 -0.605167,0 -0.941853,0.21584 -1.808155,1.15802 -1.207841,1.31389 -1.73157,1.64057 -2.385411,1.48787 -0.769066,-0.17958 -0.843888,-0.63757 -0.286937,-1.75658 0.293565,-0.58982 0.457064,-1.11909 0.363321,-1.17615 -0.09379,-0.0574 -0.48969,0.0258 -0.879879,0.17886 -0.646864,0.25792 -0.771842,0.25599 -1.417415,-0.0189 -0.666074,-0.28392 -0.726788,-0.28197 -1.025306,0.0258 -1.086804,1.12632 -3.270254,3.10359 -3.550787,3.21548 -1.388874,0.554 -2.031097,-0.34996 -1.066115,-1.50059 0.623614,-0.74366 0.628543,-0.78711 0.115378,-1.01536 -0.819291,-0.36441 -1.085987,-0.30319 -2.502941,0.57515 -1.80083,1.11626 -3.269278,1.05652 -3.269278,-0.13327 0,-0.46578 -0.05723,-0.49411 -0.629077,-0.3077 -0.490628,0.15963 -0.721368,0.14897 -1.048309,-0.0502 -0.360807,-0.21967 -0.355412,-0.34797 0.03869,-0.92162 l 0.45786,-0.66662 h -1.175265 c -0.64641,0 -1.257935,-0.0816 -1.35896,-0.18075 -0.320098,-0.31473 -0.667118,-0.19854 -1.274875,0.42803 -0.775924,0.80002 -2.352979,1.01939 -3.842551,0.53453 -0.987807,-0.32119 -1.021407,-0.32119 -1.335725,0.0191 -0.177367,0.19215 -0.763519,0.63905 -1.302632,0.9944 -0.815652,0.53756 -1.070158,0.61259 -1.516126,0.44689 -0.294766,-0.10989 -0.579412,-0.42204 -0.632541,-0.69423 -0.08187,-0.42008 -0.202825,-0.47872 -0.794575,-0.38876 -0.493827,0.0755 -0.967733,-0.0289 -1.620292,-0.36535 -0.709211,-0.36285 -1.10936,-0.44441 -1.731698,-0.35142 -1.936233,0.28837 -1.998159,0.26656 -1.998159,-0.71308 0,-0.49711 -0.147028,-1.05498 -0.326717,-1.23954 -0.280164,-0.28779 -0.589207,-0.0101 -2.169765,1.98874 -1.013689,1.27848 -2.583842,3.12235 -3.489216,4.09771 -1.496192,1.61164 -1.718199,1.76814 -2.436939,1.7176 -1.182915,-0.0835 -1.135425,-0.60752 0.232107,-2.56211 1.279438,-1.82866 1.42176,-2.12663 0.849517,-1.77849 -0.579879,0.35243 -1.758966,0.2643 -1.934909,-0.14447 -0.223758,-0.52058 -0.488629,-0.4509 -1.198715,0.31604 -0.899002,0.97105 -2.308219,1.74503 -2.918176,1.60266 -0.671742,-0.15633 -0.437822,-0.81597 0.92301,-2.60074 0.892057,-1.16999 1.035296,-1.5227 0.879635,-2.16598 -0.102227,-0.42253 -0.288169,-0.76839 -0.413121,-0.76839 -0.366284,0 -1.37924,0.75366 -2.123783,1.58004 -0.792273,0.87942 -1.614445,1.12539 -2.322229,0.69487 -0.443199,-0.26981 -0.443871,-0.35592 -0.0082,-1.05826 0.873486,-1.40901 0.891488,-1.49213 0.140918,-0.65138 -1.062809,1.19054 -2.113806,1.34402 -2.812856,0.41061 -0.465375,-0.62139 -0.429412,-0.94882 0.275909,-2.51278 0.337348,-0.74805 0.529603,-1.52064 0.427214,-1.71688 -0.102228,-0.19616 0.115055,-0.92568 0.483171,-1.62104 0.368138,-0.69529 0.585766,-1.31502 0.483621,-1.37714 -0.102023,-0.0619 -0.491583,0.0188 -0.865462,0.17695 -0.883688,0.37678 -1.351059,0.36634 -1.706937,-0.0398 -0.220683,-0.25048 0.0896,-0.85807 1.316725,-2.57638 0.883017,-1.23653 1.610086,-2.38174 1.615707,-2.54501 0.0061,-0.16865 -0.310548,-0.34546 -0.732772,-0.41007 -0.544753,-0.0827 -0.743015,-0.23413 -0.743015,-0.56561 0,-0.2486 0.334354,-0.95272 0.743015,-1.56454 0.40866,-0.61181 0.743014,-1.17968 0.743014,-1.262 0,-0.37283 -0.88049,-0.0907 -1.522012,0.48766 -0.702144,0.63296 -1.7228,0.95122 -2.324775,0.72496 -0.480743,-0.18077 -0.376134,-0.89155 0.280355,-1.90474 0.750692,-1.15823 0.749918,-1.16412 -0.186126,-1.42348 -0.774376,-0.2149 -0.778855,-0.227 -0.575868,-1.64309 l 0.204595,-1.42686 -0.835874,-0.058 c -0.755539,-0.0526 -0.844753,-0.13356 -0.928346,-0.84031 -0.10182,-0.86038 1.499368,-4.9224 2.203875,-5.59113 0.52166,-0.49507 1.18269,-0.52375 1.583205,-0.0687 0.214453,0.24409 0.134402,0.68578 -0.286742,1.58142 -0.749429,1.59418 -0.746538,1.92266 0.01222,1.3347 0.320588,-0.2486 0.67056,-0.61476 0.777715,-0.81363 0.107113,-0.19879 0.638182,-0.78446 1.180042,-1.30128 0.909185,-0.86714 0.942092,-0.94796 0.426745,-1.04744 -0.439411,-0.0852 -0.602545,-0.35839 -0.765375,-1.28336 -0.170851,-0.97007 -0.09632,-1.35118 0.425278,-2.18057 0.347733,-0.55277 0.999233,-1.23072 1.447808,-1.5066 0.448574,-0.27587 0.994997,-0.638 1.214275,-0.80479 0.632316,-0.48069 1.365475,-0.26979 1.533151,0.44191 0.124017,0.52668 0.320323,0.66637 1.188818,0.84655 0.572123,0.11807 1.525392,0.22039 2.118367,0.22606 0.592972,0.0101 1.246001,0.13327 1.451166,0.28394 0.529928,0.38821 1.048206,0.0717 1.631589,-0.9967 0.656021,-1.20145 1.15805,-1.43109 2.03402,-0.93046 0.875461,0.50026 1.206251,0.48915 2.440889,-0.0834 1.107159,-0.51368 1.8751,-0.47374 2.126531,0.11147 0.228687,0.53194 0.669401,0.43847 0.874546,-0.18527 0.09876,-0.30059 0.292241,-0.58855 0.429922,-0.64026 0.137657,-0.0518 0.514124,-0.45682 0.836523,-0.90026 0.994204,-1.36719 2.231957,-0.87567 1.913528,0.75994 -0.161283,0.8285 -0.120554,0.90284 0.603988,1.10364 0.427317,0.11806 0.776926,0.2833 0.776926,0.36637 0,0.0827 0.76904,0.15677 1.708932,0.16415 0.939932,0.0101 2.213505,0.0718 2.830142,0.14446 1.429846,0.16794 2.838554,-0.1708 3.072655,-0.73813 0.09571,-0.2315 0.376793,-0.52408 0.6247,-0.64925 0.372577,-0.18859 0.542331,-0.15869 0.979176,0.16962 0.527442,0.39619 0.529886,0.39619 1.269317,0.0445 0.421795,-0.20163 0.826568,-0.63241 0.939911,-0.99991 0.226162,-0.7334 0.892545,-0.98534 1.549381,-0.58578 0.371272,0.22578 0.39229,0.44585 0.126255,1.32096 -0.175535,0.5775 -0.256745,1.08785 -0.180627,1.13423 0.07617,0.0445 0.376752,-0.18313 0.667914,-0.50926 0.291161,-0.32659 0.916942,-0.8705 1.3906,-1.2088 1.035964,-0.74004 1.926126,-0.73472 2.515004,0.0166 l 0.409703,0.52153 0.729146,-0.56673 c 0.45734,-0.35542 0.995974,-0.56679 1.444958,-0.56679 0.74049,0 0.920713,0.22321 1.091455,1.35261 0.07211,0.47721 0.16678,0.4061 0.824514,-0.61738 0.836366,-1.30153 1.463934,-1.66388 2.220217,-1.2821 0.411039,0.2078 0.454611,0.47025 0.27994,1.68846 -0.25488,1.77756 0.232645,1.77165 0.776705,-0.0102 0.511854,-1.67557 0.768888,-2.03624 1.451057,-2.03624 0.6358,0 1.05105,0.53878 0.801218,1.03958 -0.08683,0.17413 -0.226931,0.90625 -0.311369,1.62717 -0.200056,1.70829 0.37387,1.77462 1.56489,0.18076 0.947831,-1.26835 1.209292,-1.43294 2.831709,-1.78259 1.08786,-0.23438 1.172423,-0.2251 1.723911,0.18882 0.482773,0.36289 0.548695,0.60456 0.393534,1.44393 l -0.18637,1.00833 0.988729,-0.67865 c 1.448094,-0.99383 2.912707,-1.58122 3.944247,-1.58186 0.776834,-3.4e-4 1.015633,-0.12264 1.651196,-0.84529 0.827567,-0.94092 1.462857,-1.25641 2.188667,-1.087 0.3879,0.0906 0.48621,0.37679 0.48621,1.41632 v 1.30279 l 0.68787,-0.39317 c 0.37835,-0.21611 0.95946,-0.39322 1.29139,-0.39322 0.33193,0 0.85521,-0.16891 1.16285,-0.37584 0.40038,-0.2688 0.78624,-0.34846 1.35759,-0.27876 0.50284,0.061 0.93127,-3.7e-4 1.15775,-0.16629 0.46297,-0.33903 1.1496,-0.33554 1.77734,0.0101 0.4555,0.25113 0.56616,0.17506 1.31999,-0.90407 0.60337,-0.86358 0.9741,-1.17765 1.39013,-1.17765 0.31677,0 0.71689,-0.19949 0.90589,-0.45187 0.32025,-0.42749 1.09675,-0.59564 1.53105,-0.33159 z m -7.65309,5.78134 c -0.24881,0.39418 0.0816,0.57777 0.43263,0.23993 0.35145,-0.33805 0.35893,-0.53717 0.0202,-0.53717 -0.14598,0 -0.34974,0.13355 -0.45281,0.29741 z m -4.7501,0.63648 c 0.265,0.26112 0.7136,-0.0258 0.70352,-0.4469 -0.009,-0.38325 -0.0235,-0.38477 -0.4363,-0.0533 -0.23476,0.18883 -0.35501,0.41356 -0.26722,0.50019 z m -66.121874,9.24318 c -0.347122,0.57546 -0.619978,1.22636 -0.606354,1.44637 0.03421,0.55378 1.352626,-1.17561 1.624667,-2.13116 0.279249,-0.98086 -0.213637,-0.64936 -1.018313,0.68479 z m 142.212094,23.00931 c -0.1015,0.16082 -0.0516,0.23339 0.11681,0.16985 0.16159,-0.0607 0.29379,-0.18692 0.29379,-0.28039 0,-0.2598 -0.21301,-0.20258 -0.4106,0.11045 z m -118.716766,0.32162 c -0.06678,0.20971 0.04562,0.26784 0.371517,0.19214 0.549436,-0.1281 0.642358,-0.67836 0.09591,-0.56768 -0.204331,0.0399 -0.414647,0.21065 -0.467411,0.37629 z m 131.610066,1.20602 c -0.17497,0.19877 -0.25125,0.36143 -0.16951,0.36143 0.0819,0 0.29175,-0.16323 0.46672,-0.36143 0.17495,-0.19879 0.25127,-0.36137 0.16951,-0.36137 -0.082,0 -0.29177,0.16319 -0.46672,0.36137 z"
       style="fill:#ff6600;stroke-width:0.23180759" />
  </g>
</svg>
