<?xml version="1.0" encoding="UTF-8" standalone="no"?>
<svg
   id="wave"
   style="transform:rotate(0deg); transition: 0.3s"
   viewBox="0 0 1440 490"
   version="1.1"
   sodipodi:docname="wave.svg"
   inkscape:version="1.3.2 (091e20e, 2023-11-25, custom)"
   xmlns:inkscape="http://www.inkscape.org/namespaces/inkscape"
   xmlns:sodipodi="http://sodipodi.sourceforge.net/DTD/sodipodi-0.dtd"
   xmlns:xlink="http://www.w3.org/1999/xlink"
   xmlns="http://www.w3.org/2000/svg"
   xmlns:svg="http://www.w3.org/2000/svg">
  <sodipodi:namedview
     id="namedview6"
     pagecolor="#ffffff"
     bordercolor="#666666"
     borderopacity="1.0"
     inkscape:showpageshadow="2"
     inkscape:pageopacity="0.0"
     inkscape:pagecheckerboard="0"
     inkscape:deskcolor="#d1d1d1"
     inkscape:zoom="0.63786924"
     inkscape:cx="767.39866"
     inkscape:cy="347.24985"
     inkscape:window-width="1920"
     inkscape:window-height="1001"
     inkscape:window-x="-9"
     inkscape:window-y="-9"
     inkscape:window-maximized="1"
     inkscape:current-layer="wave" />
  <defs
     id="defs2">
    <linearGradient
       id="linearGradient13"
       inkscape:collect="always">
      <stop
         style="stop-color:#ff0000;stop-opacity:1;"
         offset="0"
         id="stop13" />
      <stop
         style="stop-color:#ffe680;stop-opacity:1"
         offset="1"
         id="stop14" />
    </linearGradient>
    <linearGradient
       id="linearGradient6"
       inkscape:collect="always">
      <stop
         style="stop-color:#ff0000;stop-opacity:1;"
         offset="0"
         id="stop7" />
      <stop
         style="stop-color:#ffdd55;stop-opacity:1"
         offset="1"
         id="stop8" />
    </linearGradient>
    <linearGradient
       id="sw-gradient-0"
       x1="0"
       x2="0"
       y1="1166.2097"
       y2="128.99146"
       gradientTransform="matrix(1.3873023,0,0,0.15263521,2.3284974,312.96942)"
       gradientUnits="userSpaceOnUse">
      <stop
         stop-color="rgba(255, 69.236, 9.575, 1)"
         offset="0%"
         id="stop1" />
      <stop
         stop-color="rgba(221.218, 152.314, 0, 1)"
         offset="100%"
         id="stop2" />
    </linearGradient>
    <linearGradient
       inkscape:collect="always"
       xlink:href="#linearGradient6"
       id="linearGradient8"
       x1="2.3284949"
       y1="411.81607"
       x2="1441.2638"
       y2="411.81607"
       gradientUnits="userSpaceOnUse"
       gradientTransform="translate(3.1354389,3.1354384)" />
    <clipPath
       clipPathUnits="userSpaceOnUse"
       id="clipPath10">
      <rect
         style="opacity:1;fill:none;fill-opacity:1;stroke:#000000;stroke-width:1.9;stroke-linecap:round;stroke-dasharray:none;stroke-opacity:1;paint-order:markers stroke fill"
         id="rect10"
         width="1510.9469"
         height="165.17322"
         x="125.26559"
         y="651.82446" />
    </clipPath>
    <filter
       inkscape:menu-tooltip="In and out glow with a possible offset and colorizable flood"
       inkscape:menu="Shadows and Glows"
       inkscape:label="Cutout Glow"
       style="color-interpolation-filters:sRGB;"
       id="filter10"
       x="-0.0050036994"
       y="-0.045478657"
       width="1.0120923"
       height="1.1099068">
      <feOffset
         dy="3"
         dx="3"
         id="feOffset10" />
      <feGaussianBlur
         stdDeviation="3"
         result="blur"
         id="feGaussianBlur10" />
      <feFlood
         flood-color="rgb(0,0,0)"
         flood-opacity="1"
         result="flood"
         id="feFlood10" />
      <feComposite
         in="flood"
         in2="SourceGraphic"
         operator="in"
         result="composite"
         id="feComposite10" />
      <feBlend
         in="blur"
         in2="composite"
         mode="normal"
         id="feBlend10" />
    </filter>
    <clipPath
       clipPathUnits="userSpaceOnUse"
       id="clipPath12">
      <rect
         style="opacity:1;fill:none;fill-opacity:1;stroke:#000000;stroke-width:1.77907;stroke-linecap:round;stroke-dasharray:none;stroke-opacity:1;paint-order:markers stroke fill"
         id="rect12"
         width="1442.4229"
         height="418.70203"
         x="3.0749626"
         y="79.893242" />
    </clipPath>
    <linearGradient
       inkscape:collect="always"
       xlink:href="#linearGradient13"
       id="linearGradient14"
       x1="1272.9277"
       y1="281.79285"
       x2="6.6237316"
       y2="288.06372"
       gradientUnits="userSpaceOnUse" />
    <filter
       inkscape:menu-tooltip="In and out glow with a possible offset and colorizable flood"
       inkscape:menu="Shadows and Glows"
       inkscape:label="Cutout Glow"
       style="color-interpolation-filters:sRGB;"
       id="filter15"
       x="-0.0033828914"
       y="-0.018541126"
       width="1.0081753"
       height="1.0448077">
      <feOffset
         dy="3"
         dx="3"
         id="feOffset15" />
      <feGaussianBlur
         stdDeviation="3"
         result="blur"
         id="feGaussianBlur15" />
      <feFlood
         flood-color="rgb(0,0,0)"
         flood-opacity="1"
         result="flood"
         id="feFlood15" />
      <feComposite
         in="flood"
         in2="SourceGraphic"
         operator="in"
         result="composite"
         id="feComposite15" />
      <feBlend
         in="blur"
         in2="composite"
         mode="normal"
         id="feBlend15" />
    </filter>
    <filter
       inkscape:menu="Shadows and Glows"
       inkscape:menu-tooltip="Cut out, add inner shadow and colorize some parts of an image"
       style="color-interpolation-filters:sRGB;"
       inkscape:label="Emergence"
       id="filter20"
       x="-0.0057543321"
       y="-0.015377175"
       width="1.013585"
       height="1.0384676">
      <feColorMatrix
         values="0 0 0 0 0 0 0 0 0 0 0 0 0 0 0 0.21 0.72 0.07 0 0 "
         result="result1"
         id="feColorMatrix15" />
      <feColorMatrix
         values="1 0 0 0 0 0 1 0 0 0 0 0 1 0 0 0 0 0 2 0 "
         result="result9"
         id="feColorMatrix16" />
      <feComposite
         in2="result9"
         in="SourceGraphic"
         operator="in"
         result="result4"
         id="feComposite16" />
      <feFlood
         result="result2"
         flood-color="rgb(0,0,0)"
         id="feFlood16" />
      <feComposite
         in2="result9"
         operator="in"
         result="result10"
         id="feComposite17" />
      <feComposite
         in2="result4"
         operator="atop"
         id="feComposite18" />
      <feGaussianBlur
         stdDeviation="3"
         result="result8"
         id="feGaussianBlur18" />
      <feOffset
         dx="3"
         dy="3"
         result="result3"
         in="result8"
         id="feOffset18" />
      <feFlood
         flood-opacity="1"
         flood-color="rgb(219,173,62)"
         result="result5"
         id="feFlood18" />
      <feMerge
         result="result6"
         id="feMerge20">
        <feMergeNode
           in="result5"
           id="feMergeNode18" />
        <feMergeNode
           in="result3"
           id="feMergeNode19" />
        <feMergeNode
           in="result4"
           id="feMergeNode20" />
      </feMerge>
      <feComposite
         in2="SourceGraphic"
         operator="in"
         result="result7"
         id="feComposite20" />
    </filter>
  </defs>
  <path
     style="opacity:1;fill:url(#linearGradient14);fill-opacity:1;stroke-width:0.862172;filter:url(#filter15)"
     fill="url(#sw-gradient-2)"
     d="m 1442.6547,235.0191 -14.7431,14.05339 c -14.8294,14.39827 -44.7467,41.98776 -74.0606,14.13962 -29.4,-28.19301 -58.6276,-112.68583 -88.8036,-133.80904 -29.3139,-21.1232 -58.6277,21.12321 -88.8037,21.12321 -29.2276,0 -58.6277,-42.24641 -87.9415,-49.31622 -29.9174,-6.724938 -59.4898,20.86455 -88.80369,35.26282 -29.83113,14.0534 -59.48984,14.0534 -88.80367,49.23 -29.65871,35.52147 -59.48984,105.35737 -88.80369,91.56263 -29.57248,-13.79475 -59.48984,-112.94448 -88.80367,-119.66942 -29.40005,-7.06981 -58.62767,77.42301 -88.80368,91.4764 -29.31383,14.39827 -58.62767,-42.50506 -88.80367,-56.2998 -29.22762,-13.79475 -58.62767,13.79474 -87.94151,14.0534 -29.91735,-0.25866 -59.48984,-27.84815 -88.80367,-49.23 -29.83114,-20.86456 -59.48988,-35.52148 -88.80371,6.98359 -29.6587,41.98775 -59.48984,141.13749 -88.80368,140.87884 -29.57248,0.25865 -59.48984,-98.89109 -88.80367,-140.87884 C 82.923836,122.07461 53.696219,136.73153 23.520213,192.77269 -5.79362,248.81384 -35.10746,347.96358 -65.28346,340.63512 c -29.22762,-7.32846 -58.62767,-119.41077 -87.94151,-168.98564 -29.91735,-49.57487 -59.48984,-34.91795 -88.80367,-14.05339 -29.83114,21.38185 -59.48984,48.97134 -88.80368,63.36961 -29.6587,14.0534 -59.48984,14.0534 -88.80367,49.23 -29.57249,35.52147 -59.48984,105.35737 -88.80368,133.80903 -29.40005,28.45166 -58.62767,13.79475 -88.80367,7.06981 -29.31384,-7.06981 -58.62767,-7.06981 -73.28459,-7.06981 h -15.17422 v 84.49281 h 14.82935 c 14.74314,0 44.31562,0 73.62946,0 29.83113,0 59.48984,0 88.80367,0 29.65871,0 59.48984,0 88.80368,0 29.57248,0 59.48984,0 88.80367,0 29.40005,0 58.62767,0 88.80368,0 29.31383,0 58.62767,0 88.80367,0 29.22762,0 58.62767,0 87.94151,0 29.91735,0 59.48984,0 88.803673,0 29.831137,0 59.48984,0 88.803677,0 29.6587,0 59.48984,0 88.80367,0 29.57249,0 59.48984,0 88.80368,0 29.40005,0 58.6277,0 88.80371,0 29.31383,0 58.62767,0 88.80367,0 29.22762,0 58.62767,0 87.94151,0 29.91735,0 59.48984,0 88.80367,0 29.83114,0 59.48984,0 88.80368,0 29.6587,0 59.48984,0 88.80367,0 29.5725,0 59.48985,0 88.80369,0 29.40005,0 58.62767,0 88.80367,0 29.31389,0 58.62769,0 88.80369,0 29.2276,0 58.6277,0 87.9415,0 29.9173,0 59.4898,0 88.8037,0 29.8311,0 59.4898,0 88.8036,0 29.6587,0 59.4899,0 74.1468,0 h 14.6569 z"
     id="path6"
     clip-path="url(#clipPath12)" />
  <path
     style="opacity:1;fill:url(#sw-gradient-1);fill-opacity:1;stroke:#000000;stroke-width:2.22863;stroke-dasharray:none;stroke-opacity:1;filter:url(#filter20)"
     fill="url(#sw-gradient-1)"
     d="m -1.217648,444.76105 10.0086783,-73.5 c 10.0672197,-73.5 30.3772377,-220.5 50.2775397,-253.2 19.958843,-32.300004 39.800613,48.7 60.28623,49 19.90029,-0.3 39.8006,-81.300004 60.28618,-65.3 19.84181,16 39.8006,131 59.70095,171.5 20.31005,40.5 40.38593,8.5 60.28618,16.3 20.25151,8.2 40.38593,57.2 60.28628,16.4 20.13442,-41.2 40.38592,-171.2 60.28618,-187.9 20.07588,-16.3 40.38592,81.7 60.28627,114.4 19.9588,32.3 39.8006,0.3 60.28618,16.3 19.90035,16 39.8006,82 60.28618,81.7 19.84181,0.3 39.8006,-65.7 59.70095,-130.7 20.31005,-65 40.38593,-131.000004 60.28618,-98 20.25151,33 40.38593,163 60.28628,236.8 20.13442,73.2 40.38592,90.2 60.28618,73.5 20.07588,-16.3 40.38592,-65.3 60.28627,-81.6 19.9588,-16.7 39.80061,0.3 60.28618,0 19.90035,0.3 39.80056,-16.7 60.28616,-49 19.8419,-32.7 39.8007,-81.7 59.701,-73.5 20.31,7.8 40.3859,73.8 60.2862,122.5 20.2515,49.3 40.3859,81.3 60.2863,57.1 20.1344,-24.8 40.3859,-105.8 60.2861,-179.6 20.0759,-73.2 40.386,-139.200004 60.2863,-138.900004 19.9588,-0.3 39.8006,65.700004 60.2862,65.400004 19.9003,0.3 39.8006,-65.700004 49.7508,-98.000004 L 1443.6616,3.7610461 V 493.76105 h -10.0673 c -10.0086,0 -30.0845,0 -49.9848,0 -20.2515,0 -40.3859,0 -60.2862,0 -20.1344,0 -40.3859,0 -60.2863,0 -20.0758,0 -40.3859,0 -60.2861,0 -19.9589,0 -39.8006,0 -60.2863,0 -19.9003,0 -39.8006,0 -60.2862,0 -19.8418,0 -39.8006,0 -59.701,0 -20.3099,0 -40.38581,0 -60.28616,0 -20.2515,0 -40.38592,0 -60.28618,0 -20.13442,0 -40.38592,0 -60.28627,0 -20.07588,0 -40.38593,0 -60.28618,0 -19.95889,0 -39.80061,0 -60.28628,0 -19.90025,0 -39.8006,0 -60.28618,0 -19.8418,0 -39.8006,0 -59.70095,0 -20.30995,0 -40.38583,0 -60.28618,0 -20.2515,0 -40.38592,0 -60.28618,0 -20.13442,0 -40.38592,0 -60.28627,0 -20.07588,0 -40.38593,0 -60.28618,0 -19.9589,0 -39.80061,0 -60.28628,0 -19.90025,0 -39.8006,0 -60.28618,0 -19.84181,0 -39.8006,0 -59.70095,0 -20.30999,0 -40.38589,0 -60.28618,0 -20.251498,0 -40.385919,0 -60.28623,0 -20.134421,0 -40.385906,0 -50.3360622,0 H -1.217648 Z"
     id="path4"
     transform="matrix(1.0001637,0,0,0.58626471,1.4496472,183.5804)" />
  <path
     style="opacity:1;fill:url(#linearGradient8);fill-opacity:1;stroke:none;stroke-width:3;stroke-dasharray:none;stroke-opacity:1;filter:url(#filter10)"
     fill="url(#sw-gradient-0)"
     d="M 5.4639338,476.30905 H 15.43144 c 10.025798,0 30.252267,0 50.07071,-11.87908 19.876733,-11.73378 39.63688,-35.70991 60.03822,-41.52232 19.81844,-5.81239 39.63688,5.81241 60.03821,17.80047 19.76015,11.98807 39.63687,23.61286 59.45531,20.77932 20.22647,-2.97885 40.21978,-20.77932 60.03822,-29.67955 20.16818,-8.90024 40.21977,-8.90024 60.03821,-26.7007 20.05159,-17.80046 40.21978,-53.4014 60.03822,-50.42254 19.9933,2.83354 40.21977,44.61015 60.0382,59.32278 19.87674,14.71263 39.63689,3.08783 60.03822,-8.90024 19.81844,-11.98807 39.63688,-23.61286 60.03821,-35.60093 19.76015,-11.98807 39.63689,-23.61286 59.45532,-14.82161 20.22647,9.00921 40.21977,38.43447 60.03823,47.44368 20.16818,8.79126 40.21978,-2.83353 60.03822,-8.90022 20.0516,-5.92138 40.21978,-5.92138 60.03821,-11.84276 19.99332,-6.06669 40.21978,-17.69149 60.03822,-23.75818 19.87673,-5.92138 39.63687,-5.92138 60.03821,8.90024 19.81844,14.96692 39.63682,44.39218 60.03832,47.48002 19.7601,3.08783 39.6368,-20.88831 59.4552,-35.60094 20.2265,-14.71263 40.2197,-20.8883 60.0383,-29.67955 20.1681,-9.00922 40.2198,-20.63401 60.0382,-5.92138 20.0515,14.71263 40.2197,56.48924 60.0381,71.20187 19.9934,14.71263 40.2199,3.08783 60.0384,-8.90024 19.8766,-11.98807 39.6368,-23.61286 60.0381,-32.62208 19.8184,-8.79125 39.6369,-14.96692 49.5461,-17.80046 l 10.259,-2.97886 v 142.40373 h -10.0259 c -9.9674,0 -29.9608,0 -49.7792,0 -20.1682,0 -40.2198,0 -60.0381,0 -20.0518,0 -40.2199,0 -60.0384,0 -19.9932,0 -40.2197,0 -60.0381,0 -19.8767,0 -39.6369,0 -60.0382,0 -19.8186,0 -39.6369,0 -60.0383,0 -19.7601,0 -39.6368,0 -59.4552,0 -20.2266,0 -40.21988,0 -60.03832,0 -20.16818,0 -40.21977,0 -60.03821,0 -20.0516,0 -40.21977,0 -60.03822,0 -19.9933,0 -40.21977,0 -60.03821,0 -19.87672,0 -39.63688,0 -60.03822,0 -19.81846,0 -39.6369,0 -60.03823,0 -19.76015,0 -39.63687,0 -59.45532,0 -20.22646,0 -40.21977,0 -60.03821,0 -20.16817,0 -40.21978,0 -60.03822,0 -20.05159,0 -40.21978,0 -60.0382,0 -19.99331,0 -40.21978,0 -60.03822,0 -19.87673,0 -39.63688,0 -60.03821,0 -19.81844,0 -39.63688,0 -60.03822,0 -19.76015,0 -39.63688,0 -59.45531,0 -20.22646,0 -40.21977,0 -60.03821,0 -20.16818,0 -40.219781,0 -60.03822,0 -20.051598,0 -40.219774,0 -50.128995,0 H 5.4639338 Z"
     id="path2"
     transform="matrix(1.0094192,0,0,1,-13.701193,0)" />
  <defs
     id="defs4">
    <linearGradient
       id="sw-gradient-1"
       x1="1096.4028"
       x2="-1.4598219"
       y1="719.9516"
       y2="741.06445"
       gradientTransform="matrix(1.3137362,0,0,0.44552561,-1.2176486,3.7610461)"
       gradientUnits="userSpaceOnUse">
      <stop
         stop-color="rgba(243, 106, 62, 1)"
         offset="0"
         id="stop3"
         style="stop-color:#ff0000;stop-opacity:1;" />
      <stop
         stop-color="rgba(255, 179, 11, 1)"
         offset="1"
         id="stop4"
         style="stop-color:#ffb700;stop-opacity:1;" />
    </linearGradient>
  </defs>
  <defs
     id="defs6">
    <linearGradient
       id="sw-gradient-2"
       x1="0"
       x2="0"
       y1="1"
       y2="0">
      <stop
         stop-color="rgba(255, 137.897, 100.287, 1)"
         offset="0%"
         id="stop5" />
      <stop
         stop-color="rgba(253.093, 195.026, 66.667, 1)"
         offset="100%"
         id="stop6" />
    </linearGradient>
  </defs>
</svg>
